<svg id="Capa_1" data-name="Capa 1" xmlns="http://www.w3.org/2000/svg" viewBox="0 0 1920 1080"><defs><style>.cls-1{fill:#143601;}.cls-2{fill:#fde74c;}</style></defs><title>Better call Daniel</title><rect class="cls-1" x="-1" width="1921" height="1080"/><path class="cls-2" d="M670.89,651.88V313.09c5.88-17.51,18.63-22.73,36.25-22.7q254.61.47,509.23.19c21.73,0,32.73,10.93,32.73,32.52q0,159.21,0,318.41c0,22-10.89,32.83-33,32.83H1026v63.37h6.32c23,0,45.92-.19,68.88.07,19,.21,31.3,18.12,24.62,35.27-4.13,10.61-13.68,16.51-27,16.52q-89.76,0-179.53,0-49.11,0-98.23,0c-8.26,0-15.71-2-21.47-8.18-7.53-8.09-9.28-17.69-5.15-27.72,4.25-10.33,12.66-15.81,23.87-15.92,23.14-.22,46.29-.07,69.44-.08h6.1V674.34h-7.15q-92,0-184.05,0c-9.43,0-18.15-1.93-24.34-9.47C675.2,661.09,673.33,656.25,670.89,651.88Zm42.33-319V632h493.67V332.9Z"/><path class="cls-2" d="M866.31,493.35q2.25,16.33-5.79,35.46a96.76,96.76,0,0,1-23.19,33.37q-15.17,14.25-31.64,16.52a34.83,34.83,0,0,1-16.57-1.3q-7.29-2.58-10.37-8.35c-.79,2.17-1.75,5-2.89,8.55s-2.84,5.45-5.4,5.8-5.4-.91-8.2-3.84a18,18,0,0,1-5-10.15,13.16,13.16,0,0,1,.47-6.1q1.38-5.25,14.92-32.48t24.4-47.64q-6.9,4.37-15.49,10.62a8.57,8.57,0,0,1-3.85,1.67q-3.53.48-8.62-2.81t-5.59-6.81a3.61,3.61,0,0,1,1.78-3.67c.29-.25,2.12-1.54,5.5-3.85s5.56-3.79,6.56-4.42l6.08-3.85a70,70,0,0,1,7.25-4.19q2.67-1.26,6.9-3.15a52.94,52.94,0,0,1,8-2.9,62.17,62.17,0,0,1,7.61-1.54,46.91,46.91,0,0,1,29.47,5.55,11,11,0,0,1,1.93,1c1.17.65,2.06,1.16,2.65,1.51s1.6,1,3,1.86a22.58,22.58,0,0,1,3.36,2.47l3.18,3a20,20,0,0,1,3.22,3.79q1.25,1.95,2.64,4.37a25.56,25.56,0,0,1,2.29,5.39A41,41,0,0,1,866.31,493.35Zm-20.81-6.58q-1.31-9.43-6.23-13.25T825.38,471a42.31,42.31,0,0,0-7.11,1.63,8.89,8.89,0,0,1,4.12,6.28,7,7,0,0,1-1.37,5.41q-1.24,1.64-6.92,11.88t-13.9,26.3Q792,538.52,786,551.9a13.52,13.52,0,0,0,.18,2.42q1.47,10.73,11.08,9.4,10.88-1.5,23-15.74a118.59,118.59,0,0,0,19.47-32Q847.07,498.14,845.5,486.77Z"/><path class="cls-2" d="M944.29,530.2q.5,3.52-2.53,8.83A86.14,86.14,0,0,1,928,558.47q-7.56,7.8-13.16,8.58a12.35,12.35,0,0,1-10.53-3,26.8,26.8,0,0,1-6.8-10.23q-11,13.28-17.13,14.11-5.6.76-9.18-5.09a17.49,17.49,0,0,0-4.46-4.52,8.37,8.37,0,0,1-3.61-5.46q-1.1-8,2.45-18.28a80.92,80.92,0,0,1,9.38-18.9,144.13,144.13,0,0,1,11.68-15.23q5.85-6.6,9.61-8.91a12.37,12.37,0,0,1,3.71-1.5q4.16-.57,10.79,3.73c2,1,3.8,3.17,5.45,6.43q2-4.51,2.91-6.11a5.34,5.34,0,0,1,3.73-2.48q3.84-.52,8.11,2.63t4.8,7a5.28,5.28,0,0,1-1.07,4.06q-3.33,4.22-13,22.18t-9.33,20.37a6,6,0,0,0,1.76,3.91,3.53,3.53,0,0,0,2.83,1q9.12-1.26,22.7-23.36a3.26,3.26,0,0,1,2.22-1.61Q943.92,527.49,944.29,530.2ZM913,507a4,4,0,0,0-3.83-1.76q-4.32.6-12.07,10.64a125.92,125.92,0,0,0-13.4,21.59q-5.67,11.54-5,16.18c.2,1.39.77,2,1.73,1.88q3.84-.53,11.56-12t12.53-20.24Q909.34,514.48,913,507Z"/><path class="cls-2" d="M1010.27,519.13a3.47,3.47,0,0,1-.1,1.64,55.9,55.9,0,0,1-11.73,20.71q-8.52,9.81-18.43,11.19a9.09,9.09,0,0,1-8.52-2.66q-3.43-3.53-4.33-10.08-.66-4.8,2.31-13.94a76.27,76.27,0,0,1,7-15.72q-5.64,5.18-14.17,17.78t-14.84,22.43q-6.31,9.84-7.59,10a13.22,13.22,0,0,1-8.52-2.09q-4.53-2.62-5-6a3.34,3.34,0,0,1,.12-1.49q1-4.54,11.26-30.66t12.24-30.64c1.07-2.43,2.52-3.77,4.33-4q2.4-.33,8,2.4c3.73,1.82,5.69,3.43,5.88,4.81a4.38,4.38,0,0,1-.33,2.33q-9.95,23.55-19,41.61,3.27-4.69,12.57-18.21T977.51,495q6.86-10,7.91-11.78a5.29,5.29,0,0,1,3.44-2.27q2.57-.35,8.26,3.1t6,5.86q.23,1.59-1.36,4.26-20.68,34.5-19.29,44.58a4.21,4.21,0,0,0,1.43,2.65,2.75,2.75,0,0,0,2.62.7q3.84-.52,10.79-9.32a101.69,101.69,0,0,0,9.91-14.41,2,2,0,0,1,1.49-1C1009.58,517.27,1010.1,517.85,1010.27,519.13Z"/><path class="cls-2" d="M1048,514.9a7.11,7.11,0,0,1-.45,3.81q-2.08,5-13.51,17.93t-18.14,13.84q-6.24.85-12-4.13t-6.17-11.63q-1.07-17.13,22.66-59.06,2.1-3.72,4.66-4.07,3-.42,9.21,2.31t6.36,5.32a8.38,8.38,0,0,1-1.42,3.95,214.05,214.05,0,0,0-18.61,34q-7.68,17.7-7.4,23.2c.15,1.07.49,1.57,1,1.49q4.8-.66,13.66-10.36a166.56,166.56,0,0,0,15.87-20.3,2.69,2.69,0,0,1,1.46-1.18Q1047.62,509.73,1048,514.9Zm9.88-66.6a10.81,10.81,0,0,1-3.21,8,15.2,15.2,0,0,1-9.55,4.66q-6.41.88-10.72-2c-2.87-1.94-4.41-4.36-4.59-7.27a8.8,8.8,0,0,1,3.11-7q3.32-3.13,10.35-4.12t10.63,1.39A7.74,7.74,0,0,1,1057.89,448.3Z"/><path class="cls-2" d="M1099.21,513.69a9.88,9.88,0,0,1-.09,1.65q-3.61,9.3-15.08,19.53t-19.63,11.36a21.83,21.83,0,0,1-9.62-1.12,28.4,28.4,0,0,1-9.73-5.51,28.83,28.83,0,0,0-2.48-2,28.93,28.93,0,0,1-2.85-2.38,29.5,29.5,0,0,1-2.33-2.69,14,14,0,0,1-2.21-4.18,30.64,30.64,0,0,1-1.27-5.62q-1-7.35,6.36-21.26a124.69,124.69,0,0,1,17.78-25.37q10.39-11.46,17.26-12.58a8.43,8.43,0,0,1,5.31.66q1.95,1.11,6.2,5.91a21.39,21.39,0,0,1,1.92,2.1c1,1.22,1.82,2.14,2.34,2.77a15.66,15.66,0,0,1,1.69,2.79,12.36,12.36,0,0,1,1.17,3.75q1.32,9.6-5.94,19.57a60.59,60.59,0,0,1-17.8,16.33q-10.55,6.35-19.66,7.6l-.48.07a18.36,18.36,0,0,0-.45,6.26q1,7.2,10,6a32.39,32.39,0,0,0,15.61-6.8,76.23,76.23,0,0,0,12.92-12.71q5.64-7.07,6.23-7.47a1,1,0,0,1,.62-.25,3.53,3.53,0,0,1,2.66.94A4.16,4.16,0,0,1,1099.21,513.69Zm-18.87-29.19a.72.72,0,0,0-.91-.69q-5.28.74-13,10.85a121.27,121.27,0,0,0-11.59,17.66q7.55-.87,16.8-12.35T1080.34,484.5Z"/><path class="cls-2" d="M1162.81,436.91a10.2,10.2,0,0,1-.08,2.94,51,51,0,0,1-7.14,18.6A80.21,80.21,0,0,1,1142.3,475a154.1,154.1,0,0,1-15,12.68,120.13,120.13,0,0,1-14.39,9.17q-6.75,17.24-5.58,25.72.72,5.12,6.31,4.34t13.6-7.25q8-6.5,15.51-18.13,1.21-1.8,2.34-1.95,2.71-.37,3.3,3.78a6.93,6.93,0,0,1-1.1,5.05q-8.54,13.74-17.74,21t-16.39,8.22q-5.44.75-8.9-1.87c-.49-.36-2.13-1.42-4.92-3.15a30.26,30.26,0,0,1-6.21-4.77,9.12,9.12,0,0,1-2.41-5q-1.5-10.87,4.09-27.06A160.83,160.83,0,0,1,1109,465.13q8.63-14.31,16.78-25.47t12.59-14.54a7.06,7.06,0,0,1,3.69-1.65q3.68-.51,11.6,4.92l2.93,1.71c1.36.79,2.37,1.42,3,1.87a8.81,8.81,0,0,1,2,2A6.28,6.28,0,0,1,1162.81,436.91Zm-12.41,5.79c-.06-.43-.25-.62-.57-.58l-.16,0q-4.87,1.32-13.28,12.43a180.86,180.86,0,0,0-16.14,26q10.65-5.55,20.68-19.74T1150.4,442.7Z"/><path class="cls-2" d="M812.85,389.51c0,1.86-1.11,3.79-3.34,5.81a28.63,28.63,0,0,1-8.38,5.09,11.44,11.44,0,0,1,3.61,8.34,9.84,9.84,0,0,1-1.71,5.66,13,13,0,0,1-4.41,4,23.34,23.34,0,0,1-5.71,2.28,23.92,23.92,0,0,1-5.87.77,17.21,17.21,0,0,1-3.64-.44,15.07,15.07,0,0,1-4.47-2,11.46,11.46,0,0,1-3.9-3.9l-.24.47a2.07,2.07,0,0,1-.29.47,2.61,2.61,0,0,1-2.25,1.72,3.33,3.33,0,0,1-2.64-1.75,6.6,6.6,0,0,1-1.21-3.87,5.56,5.56,0,0,1,.59-2.55q.82-1.65,6.93-9.44t11.6-14.47a30.93,30.93,0,0,0-7.82,3.13,3,3,0,0,1-1.77.6,2.47,2.47,0,0,1-2.31-1.54,7.24,7.24,0,0,1-.77-3.26,1.91,1.91,0,0,1,1.24-2c1.15-.51,2.67-1.1,4.56-1.75a83,83,0,0,1,8.08-2.16,43.17,43.17,0,0,1,9.44-1.18,17.81,17.81,0,0,1,7.55,1.27c1.76.85,3.33,2.63,4.71,5.36.12.19.35.58.71,1.15s.63,1.05.83,1.42a14.43,14.43,0,0,1,.59,1.36A4.06,4.06,0,0,1,812.85,389.51Zm-13.43,17.11c0-2.56-2.19-3.85-6.57-3.85a30.68,30.68,0,0,0-11,2.31q-1.83,2.43-4.55,6.34,2,2.9,8.94,2.9a20.05,20.05,0,0,0,9.14-2C798.08,411,799.42,409.07,799.42,406.62Zm7.93-20q0-3.14-6.33-3.13a32.09,32.09,0,0,0-4,.29,2.15,2.15,0,0,1,.77,1.36,1.67,1.67,0,0,1-.71,1.25q-1.36,1.25-8.35,9.88a26,26,0,0,0,7.16-1.45,31.94,31.94,0,0,0,7.88-3.73Q807.36,388.74,807.35,386.61Z"/><path class="cls-2" d="M860.86,381.52c0,.56-.2.85-.59.89q-1,.36-15.45,2.66-4.44,5.63-9.83,13.5a99.74,99.74,0,0,1,12.67-1.36,4.12,4.12,0,0,1,2.1.86,7.9,7.9,0,0,1,1.87,1.63,1.3,1.3,0,0,1,.18.53c0,.71-.54,1.06-1.6,1.06a54.32,54.32,0,0,0-9.15,1.31,39.85,39.85,0,0,0-11.33,4c-1.51,2.37-3,4.9-4.56,7.58,2.25-.51,4.83-1,7.75-1.42a51.7,51.7,0,0,1,5.74-.65,7.38,7.38,0,0,1,3.56.92,2.82,2.82,0,0,1,1.71,2.57v.12c0,.32-1,.72-3.08,1.21l-8.4,2.07a67.07,67.07,0,0,0-9.18,2.93,1.42,1.42,0,0,1-.53.06,7.46,7.46,0,0,1-3.91-1.65,5.46,5.46,0,0,1-2.42-4.68,5.31,5.31,0,0,1,.41-2.07q.7-2.07,7.9-13.74t10.39-16.33a7.15,7.15,0,0,1-.47-2.37c0-.67.14-1.07.41-1.19.63-.27,3.44-.69,8.41-1.24s8.19-.85,9.65-.89h1a9.5,9.5,0,0,1,2.88.36,12.3,12.3,0,0,1,2.87,1.6A2,2,0,0,1,860.86,381.52Z"/><path class="cls-2" d="M906.56,381.58c0,1-.69,1.5-2.07,1.54q-5.26.42-14.27,1.54a169.37,169.37,0,0,0-12.66,17.79,126.49,126.49,0,0,0-9.36,17.14,8.69,8.69,0,0,1-1.33,2.33,1.84,1.84,0,0,1-1.39.69,4.45,4.45,0,0,1-3.67-2.17,7.42,7.42,0,0,1-1.54-4.35,5.12,5.12,0,0,1,.24-1.65q.53-1.85,6.83-11.67t11-16.69c-.23,0-1.46.18-3.67.42s-4,.43-5.32.59a3.16,3.16,0,0,1-.71.06,3.91,3.91,0,0,1-2.79-1.66,4.91,4.91,0,0,1-1.42-3q0-1.77,2.49-2.13,1.36-.18,12.22-.5t18.38-.33a47.93,47.93,0,0,1,7.64.3A1.72,1.72,0,0,1,906.56,381.58Z"/><path class="cls-2" d="M941,381.58c0,1-.69,1.5-2.07,1.54q-5.27.42-14.27,1.54A169.37,169.37,0,0,0,912,402.45a127.62,127.62,0,0,0-9.36,17.14,8.43,8.43,0,0,1-1.33,2.33,1.84,1.84,0,0,1-1.39.69,4.47,4.47,0,0,1-3.67-2.17,7.42,7.42,0,0,1-1.54-4.35,5.12,5.12,0,0,1,.24-1.65q.52-1.85,6.84-11.67t11-16.69c-.24,0-1.46.18-3.67.42s-4,.43-5.33.59a3.16,3.16,0,0,1-.71.06,3.87,3.87,0,0,1-2.78-1.66,4.86,4.86,0,0,1-1.42-3c0-1.18.82-1.89,2.48-2.13q1.36-.18,12.23-.5t18.38-.33a47.76,47.76,0,0,1,7.63.3A1.72,1.72,0,0,1,941,381.58Z"/><path class="cls-2" d="M971.26,381.52c0,.56-.2.85-.59.89q-1,.36-15.45,2.66-4.44,5.63-9.83,13.5a99.74,99.74,0,0,1,12.67-1.36,4.12,4.12,0,0,1,2.1.86A7.9,7.9,0,0,1,962,399.7a1.25,1.25,0,0,1,.17.53c0,.71-.53,1.06-1.59,1.06a54.32,54.32,0,0,0-9.15,1.31,40,40,0,0,0-11.34,4q-2.25,3.56-4.55,7.58c2.25-.51,4.83-1,7.75-1.42a51.7,51.7,0,0,1,5.74-.65,7.38,7.38,0,0,1,3.56.92,2.82,2.82,0,0,1,1.71,2.57v.12c0,.32-1,.72-3.08,1.21l-8.4,2.07a67.07,67.07,0,0,0-9.18,2.93,1.46,1.46,0,0,1-.53.06,7.46,7.46,0,0,1-3.91-1.65,5.44,5.44,0,0,1-2.42-4.68,5.31,5.31,0,0,1,.41-2.07q.71-2.07,7.9-13.74t10.39-16.33a7.15,7.15,0,0,1-.47-2.37c0-.67.14-1.07.41-1.19.63-.27,3.44-.69,8.41-1.24s8.19-.85,9.65-.89h1a9.38,9.38,0,0,1,2.87.36,12.13,12.13,0,0,1,2.88,1.6A2,2,0,0,1,971.26,381.52Z"/><path class="cls-2" d="M1013.05,388.57q0,4.2-3.78,8.23a27.64,27.64,0,0,1-8.88,6.3,22.94,22.94,0,0,1-9.24,2.28h-1a11.27,11.27,0,0,0,.85,3.85,14.4,14.4,0,0,0,3.29,4.5,20.15,20.15,0,0,0,6.33,4.14,1.34,1.34,0,0,1,1,1.24,2,2,0,0,1-1,1.69,3.32,3.32,0,0,1-2,.68,11.5,11.5,0,0,1-2.58-.41,19.9,19.9,0,0,1-3.93-1.6,27.25,27.25,0,0,1-4.47-2.9,21.1,21.1,0,0,1-4.15-4.65,22.28,22.28,0,0,1-3-6.48q-2,3-9.48,15.45a2,2,0,0,1-1.71,1.12q-1.3,0-2.67-1.89a6,6,0,0,1-1.36-3.26,5.53,5.53,0,0,1,.83-2.6q1.89-3.19,11.19-16.64t12.84-18.46a1.21,1.21,0,0,1,1.07-.54,4.92,4.92,0,0,1,3.7,2.07,7.45,7.45,0,0,1,1.92,4.09q6.57-4.14,10.24-4.14a4.06,4.06,0,0,1,2.17.56,3.75,3.75,0,0,1,1.3,1.21c.25.44.58,1.07,1,1.9s.69,1.42.89,1.77A4.59,4.59,0,0,1,1013.05,388.57Zm-6.39-2c0-.94-.45-1.42-1.36-1.42q-4.08,0-9.89,4.56t-8,8.7a1.59,1.59,0,0,0-.18.71c0,.75.58,1.13,1.72,1.13q2.19,0,6.45-2.46a40,40,0,0,0,7.76-5.8C1005.5,389.74,1006.66,387.94,1006.66,386.55Z"/><path class="cls-2" d="M890.76,439.62q0,2.07-2.46,5.83c-1.64,2.51-3.07,4.11-4.29,4.82a3.33,3.33,0,0,1-1.84.54,3.21,3.21,0,0,1-2.66-1.45,5.18,5.18,0,0,1-1.07-3.11,4.75,4.75,0,0,1,1.16-2.9,24.55,24.55,0,0,1,2.6-2.84,10.14,10.14,0,0,0,1.81-2,2.41,2.41,0,0,0,.35-1.06c0-.28-.16-.42-.47-.42q-3.55,0-8.79,5.15A55.33,55.33,0,0,0,866,453.94q-3.81,6.63-3.82,10.66a6.49,6.49,0,0,0,.92,3.67,3,3,0,0,0,2.69,1.36,10,10,0,0,0,1.6-.24q3.2-.88,9.42-7.22t8.7-9.47a.72.72,0,0,1,.65-.35c.67,0,1,.63,1,1.89a9.34,9.34,0,0,1-.76,3.49,27.48,27.48,0,0,1-2.46,4.56,46.26,46.26,0,0,1-4,5.18,20.32,20.32,0,0,1-5.62,4.47,13.64,13.64,0,0,1-6.57,1.78,13.48,13.48,0,0,1-4.68-.71,10.82,10.82,0,0,1-3.85-2.79c-.23-.27-.62-.67-1.15-1.18s-.88-.86-1-1l-.74-.88a5.11,5.11,0,0,1-.68-1c-.12-.28-.25-.63-.41-1.07a5.08,5.08,0,0,1-.3-1.36q-.06-.7-.06-1.65A24.3,24.3,0,0,1,858,451.07a52.28,52.28,0,0,1,7.46-10.89,58.09,58.09,0,0,1,8.85-8.14q4.53-3.32,7.19-3.31a3.76,3.76,0,0,1,2.4.86,12.48,12.48,0,0,1,2.22,2.36,14.94,14.94,0,0,0,1.66,2C889.77,435.75,890.76,437.65,890.76,439.62Z"/><path class="cls-2" d="M938.17,433.29a5,5,0,0,1-.18,1.18q-1.29,3.78-3.46,11.6t-4.35,16.07l-2.25,8.5c-.59,2-1.8,3-3.61,3a10,10,0,0,1-4.38-1.22c-1.62-.8-2.43-1.78-2.43-2.93a11.87,11.87,0,0,1,1-3.55q.76-2.13,2.13-6.51a75.59,75.59,0,0,0-15.27,3.08q-7.35,9.24-7.7,9.83c-.51.78-1,1.18-1.6,1.18a3.19,3.19,0,0,1-1.89-1l-.56-.44q-.33-.27-.51-.39a2.39,2.39,0,0,1-.38-.32,3.43,3.43,0,0,0-.33-.3,2.49,2.49,0,0,1-.23-.23.71.71,0,0,1-.15-.3,1.39,1.39,0,0,1,0-.27,2.37,2.37,0,0,1,.3-.83q.82-1.23,5.38-6.92a12.58,12.58,0,0,1-.41-1.84c0-.51.19-.8.59-.88a23.31,23.31,0,0,1,2.72-.77q7.17-8.6,16.1-18.89T926.51,429a3.09,3.09,0,0,1,1.84-.88,2.75,2.75,0,0,1,.79.14c.3.1.69.25,1.19.45s1,.37,1.45.53c.24.08.72.22,1.45.41s1.32.38,1.78.54a12.63,12.63,0,0,1,1.5.65,3.18,3.18,0,0,1,1.25,1A2.63,2.63,0,0,1,938.17,433.29Zm-10.71,3.31q-4.8,4.68-17.47,20.13,11.73-2.61,12.32-2.79Q924.85,445.54,927.46,436.6Z"/><path class="cls-2" d="M974,434.35a3.28,3.28,0,0,1-.66,2q-1.89,2.49-10,13.91t-11.16,16.22a89.48,89.48,0,0,1,10.66-.59l1.36,0,1,0a3.92,3.92,0,0,1,2.27,1.16,2.82,2.82,0,0,1,1.1,1.86c0,.51-.38.83-1.13.95q-2.65.24-10.68,1.71t-8.85,1.48h-.06c-.67-.08-1.56-.86-2.66-2.36a7,7,0,0,1-1.66-3.91,2.21,2.21,0,0,1,.18-.89q1.53-3,11.69-19t10.92-17c.43-.59,1.62-.89,3.55-.89.83,0,1.73.67,2.7,2A6.26,6.26,0,0,1,974,434.35Z"/><path class="cls-2" d="M1009.21,434.35a3.33,3.33,0,0,1-.65,2q-1.9,2.49-10,13.91t-11.16,16.22A89.48,89.48,0,0,1,998,465.9l1.36,0,1,0a3.94,3.94,0,0,1,2.28,1.16,2.8,2.8,0,0,1,1.09,1.86c0,.51-.37.83-1.12.95q-2.67.24-10.69,1.71t-8.85,1.48H983c-.67-.08-1.56-.86-2.66-2.36a7,7,0,0,1-1.66-3.91,2.21,2.21,0,0,1,.18-.89q1.53-3,11.69-19t10.92-17c.44-.59,1.62-.89,3.55-.89.83,0,1.73.67,2.7,2A6.26,6.26,0,0,1,1009.21,434.35Z"/></svg>