<?xml version="1.0" encoding="utf-8"?>
<!-- Generator: Adobe Illustrator 19.0.0, SVG Export Plug-In . SVG Version: 6.00 Build 0)  -->
<svg version="1.1" id="Selfmade_by_NICF-Nettie" xmlns="http://www.w3.org/2000/svg" xmlns:xlink="http://www.w3.org/1999/xlink"
	 x="0px" y="0px" viewBox="0 0 477 279" style="enable-background:new 0 0 477 279;" xml:space="preserve">
<style type="text/css">
	.st0{fill:#FFFFFF;}
</style>
<g id="Breaking_Bad">
	<g id="Text">
		<g>
			<path class="st0" d="M181.5,90.7c-3.2,0-3.6,0.1-3.6,2.6c0,7.4,6.1,14.2,14.3,14.2c3.4,0,6.5-1,9.5-3.1c2.1-1.5,3.5-3.2,5.3-3.2
				c1.4,0,2.4,1,2.4,2.3c0,1.4-1.5,3.7-4.3,6c-5,4.1-9.7,6.2-16,6.2c-13.3,0-23.2-10.3-23.2-23.6c0-14.6,10.1-25,24.3-25
				c12,0,19.5,7.3,19.5,19c0,4.3-1.1,4.7-5.2,4.7h-22.4C181.8,90.7,181.7,90.7,181.5,90.7z M196.3,85.3c2.2,0,2.9-0.3,2.9-1.7
				c0-5.8-4.3-10.6-10.6-10.6c-6.1,0-10.3,4.9-10.3,10.6c0,1.5,0.6,1.7,2.8,1.7H196.3z"/>
			<path class="st0" d="M255.3,107.1c2.8,0.8,4.4,0.8,4.4,2.7c0,2.8-4.5,5.9-10.5,5.9c-3.5,0-5.9-4.9-6.8-4.9
				c-1.5,0-5.5,4.9-13.7,4.9c-9.1,0-15.2-5.8-15.2-14.3c0-9.8,7.3-15.9,20.5-15.9c2.4,0,5.3,0.3,8.7,0.8v-4.9c0-5.5-2.5-8.5-6.9-8.5
				c-3.1,0-5.7,1.4-8.1,4.1c-1.9,2.2-3.1,4.8-7,4.8c-2.5,0-4-1.7-4-4.4c0-5.3,7.1-10.4,19.3-10.4c7.1,0,12,1.9,14.7,5.3
				c2.4,3,2.6,7.6,2.6,14.2v15C253.4,104.8,253.9,106.7,255.3,107.1z M236,91.5c-6.8,0-10.6,3.2-10.6,8.4c0,4.9,3.4,8.2,9,8.2
				c6.3,0,8.4-2.7,8.4-8.9v-6.9C240.3,91.8,238,91.5,236,91.5z"/>
			<path class="st0" d="M278.2,83.1c0,1.9,0.1,2.8,0.9,2.8c0.5,0,2.4-1.2,5.3-3.8c3.8-3.5,5.9-5.6,5.9-6.7c0-1.2-3.5-1.1-3.5-3.7
				c0-3.1,3.8-3.8,11.6-3.8c5.7,0,8.5,1.1,8.5,3.5c0,3.6-4.4,2.5-8.3,4.8c-1.8,1.1-3.9,3.2-6.4,5.8c-1.3,1.3-2,2.1-2,2.7
				c0,0.9,1.6,3,4.6,6.9c6.5,8.4,10.9,13.3,13.1,14.9c3.1,2.2,7.1,1.5,7.1,4.6c0,2.7-2.9,3.8-9.3,3.8c-2.7,0-4.4-0.3-5-0.5
				c-2.6-0.9-4.7-4.2-8.4-9c-8.1-10.3-12.3-15.7-13.2-15.7c-0.8,0-0.9,0.7-0.9,2.5c0,0.5,0,1.2,0,2c0,7.7,0.2,12.1,1.3,13.4
				c1.3,1.5,4.8,1,4.8,3.9c0,2.7-3.4,3.3-10.7,3.3c-8.2,0-11.6-0.5-11.6-3.6c0-2.1,1.9-2.1,3.5-2.9c1.9-1.1,2.3-4.4,2.3-10.6
				c0-3.5-0.1-7.7-0.1-13c0-2,0-3.9,0-5.8c0-13.7-0.1-18.9-1.3-20.3c-0.7-0.8-2.3-1-4.2-1.7c-1.5-0.5-2.1-0.8-2.1-2.2
				c0-1.9,1.7-2.7,5.1-3.8c5.3-1.8,9.4-2.4,11.1-2.4c2,0,2.6,1.2,2.6,3.9c0,4.9-0.5,9.7-0.5,18.9V83.1z"/>
			<path class="st0" d="M333.7,99.5c0,5,0.3,7.8,1.8,8.6c2.1,1.2,4.1,0.9,4.1,3.4c0,2.7-3.3,3.3-10.6,3.3c-8.2,0-11.7-0.5-11.7-3.6
				c0-2.1,1.9-2.1,3.5-2.9c1.8-1,2.2-3.3,2.2-7.3c0-1.9-0.1-4.1-0.1-6.9c0-1.7,0-3.4,0-4.9c0-7.5-0.1-11.5-1.7-12.3
				c-2.3-1.2-5-1-5-3.3c0-1.5,1.3-2.5,3.8-3.5c6.3-2.5,11.1-3.1,12-3.1c1.8,0,2.4,1.3,2.4,3.9c0,1.2,0,2.8-0.1,4.9l-0.4,11.9
				C333.8,91.8,333.7,95.7,333.7,99.5z M327.7,49.9c4.2,0,7.1,2.7,7.1,6c0,3.3-3.1,6.1-7.6,6.1c-4.1,0-7-2.5-7-5.7
				C320.1,53,323.4,49.9,327.7,49.9z"/>
			<path class="st0" d="M373.9,67c4.8,0,9.1,2.3,11.7,5.4c3.7,4.4,3.9,9.8,3.9,17.1c0,3.5,0,5.6,0,6.3c0,2.2-0.1,4-0.1,5.7
				c0,3.7,0.3,5.7,2.1,6.7c1.6,0.8,3.5,0.8,3.5,2.9c0,3.1-3.5,3.5-11.5,3.5c-7.5,0-11-0.5-11-3.2c0-2.5,2-2.2,4.1-3.4
				c1.6-0.9,1.9-4,1.9-9.7c0-14.8-0.2-22.4-8.7-22.4c-3.3,0-6.6,2.1-8.3,5.5c-1.7,3.5-1.8,9.6-1.8,18.5c0,4.6,0.1,7.2,1.7,8.1
				c2.1,1.2,4.1,0.9,4.1,3.4c0,2.7-3.3,3.3-10.6,3.3c-8.2,0-11.7-0.5-11.7-3.6c0-2.1,1.9-2.1,3.5-2.9c1.8-1,2.2-3.3,2.2-7.3
				c0-1.9-0.1-4.1-0.1-6.9c0-1.7,0-3.4,0-4.9c0-7.5-0.1-11.5-1.7-12.3c-2.3-1.2-5-1-5-3.3c0-1.5,1.3-2.5,3.8-3.5
				c6-2.3,10.4-2.9,11.6-2.9c1.7,0,2.5,0.8,2.5,2.9v2.6c0,0.3,0,0.5,0,0.5c0,0.4,0,0.6,0.4,0.6c0.2,0,0.4-0.1,0.5-0.2l1.1-1
				C364.7,70.1,367.2,67,373.9,67z"/>
			<path class="st0" d="M398.7,84.7c0-10.1,8.4-17.7,20.3-17.7c3.2,0,7.2,0.7,12.1,1.8c2.5,0,5.1-1.3,8.7-3.8c1.3,0.8,2,1.9,2,3
				c0,2.6-1.9,5.1-5.7,7.1c1.3,2.5,1.9,4.9,1.9,7.6c0,10.1-8.1,17.4-20.5,17.4c-3.4,0-6.5-0.5-9.4-1.5c-1.3,1.4-1.9,2.6-1.9,3.7
				c0,3,3,4.3,9.1,4.3c4.7,0,9.4-1,14.4-1c8.7,0,13.4,3.7,13.4,10.2c0,9.5-10.3,17.3-25.9,17.3c-12.7,0-20.7-6.1-20.7-12.4
				c0-3.4,2.2-5.7,6.6-8.3c-3.7-1.3-5.7-3.8-5.7-6.9c0-3.2,2.3-6.2,6.8-9C400.5,93.5,398.7,89.5,398.7,84.7z M406.5,119.9
				c0,4.1,4.5,7.2,12.4,7.2c8.8,0,14.5-3.9,14.5-8.3c0-2.9-2.1-4.7-6.1-4.7c-2.8,0-7.1,0.9-12.5,0.9c-1.8,0-3.8-0.1-5.9-0.4
				C407.3,116.2,406.5,117.9,406.5,119.9z M418.1,94.1c5.2,0,9.2-4.2,9.2-10.5c0-6.5-3.9-10.7-9.1-10.7c-4.8,0-8.6,4.3-8.6,10.6
				C409.6,90,413.1,94.1,418.1,94.1z"/>
			<g>
				<path class="st0" d="M319.8,229.1c0-0.8-0.2-1.2-0.4-1.2c-0.3,0-1.4,1-3.5,2.6c-3.6,2.7-7.1,4-11,4c-11.4,0-19.7-8.9-19.7-22.6
					c0-15.2,9.4-25.7,22.6-25.7c6.4,0,10.4,2.8,11.1,2.8c0.5,0,0.6-0.8,0.6-2.3v-3.3c0-4.2-0.5-5.6-2.9-6.4
					c-2.2-0.7-4.1-0.7-4.1-2.8c0-2,1.9-2.9,5.8-4.3c4-1.5,7.2-2,9.5-2c2.1,0,2.9,1.1,2.9,3.9c0,1.6-0.5,9.7-0.5,29
					c0,15.7,0.1,23.7,1.4,24.6c2,1.5,5.7,0.5,5.7,3.3c0,2.2-2.5,2.9-7.2,4.5c-3.2,1.1-6.5,1.5-7.7,1.5c-1.7,0-2.5-0.9-2.5-3V229.1z
					 M319.3,202.7c0-2.6,0-4.3-0.9-5.5c-1.9-2.6-5.9-4.7-9.9-4.7c-6.7,0-11.4,5.8-11.4,15.9c0,10.9,5.3,17.7,12,17.7
					c6.5,0,10.2-3.6,10.2-10.6V202.7z"/>
			</g>
		</g>
	</g>
	<g id="Cube">
		<g id="Ebene_4">
			<path class="st0" d="M198.1,203.7h-16.1V223h16.2c7.5,0,12.1-2.3,12.1-9.2C210.3,206.4,205.7,203.7,198.1,203.7z M265.8,162.4
				c1.3,0,2-0.8,2-2.2c0-1.4-0.7-2.2-2-2.2c-1.3,0-2,0.8-2,2.2C263.8,161.6,264.5,162.4,265.8,162.4z M207.3,185.9
				c0-5-3.3-8.3-10.5-8.3h-14.8v16.7h14.8C202.3,194.4,207.3,192.3,207.3,185.9z M88.4,84.7H72.3v19.3h16.2c7.5,0,12.1-2.3,12.1-9.2
				C100.6,87.4,95.9,84.7,88.4,84.7z M247.5,213.4c-4.3,0.8-7.8,2-7.8,6.5c0,3.5,3.2,5.9,7.3,5.9c5.3,0,12.1-2.6,12.1-8.6v-6.7
				c-1.5,0.7-3.3,1.3-5.4,1.7L247.5,213.4z M97.6,67c0-5-3.3-8.3-10.5-8.3H72.3v16.7h14.8C92.6,75.4,97.6,73.3,97.6,67z
				 M161.5,139.8v-119H40.9v120.7h119v119h120.7V139.8H161.5z M136,40.2h-1v-2.1h1c1,0,1.8-0.5,1.8-1.5c0-1.1-0.7-1.8-1.8-1.8
				c-1.4,0-1.8,1.2-1.9,2.3l-2.6-0.6c0.4-2.6,2.1-4,4.8-4c2.2,0,4.3,1.2,4.3,3.6c0,1.6-0.8,2.5-2.2,2.8v0c1.7,0.4,2.5,1.6,2.6,3.3
				c0,2.8-2.3,4.2-4.9,4.2c-2.6,0-4.7-1.2-4.7-4.7h2.5c0,1.5,0.7,2.4,2.2,2.4c1.3,0,2-0.9,2-2.1C138,40.7,137,40.2,136,40.2z
				 M88,115H59.9V48.9H91c10.9,0,19.6,5.5,19.6,16.4c0,7.2-4,12-11.2,13.4v0.2c9.1,0.9,14.2,8.5,14.2,16.4
				C113.6,111.8,101.8,115,88,115z M147.4,78.4c-7.7,0-14.7,3.6-14.7,13.8V115h-11.3V68h11.3v6.5h0.2c2.7-5.4,7.9-7.6,14.5-7.6V78.4
				z M146.9,46.5c-2.5,0-4.6-1.3-4.7-4l2.8-0.2c0,1.1,0.8,2.1,2,2.1c1.6,0,2.2-1.4,2.2-2.8c0-1.8-0.9-2.5-2.3-2.5
				c-1,0-1.6,0.4-1.9,1.3l-2.3-0.2l1-7.4h7.6l-0.3,2.3h-5.2l-0.4,2.8c0.7-0.6,1.5-1,2.4-1c2.9,0,4.3,2.1,4.3,4.6
				C151.9,44.7,149.7,46.5,146.9,46.5z M266,150.7c2.3,0,3.8,1.2,4.2,3.4l-2.6,0.3c-0.1-1-0.7-1.6-1.6-1.6c-1.9,0-2.4,2.5-2.4,4.1h0
				c0.3-0.5,1.1-1.3,2.6-1.3c2.5,0,4,1.8,4,4.5c0,2.5-1.8,4.5-4.5,4.5c-3.9,0-4.8-3.5-4.8-6.7C261,153.7,262.6,150.7,266,150.7z
				 M254.4,157.2c-1,0-1.5,0.4-1.9,1.3l-2.3-0.2l1-7.4h7.6l-0.3,2.3h-5.2l-0.4,2.8c0.7-0.6,1.5-1,2.4-1c2.9,0,4.3,2.1,4.3,4.6
				c0,3.1-2.2,4.9-5,4.9c-2.5,0-4.6-1.3-4.7-4l2.8-0.2c0,1.1,0.8,2.1,2,2.1c1.6,0,2.2-1.4,2.2-2.8
				C256.7,158,255.8,157.2,254.4,157.2z M197.8,234h-28.2v-66.2h31.1c10.9,0,19.6,5.5,19.6,16.4c0,7.2-4,12-11.2,13.4v0.2
				c9.1,0.9,14.2,8.5,14.2,16.4C223.3,230.7,211.5,234,197.8,234z M260.2,234c-0.7-1.1-1.1-3.1-1.1-4.3c-4.4,3.5-9.5,5.4-15.3,5.4
				c-8.9,0-16-5.7-16-14.8c0-9.2,7.3-13.3,14.3-14.7l4.7-0.9c4.1-0.8,9.4-1.8,12.3-2.8v-1.4c0-4.6-4-5.9-8.9-5.9
				c-6.6,0-8.7,2-8.7,7.1l-11.3-0.5c0-11.1,9.8-15.3,20.1-15.3c10.1,0,20.3,2,20.3,15.4v24.8c0,4.8,1.1,6.9,1.8,7.9H260.2z"/>
		</g>
	</g>
</g>
</svg>
