<svg version="1.1" id="Selfmade_by_NICF-Nettie" xmlns="http://www.w3.org/2000/svg" x="0" y="0" viewBox="0 0 477 279" xml:space="preserve"><style>.st0{fill:#fff}</style><g id="Breaking_Bad"><g id="Text"><path class="st0" d="M181.5 90.7c-3.2 0-3.6.1-3.6 2.6 0 7.4 6.1 14.2 14.3 14.2 3.4 0 6.5-1 9.5-3.1 2.1-1.5 3.5-3.2 5.3-3.2 1.4 0 2.4 1 2.4 2.3 0 1.4-1.5 3.7-4.3 6-5 4.1-9.7 6.2-16 6.2-13.3 0-23.2-10.3-23.2-23.6 0-14.6 10.1-25 24.3-25 12 0 19.5 7.3 19.5 19 0 4.3-1.1 4.7-5.2 4.7h-22.4c-.3-.1-.4-.1-.6-.1zm14.8-5.4c2.2 0 2.9-.3 2.9-1.7 0-5.8-4.3-10.6-10.6-10.6-6.1 0-10.3 4.9-10.3 10.6 0 1.5.6 1.7 2.8 1.7h15.2zM255.3 107.1c2.8.8 4.4.8 4.4 2.7 0 2.8-4.5 5.9-10.5 5.9-3.5 0-5.9-4.9-6.8-4.9-1.5 0-5.5 4.9-13.7 4.9-9.1 0-15.2-5.8-15.2-14.3 0-9.8 7.3-15.9 20.5-15.9 2.4 0 5.3.3 8.7.8v-4.9c0-5.5-2.5-8.5-6.9-8.5-3.1 0-5.7 1.4-8.1 4.1-1.9 2.2-3.1 4.8-7 4.8-2.5 0-4-1.7-4-4.4 0-5.3 7.1-10.4 19.3-10.4 7.1 0 12 1.9 14.7 5.3 2.4 3 2.6 7.6 2.6 14.2v15c.1 3.3.6 5.2 2 5.6zM236 91.5c-6.8 0-10.6 3.2-10.6 8.4 0 4.9 3.4 8.2 9 8.2 6.3 0 8.4-2.7 8.4-8.9v-6.9c-2.5-.5-4.8-.8-6.8-.8zM278.2 83.1c0 1.9.1 2.8.9 2.8.5 0 2.4-1.2 5.3-3.8 3.8-3.5 5.9-5.6 5.9-6.7 0-1.2-3.5-1.1-3.5-3.7 0-3.1 3.8-3.8 11.6-3.8 5.7 0 8.5 1.1 8.5 3.5 0 3.6-4.4 2.5-8.3 4.8-1.8 1.1-3.9 3.2-6.4 5.8-1.3 1.3-2 2.1-2 2.7 0 .9 1.6 3 4.6 6.9 6.5 8.4 10.9 13.3 13.1 14.9 3.1 2.2 7.1 1.5 7.1 4.6 0 2.7-2.9 3.8-9.3 3.8-2.7 0-4.4-.3-5-.5-2.6-.9-4.7-4.2-8.4-9-8.1-10.3-12.3-15.7-13.2-15.7-.8 0-.9.7-.9 2.5v2c0 7.7.2 12.1 1.3 13.4 1.3 1.5 4.8 1 4.8 3.9 0 2.7-3.4 3.3-10.7 3.3-8.2 0-11.6-.5-11.6-3.6 0-2.1 1.9-2.1 3.5-2.9 1.9-1.1 2.3-4.4 2.3-10.6 0-3.5-.1-7.7-.1-13v-5.8c0-13.7-.1-18.9-1.3-20.3-.7-.8-2.3-1-4.2-1.7-1.5-.5-2.1-.8-2.1-2.2 0-1.9 1.7-2.7 5.1-3.8 5.3-1.8 9.4-2.4 11.1-2.4 2 0 2.6 1.2 2.6 3.9 0 4.9-.5 9.7-.5 18.9v11.8zM333.7 99.5c0 5 .3 7.8 1.8 8.6 2.1 1.2 4.1.9 4.1 3.4 0 2.7-3.3 3.3-10.6 3.3-8.2 0-11.7-.5-11.7-3.6 0-2.1 1.9-2.1 3.5-2.9 1.8-1 2.2-3.3 2.2-7.3 0-1.9-.1-4.1-.1-6.9v-4.9c0-7.5-.1-11.5-1.7-12.3-2.3-1.2-5-1-5-3.3 0-1.5 1.3-2.5 3.8-3.5 6.3-2.5 11.1-3.1 12-3.1 1.8 0 2.4 1.3 2.4 3.9 0 1.2 0 2.8-.1 4.9l-.4 11.9c-.1 4.1-.2 8-.2 11.8zm-6-49.6c4.2 0 7.1 2.7 7.1 6s-3.1 6.1-7.6 6.1c-4.1 0-7-2.5-7-5.7-.1-3.3 3.2-6.4 7.5-6.4zM373.9 67c4.8 0 9.1 2.3 11.7 5.4 3.7 4.4 3.9 9.8 3.9 17.1v6.3c0 2.2-.1 4-.1 5.7 0 3.7.3 5.7 2.1 6.7 1.6.8 3.5.8 3.5 2.9 0 3.1-3.5 3.5-11.5 3.5-7.5 0-11-.5-11-3.2 0-2.5 2-2.2 4.1-3.4 1.6-.9 1.9-4 1.9-9.7 0-14.8-.2-22.4-8.7-22.4-3.3 0-6.6 2.1-8.3 5.5-1.7 3.5-1.8 9.6-1.8 18.5 0 4.6.1 7.2 1.7 8.1 2.1 1.2 4.1.9 4.1 3.4 0 2.7-3.3 3.3-10.6 3.3-8.2 0-11.7-.5-11.7-3.6 0-2.1 1.9-2.1 3.5-2.9 1.8-1 2.2-3.3 2.2-7.3 0-1.9-.1-4.1-.1-6.9v-4.9c0-7.5-.1-11.5-1.7-12.3-2.3-1.2-5-1-5-3.3 0-1.5 1.3-2.5 3.8-3.5 6-2.3 10.4-2.9 11.6-2.9 1.7 0 2.5.8 2.5 2.9v3.1c0 .4 0 .6.4.6.2 0 .4-.1.5-.2l1.1-1c2.7-2.4 5.2-5.5 11.9-5.5zM398.7 84.7c0-10.1 8.4-17.7 20.3-17.7 3.2 0 7.2.7 12.1 1.8 2.5 0 5.1-1.3 8.7-3.8 1.3.8 2 1.9 2 3 0 2.6-1.9 5.1-5.7 7.1 1.3 2.5 1.9 4.9 1.9 7.6 0 10.1-8.1 17.4-20.5 17.4-3.4 0-6.5-.5-9.4-1.5-1.3 1.4-1.9 2.6-1.9 3.7 0 3 3 4.3 9.1 4.3 4.7 0 9.4-1 14.4-1 8.7 0 13.4 3.7 13.4 10.2 0 9.5-10.3 17.3-25.9 17.3-12.7 0-20.7-6.1-20.7-12.4 0-3.4 2.2-5.7 6.6-8.3-3.7-1.3-5.7-3.8-5.7-6.9 0-3.2 2.3-6.2 6.8-9-3.7-3-5.5-7-5.5-11.8zm7.8 35.2c0 4.1 4.5 7.2 12.4 7.2 8.8 0 14.5-3.9 14.5-8.3 0-2.9-2.1-4.7-6.1-4.7-2.8 0-7.1.9-12.5.9-1.8 0-3.8-.1-5.9-.4-1.6 1.6-2.4 3.3-2.4 5.3zm11.6-25.8c5.2 0 9.2-4.2 9.2-10.5 0-6.5-3.9-10.7-9.1-10.7-4.8 0-8.6 4.3-8.6 10.6 0 6.5 3.5 10.6 8.5 10.6zM319.8 229.1c0-.8-.2-1.2-.4-1.2-.3 0-1.4 1-3.5 2.6-3.6 2.7-7.1 4-11 4-11.4 0-19.7-8.9-19.7-22.6 0-15.2 9.4-25.7 22.6-25.7 6.4 0 10.4 2.8 11.1 2.8.5 0 .6-.8.6-2.3v-3.3c0-4.2-.5-5.6-2.9-6.4-2.2-.7-4.1-.7-4.1-2.8 0-2 1.9-2.9 5.8-4.3 4-1.5 7.2-2 9.5-2 2.1 0 2.9 1.1 2.9 3.9 0 1.6-.5 9.7-.5 29 0 15.7.1 23.7 1.4 24.6 2 1.5 5.7.5 5.7 3.3 0 2.2-2.5 2.9-7.2 4.5-3.2 1.1-6.5 1.5-7.7 1.5-1.7 0-2.5-.9-2.5-3v-2.6zm-.5-26.4c0-2.6 0-4.3-.9-5.5-1.9-2.6-5.9-4.7-9.9-4.7-6.7 0-11.4 5.8-11.4 15.9 0 10.9 5.3 17.7 12 17.7 6.5 0 10.2-3.6 10.2-10.6v-12.8z"/></g><g id="Cube"><path class="st0" d="M198.1 203.7H182V223h16.2c7.5 0 12.1-2.3 12.1-9.2 0-7.4-4.6-10.1-12.2-10.1zm67.7-41.3c1.3 0 2-.8 2-2.2 0-1.4-.7-2.2-2-2.2s-2 .8-2 2.2c0 1.4.7 2.2 2 2.2zm-58.5 23.5c0-5-3.3-8.3-10.5-8.3H182v16.7h14.8c5.5.1 10.5-2 10.5-8.4zM88.4 84.7H72.3V104h16.2c7.5 0 12.1-2.3 12.1-9.2 0-7.4-4.7-10.1-12.2-10.1zm159.1 128.7c-4.3.8-7.8 2-7.8 6.5 0 3.5 3.2 5.9 7.3 5.9 5.3 0 12.1-2.6 12.1-8.6v-6.7c-1.5.7-3.3 1.3-5.4 1.7l-6.2 1.2zM97.6 67c0-5-3.3-8.3-10.5-8.3H72.3v16.7h14.8c5.5 0 10.5-2.1 10.5-8.4zm63.9 72.8v-119H40.9v120.7h119v119h120.7V139.8H161.5zM136 40.2h-1v-2.1h1c1 0 1.8-.5 1.8-1.5 0-1.1-.7-1.8-1.8-1.8-1.4 0-1.8 1.2-1.9 2.3l-2.6-.6c.4-2.6 2.1-4 4.8-4 2.2 0 4.3 1.2 4.3 3.6 0 1.6-.8 2.5-2.2 2.8 1.7.4 2.5 1.6 2.6 3.3 0 2.8-2.3 4.2-4.9 4.2-2.6 0-4.7-1.2-4.7-4.7h2.5c0 1.5.7 2.4 2.2 2.4 1.3 0 2-.9 2-2.1-.1-1.3-1.1-1.8-2.1-1.8zM88 115H59.9V48.9H91c10.9 0 19.6 5.5 19.6 16.4 0 7.2-4 12-11.2 13.4v.2c9.1.9 14.2 8.5 14.2 16.4 0 16.5-11.8 19.7-25.6 19.7zm59.4-36.6c-7.7 0-14.7 3.6-14.7 13.8V115h-11.3V68h11.3v6.5h.2c2.7-5.4 7.9-7.6 14.5-7.6v11.5zm-.5-31.9c-2.5 0-4.6-1.3-4.7-4l2.8-.2c0 1.1.8 2.1 2 2.1 1.6 0 2.2-1.4 2.2-2.8 0-1.8-.9-2.5-2.3-2.5-1 0-1.6.4-1.9 1.3l-2.3-.2 1-7.4h7.6l-.3 2.3h-5.2l-.4 2.8c.7-.6 1.5-1 2.4-1 2.9 0 4.3 2.1 4.3 4.6-.2 3.2-2.4 5-5.2 5zM266 150.7c2.3 0 3.8 1.2 4.2 3.4l-2.6.3c-.1-1-.7-1.6-1.6-1.6-1.9 0-2.4 2.5-2.4 4.1.3-.5 1.1-1.3 2.6-1.3 2.5 0 4 1.8 4 4.5 0 2.5-1.8 4.5-4.5 4.5-3.9 0-4.8-3.5-4.8-6.7.1-4.2 1.7-7.2 5.1-7.2zm-11.6 6.5c-1 0-1.5.4-1.9 1.3l-2.3-.2 1-7.4h7.6l-.3 2.3h-5.2l-.4 2.8c.7-.6 1.5-1 2.4-1 2.9 0 4.3 2.1 4.3 4.6 0 3.1-2.2 4.9-5 4.9-2.5 0-4.6-1.3-4.7-4l2.8-.2c0 1.1.8 2.1 2 2.1 1.6 0 2.2-1.4 2.2-2.8-.2-1.6-1.1-2.4-2.5-2.4zM197.8 234h-28.2v-66.2h31.1c10.9 0 19.6 5.5 19.6 16.4 0 7.2-4 12-11.2 13.4v.2c9.1.9 14.2 8.5 14.2 16.4 0 16.5-11.8 19.8-25.5 19.8zm62.4 0c-.7-1.1-1.1-3.1-1.1-4.3-4.4 3.5-9.5 5.4-15.3 5.4-8.9 0-16-5.7-16-14.8 0-9.2 7.3-13.3 14.3-14.7l4.7-.9c4.1-.8 9.4-1.8 12.3-2.8v-1.4c0-4.6-4-5.9-8.9-5.9-6.6 0-8.7 2-8.7 7.1l-11.3-.5c0-11.1 9.8-15.3 20.1-15.3 10.1 0 20.3 2 20.3 15.4v24.8c0 4.8 1.1 6.9 1.8 7.9h-12.2z" id="Ebene_4"/></g></g></svg>