<svg version="1.1" id="Capa_1" xmlns="http://www.w3.org/2000/svg" x="0" y="0" viewBox="0 0 512 512" xml:space="preserve"><defs><style>.color{fill:#fff}</style></defs><path class="color" d="M296 232c-5.52 0-10 4.48-10 10s4.48 10 10 10 10-4.48 10-10-4.48-10-10-10zM256 172c-5.52 0-10 4.48-10 10s4.48 10 10 10 10-4.48 10-10-4.48-10-10-10zM136 432c-5.52 0-10 4.48-10 10s4.48 10 10 10 10-4.48 10-10-4.48-10-10-10z"/><path class="color" d="M454.416 407.678L326 179.381V58.286c11.641-4.127 20-15.248 20-28.286 0-16.542-13.458-30-30-30H196c-16.542 0-30 13.458-30 30 0 13.038 8.359 24.159 20 28.286v121.095L57.584 407.678c-12.328 21.916-12.109 47.959.584 69.663C70.86 499.043 93.448 512 118.59 512h274.82c25.142 0 47.729-12.957 60.422-34.659 12.693-21.704 12.912-47.747.584-69.663zm-249.7-220.776A9.996 9.996 0 00206 182V60h10c5.522 0 10-4.478 10-10s-4.478-10-10-10h-20c-5.514 0-10-4.486-10-10s4.486-10 10-10h120c5.514 0 10 4.486 10 10s-4.486 10-10 10h-20c-5.522 0-10 4.478-10 10s4.478 10 10 10h10v122c0 1.718.442 3.405 1.284 4.902l58.941 104.787c-35.995-2.915-71.865 4.365-104.821 21.43-42.366 21.924-89.529 25.784-134 11.227l77.312-137.444zm231.851 280.342C427.502 482.745 411.368 492 393.41 492H118.59c-17.958 0-34.092-9.255-43.157-24.756-9.067-15.503-9.224-34.106-.417-49.762l42.408-75.392c20.576 7.185 41.84 10.812 63.437 10.812 3.197 0 6.402-.079 9.613-.238 27.905-1.382 54.862-8.711 80.124-21.784 33.792-17.496 70.959-23.536 107.783-17.581l58.604 104.183c8.806 15.656 8.65 34.259-.418 49.762z"/><path class="color" d="M216 232c-16.542 0-30 13.458-30 30s13.458 30 30 30 30-13.458 30-30-13.458-30-30-30zm0 40c-5.514 0-10-4.486-10-10s4.486-10 10-10 10 4.486 10 10-4.486 10-10 10zM376 432H176c-5.522 0-10 4.478-10 10s4.478 10 10 10h200c5.522 0 10-4.478 10-10s-4.478-10-10-10z"/></svg>