<svg id="Capa_1" data-name="Capa 1" xmlns="http://www.w3.org/2000/svg" viewBox="0 0 1920 1080"><defs><style>.cls-1{fill:#cb0001;}.cls-2{fill:#030101;}.cls-3{fill:#fff;}.cls-4{fill:#0d0504;}.cls-5{fill:#fffb66;}.cls-6{fill:#896242;}.cls-7{fill:#ccc950;}.cls-8{fill:#7a522e;}.cls-9{fill:#fce6e4;}.cls-10{fill:#fad3d2;}.cls-11{fill:#fcf7d8;}</style></defs><title>gustavo</title><rect class="cls-1" width="1920" height="1080"/><path class="cls-2" d="M815.63,400l1.24-.22c.75-.11.68-.7.71-1.24l.13-.26c1.47.1,2.44-.63,3.57-1.58a42.84,42.84,0,0,0,5.49-6c3.12-3.82,7.1-6.71,10.74-9.7,2.52-2.08,3-6.51,7.24-6.6,2.68,0,4.31-1.72,5.82-3.84a16.55,16.55,0,0,1,4.64-4.34c11.9-7.46,24.54-12.42,39-11.2,1.82.15,4.06.83,5.37-1.41A85,85,0,0,1,919.41,358c-.49,1.26-1.42,2.8.77,3.23,7,1.37,13.49,4.42,20.17,6.79a40.47,40.47,0,0,1,9.62,5.13c2.19,1.55,2.9,4.65,6.42,5.15,1.57.22,4.88,1,4.82,3.29s-3.37.16-4.6,1.77l-.29.36-1.77-1.18-1.17-.76-1.61-1-1.11-.81,0,.1c-.09-2.76-2.12-1.89-3.66-1.94l0,.05c-.16-5.84-4-.72-5.68-1.9l-1.55-.27c-2.14-2.55-8.92-3.89-12.89-2.55l-4.61-.25a3.62,3.62,0,0,0-3.53-1.64c-6.67.06-13.35-.11-20,.24-1.91.11-4.95.21-4.73,3.7l-.07-.09c-4.14-.06-8,1.09-11.89,2.38a2.54,2.54,0,0,0-2,3l0,0-.95.67a1.12,1.12,0,0,1-.78.3c-5-.68-7.58,3.83-11.48,5.52-.33.15-.2,1.34-.29,2.05l-.08.05c-2.13-.47-2.89.63-2.92,2.56l0,0c-2.14-.34-3.06.58-2.84,2.71l0,0c-6.81.94-8.25,3.34-6.34,10.56l.44,1.19c-3.52,4.08-3.17,9.08-3.35,14a2,2,0,0,1-.2.89c-6,3.32-5.51,9.71-6.84,15.12-.38,1.57,1.35,1.56,2.46.46l1.88.37a1,1,0,0,0,1.73-.11l1.84-.29a9.19,9.19,0,0,1,2.18,1.48c.93,1.1,1.61,3.15,3.34,1.92,2.46-1.75-1-2-1.12-3.19a7.24,7.24,0,0,1,.31-1.75l-.12-.42,1.54.08c3.66.08,8.11,2.2,9.46-3.68l0,0c1.8.13,3.64.36,4.68-1.65a7,7,0,0,1,3.7-.9c2.2,3.34,3.15,0,4.57-.85l3.68-.23c5.64,1.59,11.37,1.26,17.1.8l1.3.12c-.17,2.19,1.07,2.51,3,2.91,2.61.55,5.79,1.26,4.39,5.37l-.95-.13-1.45-.6-2.23-.31c-1.15-.66-2.11-2.57-3.66-.55l-2.86.26a2.83,2.83,0,0,0-3.51.19l-1.91.1c-.32-.41-.62-.37-.89.07l-3.11.25-1.53.59.08.28h-2.48c-1.56.77-4.35-2.41-4.93,1.53l-1.46.29-1.26.7-2.64,1.11c-1.24-.62-2.46-1.32-3.88-.48a26.31,26.31,0,0,0-9.67,10.14c-1,1.76.43,2.8,2.18,3.16l2-.17c4.18,1.69,5.89.79,6.5-3.42l2.64-1.09c1.76-.09,4.65,2.82,4.7-1.78l.27-.15.31,0,1.23-.64,1.72-.26c1.46.51,3.19,2.21,3.82-.87a3.61,3.61,0,0,1,2.81-.61c1.24.5,2.6,2.91,3.63-.22a17,17,0,0,1,6.39-.22c2,4.1-1.8,3.58-3.64,4.64a.75.75,0,0,1-.65.22c-1.62.28-3.43.22-4.83.94-2.31,1.2-5.94.81-6.34,4.65v-.05c-1.84-.27-3.69-.23-4.81,1.45-.55.82-3.71,1.05-1,3l-2.26,2.94c-.89,0-1.85,0-2,1.14s.79,1.36,1.7,1.44l.82.44c3,.5,6.42,3.18,8.31-1.57.72-1.8,2.06-1.84,3.33-1.36a2.2,2.2,0,0,1,1.12,3.38c-.85,1.45-1.2,2.68-.1,4.13,1.94-2.85,1.94-2.85,6.3-.38.34,1.38,1.36.62,2.12.67l.06,3.75a1.09,1.09,0,0,1-.84.2c-2.32-.1-4.66-.22-6.47,1.68l-2.79.08c-.65-1.41-1.41-2.72-3.08-3.13a33,33,0,0,1-3.06-3.54c-.74-1.13-1.32-1-2.06-.21s-1.61,1.69-.17,2.5a21,21,0,0,0,3.33,1.21c-2.39.92-5.39,1.4-3.87,5.22,0,.52,0,1,0,1.55-3.75,2.39-5.68,0-6.82-3a5.81,5.81,0,0,0-4.75-4.11l.1,0-.74-1.08-1-1.05c-2.31-1.81-4.39-2.56-5.46,1.21l-3.56,2.68c-6.7.3-2,5.66-3.49,8.38-1.13,2.05.62,4.57,3.5,5.19l-.08,0c.44,2.21-3.24,5.48,1.69,6.53.06.47.11.93.17,1.39l.58,1.33.23,1.87c-1.28,1.58-1.6,2.94.83,3.69.07.47.14.95.2,1.43-2,6.58,3.35,10.59,5.79,15.45,1.49,3-.14,3.18-1.53,2.92-3-.56-3.52.82-3.44,3.21h0c-.9.1-1.75.3-1.69,1.46,0,.91.76,1.1,1.48,1.26l.1,1.84c-2.54,2.69-1.82,5.36,2,7.31l0,0c-.1,3.43.61,6.06,3.58,8.7,3.12,2.78,8,5.16,8.15,9.91.28,7.33,5.2,11.63,9.21,16.61.93,1.17,2.17,2.38,3.81.76l1.86-.09c4.71.23,2.82-3.69,3.65-5.87.35-.91-.45-2.43.94-2.75s2.1,1,2.65,2.08,1.12,2.12.9,3c-1.11,4.17,1.47,5,4.59,5.41a.68.68,0,0,1,.26.61c-.11,1.45-.27,2.93,1.88,2.94l0,0c-.39,2.81-.35,6.7,1.61,7.66,3.32,1.63,5.21,4.79,8.22,6.27,4,2,8,5.12,13,3.6l2.78.26c6,1.58,12.11,1.65,16.92-2.32s9.73-4.16,15.14-2c1.38.55,2.78,1.77,3.75-.5l1.8-.05c1.17,1.79,5.3.06,4.69,4l-.18,1.23-11,14.23c-.27.35-.53.7-.8,1l-1.18,1.73-.7.91-.75,1c-1.95,0-2,1.34-2,2.78l-6.59,9.11c-.26.33-.51.66-.77,1l-1.2,1.79-.67.87-2,2.79-.72.93c-.53,1.12-1,2.17.83,2.59,1.58.35,3.13.88,4.69,1.32l1.2.55,1.55.32,1.3.57a14.45,14.45,0,0,1,6.06,2.14l1.41.59,1.35.46.92.61c1.85.07,3.13,1.32,4.6,2.19l.87.59c4,2,7.45,4.52,9.37,8.73l.63,1.36c1.1,3.4,0,6.77-.09,10.16-.86.83-.72,1.88-.62,2.92,0,1.36.53,2.85-.88,3.89,0,1.42-.51,2.9.61,4.15.07.32.13.64.2,1s-.4,1.47.85,1.09c1.54-.84,1.25-2.67,2.1-3.88l.58-1.34.3-1.42c.2-.47.39-.95.59-1.43a8.25,8.25,0,0,1,1.24-4.06l4.44.91-.2.94c-.18.45-.37.9-.56,1.36a21.89,21.89,0,0,1-2.16,6.91L985,679l-.37,1.44-.61,1.15a.52.52,0,0,1-.21.68c-.27.59-.55,1.18-.83,1.77l0,.05a1.66,1.66,0,0,0-1.7,2l0,0-2.52.07c-1.74-.24-2.46-1.68-3.37-2.89-2.28-6.21-.77-12.58-.59-18.86.12-4.16-.57-7.77-3.74-10.65l-1-.83,0,0L969,652c-5.62-3.06-5.61-3.06-8.06,3.25-.65,1.67-1.38,3.32-2.08,5l-.67.95a2.45,2.45,0,0,1-.2.88c-.18.48-.37,1-.55,1.43l-.39,1.33-.6,1.19c-.41,1.14-.82,2.27-1.22,3.41-.18.38-.36.76-.53,1.14l0-.06c-2.06-.09-4.93-1-5.16,2-.18,2.51,2.54,1,3.92,1.47l6.59,9.89.81,1.13a35.45,35.45,0,0,1,5.55,8.27l.69.91a.57.57,0,0,1,.32.69l.74,1.16a3.49,3.49,0,0,1,1.24,3c.18.51.35,1,.53,1.54.28.93.55,1.86.82,2.8-.08.1-.25.23-.23.29a4.14,4.14,0,0,0,.36.6c.09.45.18.91.28,1.36l.51,1.39c.13.75.27,1.51.4,2.27a2.37,2.37,0,0,0,.63,2.33l.27,1.45a2.23,2.23,0,0,0,.61,2.22c.58,1.8,1.35,3.56,1.14,5.52-1.36,1.16-.53,1.57.64,1.85l.36,2.44a2.15,2.15,0,0,0,.63,2.14q2.05,8.37,4.12,16.75c.51,1.67.26,3.56,1.4,5.06v.33a26.87,26.87,0,0,0,1.59,7.45c.16.59.33,1.19.49,1.79-.06.88-.15,1.76.64,2.41l0,.31c.13,1.16-.13,2.43.88,3.37l-.09.27.53,2.69a1.76,1.76,0,0,0,.61,1.92c.65,6,.65,6-5.68,6.5-1.21.1-2.42.25-3.64.33A193.91,193.91,0,0,1,924.15,773c.18-5.5.27-11,.54-16.51,1.26-26,.39-52.37,10.32-77.26.78-1.94.28-3.33-1.42-4.75-3.75-3.13-7.21-6.61-10.9-9.83-1.79-1.55-3.52-4.86-5.5-4.12-2.65,1-3.05,4.68-3.68,7.52a13.26,13.26,0,0,0,.17,5.46c1.4,7.19,2.8,14.39,4,21.62.34,2.06.48,4.36-1.73,5.8s-3.79-.11-5.47-1A89.41,89.41,0,0,1,895,688.47c-12.1-10.79-23.5-22.35-36.14-32.55-7.1-5.74-14.34-6.66-22.47-2.2-10.86,5.95-21.85,11.66-32.25,18.39-5.23,3.38-10.72,6.42-15.07,11-3.94-2.23-5.12-6.45-7.23-10q25.68-16,51.35-32c10.48-6.56,18.38-15.2,21.22-27.61,1.39-6,4.56-12,3.05-18.32a242.74,242.74,0,0,0-14.61-42.85c-2-4.45-3.35-9.54-10.13-7.38-.5.16-1.18-.24-1.78-.37-8-1.81-13.66-7-17.38-13.89-6.61-12.2-9.58-25.91-15.22-38.6-3.85-8.67-.21-18.42,11.73-19.48,2.22-.19,2.85-1.06,2.14-3.31a132.89,132.89,0,0,1-5.75-39.71c0-1.32.47-2.81-1-3.77,2.22-2.9,2-6.62,3.3-9.82C811,410.64,813.35,405.32,815.63,400Zm89.19,286.87c0,.67.44.88,1,1a4.61,4.61,0,0,0,3.59,2.16c.55-9.37-3.59-18.68.85-27.75,4.2-8.6,11.06-15.09,18.06-22.1-21.14-8.18-41.39-17-60.6-29.16-.47,3.2-.92,5.56-1.13,7.94-.16,1.81,0,3.65,0,5.48,2,27.45,17.16,46.85,38.18,62.71ZM942.13,630c-1.61.39-2.06,1.83-2.2,3.4-.09,1,.28,1.85,1.59,1.5,1.9-.5,2-2.11,2.18-3.63C943.84,630.24,943.28,629.92,942.13,630Zm24.29-33c-1.13,0-1.62.48-1.52,1.34s.83,1.14,1.62,1.12,1.51-.3,1.31-1.26A1.55,1.55,0,0,0,966.42,597Zm-77.11-240.3c-.32.16-.75.29-.74.38,0,.39.1.91.36,1.12a.53.53,0,0,0,.87-.44C889.8,357.4,889.49,357,889.31,356.69Zm65,323.24-.3.7c.23.11.52.34.69.27s.22-.43.32-.67Zm-7.51-40.18c-.23-.1-.52-.34-.69-.27s-.22.43-.33.67c.24.1.53.34.69.27S946.69,640,946.79,639.75Z"/><path class="cls-3" d="M815.63,400c-2.28,5.33-4.62,10.65-6.82,16-1.31,3.2-1.08,6.92-3.3,9.82-3.68,2.61-6.09,6.38-8.74,9.87q-58.14,76.6-40.53,171.19a188.94,188.94,0,0,0,25.62,66.23c2.11,3.56,3.29,7.78,7.23,10,2.67,7,7.88,12.2,12.6,17.73,1.64,1.93,3.43.31,4.86-.7,4.86-3.43,9.54-7.13,14.48-10.44,8.11-5.45,16.18-11,26-13.29a14.19,14.19,0,0,1,12.9,3C871.79,689.67,884.39,699,897,708.44c7.07,5.27,11.91,12.33,13.17,21.28,1.3,9.24.87,18.5.46,27.84-.69,15.4-2.92,11.72,10.85,14.92.89.2,1.79.35,2.68.53a193.91,193.91,0,0,0,53.15,3.45c1.22-.08,2.43-.23,3.64-.33,6.33-.5,6.33-.5,5.68-6.5,2.23,1.25,2.43,5.3,6.14,4.49,9.63-2.1,19.39-3.72,28.82-6.49a262.11,262.11,0,0,0,25.1-9.31c12.87-5.25,24.36-12.65,36.12-19.79,6.56-4,12.16-9.12,18-13.91,6.43-5.29,12.91-10.66,18-17.45,5.46-7.23,12.22-13.39,16.91-21.33,2.74-4.64,7.33-8.28,5.4-14.54,2.69,3.44,4.63,3.48,6.45-.94,1.52-3.7,4.13-6.93,5.3-10.85.69-1.17,1.48-2.3,2.06-3.53,18.39-38.83,24.53-79.68,18-122-8.69-56.14-35.94-101.83-81-136.54-34.11-26.3-73-40.4-116-43-17.44-1.07-34.86-.32-52,3.65l-4.61,0a85,85,0,0,0-19.86-4.42l-2.18-.87c15.21-4.13,30.53-7.53,46.31-8.89,40.55-3.5,79.52,2.7,115.92,20.8,69.74,34.68,112.42,90.74,124.14,167.75,10.89,71.61-9.75,134.78-59.82,187.52-35,36.9-78.29,59.14-128.6,65.79C924.2,795.12,861.7,775.25,809.4,725.8c-36.59-34.6-59-77.32-65.84-127.1-10.31-75.26,11.93-140.17,66-193.89,1.63-1.61,3.21-3.27,4.82-4.91l-.08,0Z"/><path class="cls-4" d="M897.37,352.74l2.18.87c-1.31,2.24-3.55,1.56-5.37,1.41-14.43-1.22-27.07,3.74-39,11.2a16.55,16.55,0,0,0-4.64,4.34c-1.51,2.12-3.14,3.79-5.82,3.84-4.25.09-4.72,4.52-7.24,6.6-3.64,3-7.62,5.88-10.74,9.7a42.84,42.84,0,0,1-5.49,6c-1.13.95-2.1,1.68-3.57,1.58,12.91-17.83,28.84-32,49.24-40.78C876.7,353.29,886.88,352.1,897.37,352.74Z"/><path class="cls-4" d="M817.58,398.53c0,.54,0,1.13-.71,1.24A1,1,0,0,1,817.58,398.53Z"/><path class="cls-4" d="M814.28,399.93l.08,0Z"/><path class="cls-5" d="M1141.14,671.3c1.93,6.26-2.66,9.9-5.4,14.54-4.69,7.94-11.45,14.1-16.91,21.33-5.14,6.79-11.62,12.16-18,17.45-5.82,4.79-11.42,9.93-18,13.91-11.76,7.14-23.25,14.54-36.12,19.79a262.11,262.11,0,0,1-25.1,9.31c-9.43,2.77-19.19,4.39-28.82,6.49-3.71.81-3.91-3.24-6.14-4.49a1.76,1.76,0,0,1-.61-1.92c.71-.21,1.43-.44,1.35-1.37-.09-1.16-1-1.23-1.88-1.32l.09-.27c.09-1.23.45-2.52-.88-3.37v-.31c0-.87.16-1.77-.65-2.41-.16-.6-.33-1.2-.49-1.79,2.75-3.19.91-5.39-1.59-7.45v-.33c-.25-1.75,1.08-3.93-1.4-5.06q-2.06-8.38-4.12-16.75a2,2,0,0,0-.63-2.14l-.36-2.44a1.89,1.89,0,0,0-.64-1.85c.21-2-.56-3.72-1.14-5.52a2.27,2.27,0,0,0-.61-2.22l-.27-1.45a2.3,2.3,0,0,0-.63-2.33c-.13-.76-.27-1.52-.4-2.27l-.51-1.39c-.1-.45-.19-.91-.28-1.36l-.13-.89c-.27-.94-.54-1.87-.82-2.8-.17-.51-.35-1-.53-1.54a3.49,3.49,0,0,0-1.24-3c-.25-.39-.49-.78-.74-1.16a.57.57,0,0,0-.32-.69l-.69-.91a35.45,35.45,0,0,0-5.55-8.27l-.81-1.13L953.54,674c.41-1.17.82-2.33,1.24-3.5l0,.06c.17-.38.35-.76.53-1.14.4-1.14.81-2.27,1.22-3.41l.6-1.19.39-1.33a1.14,1.14,0,0,0,.55-1.43,2.45,2.45,0,0,0,.2-.88c.28-.09.57-.16.86-.23,5.23,2,8.5,5.47,8.32,11.49a32,32,0,0,0,.28,7.71c.48,2.21-.07,5.4,2.66,6.32,2.4.8,3.19-2.4,5.08-3.25.91,1.21,1.63,2.65,3.37,2.89.86.77,1.71,1,2.52-.07l0,0a1.82,1.82,0,0,0,1.7-2l0-.05a1.66,1.66,0,0,0,.83-1.77.52.52,0,0,0,.21-.68l.61-1.15L985,679l.6-1.32a21.87,21.87,0,0,0,2.16-6.92c.19-.45.38-.9.56-1.35s.14-.62.2-.94c3.86-9.75,8.09-19.35,11.3-29.36,2.68-8.4,1.18-16.52-1.47-24.55,1.59-.7,2.66,0,3.82.26,19.55,4.89,39.06,9.89,59.26,11.63,11.71,1,23.37,2.72,34.58,6.59,18.57,6.41,30.42,20.91,42.45,35.19-.29,2,.45,3.07,2.57,3Z"/><path class="cls-4" d="M1138.48,668.23c-12-14.28-23.88-28.78-42.45-35.19-11.21-3.87-22.87-5.58-34.58-6.59-20.2-1.74-39.71-6.74-59.26-11.63-1.16-.29-2.23-1-3.82-.26,2.65,8,4.15,16.15,1.47,24.55-3.21,10-7.44,19.61-11.3,29.36l-4.44-.91a172.75,172.75,0,0,1,7.63-21.43,32.47,32.47,0,0,0,2.54-16.5c-1.61-15.09-8.29-28.45-13.86-42.23-.65.27-1,.31-1.15.5q-3.15,3.6-6.26,7.22c.6-3.89-3.53-2.16-4.7-4,2.39-1.86,4.84-3.65,6.45-6.3a18.34,18.34,0,0,0,4.65-6.73c3.88-9,7.89-17.88,11.54-26.94,4.3-10.69,3.88-21.55.52-33.42l-2.6,4.85a47.81,47.81,0,0,1,.95-23c1.89-6,3.19-12.1,2.65-18.47s-1.08-6.7-6.3-3.28a5.15,5.15,0,0,1-1.29.43c0-.43-.18-1.09,0-1.26,4.8-3.85,4.64-8.31,1.86-13.25a23.28,23.28,0,0,1-1.39-4.14c-2.86,3-5.65,6.17-10.25,3.21-.35-.22-1.17.17-1.72.39-4.27,1.72-8.69,1.19-13.1.94-.43-.57-.91-.78-1.5-.2l1.14.6c4,3.48,8.66,2.78,13.91,1.73-7.16,5.11-13.86,3.57-25.65-5.72a42.57,42.57,0,0,0,10.13,16.66c1,1.08,3.12,1.61,2.64,3.8-2.39.14-4-2.27-6.56-2.32a12.46,12.46,0,0,0,5.93,8.46c7.57,5,7.35,12.1,0,16.71-4.08,2.57-8.32,2.05-12.67,1.41l-2.39.68h-1.8c-4.34-.73-7,3-10.83,4-9.85,2.38-14.41-.16-16-9.71.68-5.35,4.44-7.95,8.87-10-1.62,3.16-4.86,5.58-4.16,9.78.32,1.91,1.67,4,3,2.85,2.5-2.14,6.86-2.66,7.3-6.75s2-3,4.21-1.36c2.79,2.05,5.62,4.31,9.51,3.5,5.43-1.18,7.7-5.61,5.93-11.43-3.48-11.46-9.88-21.85-12.07-33.83-.8-4.42-4-5.15-9.52-3.26-3.57.42-4.85,2.52-4.74,6a37.32,37.32,0,0,0,1.68,8.46c1.09,4.1,3.51,7.76,3.94,12.07-1.63-1.79-3.29-3.55-4.89-5.37-2.5-2.85-3.84-1.85-5.06,1.22-1.42,3.6-3.18,7.07-4.8,10.59-1.46,0-1.9-.42-1.22-1.92a62.94,62.94,0,0,0,2.47-6.28c1.32-3.91-3.1-3.69-3.9-6.19-.37-1.16-2.74.9-3.67,2.24a32.35,32.35,0,0,1-5.84,6.4c-5,4.21-13.45,5.38-17.58,2.32,5.65-.07,10.9-.66,14.6-5.29.43-.35.77-.73.49-1.33.16-.08.32-.16.47-.25-.07,0-.18,0-.22,0a1.49,1.49,0,0,0-.2.29l-1.17.65-1.61.08-.06-3.75c2.13-1.06,4.3-2.07,6.38-3.22.84-.46,2.2-1.39.36-2.15-2.19-.92-4.63-2.07-6.85-1.86-2,.17-.14,2.76-.85,4.13-.42.79-.77,1.62-1.16,2.43-4.36-2.47-4.36-2.47-6.3.38-1.1-1.45-.75-2.68.1-4.13a2.2,2.2,0,0,0-1.12-3.38c-1.27-.48-2.61-.44-3.33,1.36-1.89,4.75-5.34,2.07-8.31,1.57a16.21,16.21,0,0,0,2.76-1.58c6.41-5.45,13.71-6.26,21.47-4,4.44,1.3,8.74,3.06,13.17,4.63.32-4.38.32-4.38,1.38-5.29,3.55-3,3.17-5.44-1.08-7.22-5.91-2.46-12.12-2.74-18.39-2.7,1.84-1.06,5.68-.54,3.64-4.64a38.19,38.19,0,0,1,19.86,4.12c1.86.95,3.11,1.09,4.93-.06,4.57-2.85,9.56-3,14.54-1.2,1.78.64,2.85.73,4.25-.92,5.23-6.19,12.2-9.34,20-11.21,5-1.2,10.29.06,15.25-1.95-.59-1.7-2-2-3.21-2.51-10.72-4.37-20.61-1.74-30.2,3.57-1.72,1-3.64,3.75-5.41,1.76-1.39-1.57.92-3.84,2-5.65a6.63,6.63,0,0,1,1.49-1.72C951.41,422.07,960,418,970,417.66c8.44-.29,9-1.05,5.87-9-.73-1.84-1.59-3.63-2.5-5.39-4-7.92-10.44-13.8-17-19.49l.29-.36c1.23-1.61,4.54.35,4.6-1.77s-3.25-3.07-4.82-3.29c-3.52-.5-4.23-3.6-6.42-5.15a40.47,40.47,0,0,0-9.62-5.13c-6.68-2.37-13.14-5.42-20.17-6.79-2.19-.43-1.26-2-.77-3.23l4.61,0c.77,2.34,3.12,2.36,4.84,2.95a114.72,114.72,0,0,1,16.4,7.11c25.4,13.4,42,32.8,42.32,63.05,0,2.83,1.31,4.34,3.74,5,3.13.81,4.35,2.77,4.79,5.86,1.11,7.87,2.64,15.7.74,23.66a10.86,10.86,0,0,0,.26,5.9,39.08,39.08,0,0,1,.17,22.62c-1.78,6.46-1.27,12.6.68,18.92,4.54,14.72,5.7,29.42-1.54,43.77a122.08,122.08,0,0,0-6,14.39c-4.59,13,2.57,28.21,15.51,33.07,22.72,8.52,46.66,10.68,70.43,13.81,12.86,1.7,25.83,3.3,37.46,9.79,12.29,6.87,22.36,16.48,32.38,26.16,2,2,3.58,4.66,6.65,5.42-1.17,3.92-3.78,7.15-5.3,10.85-1.82,4.42-3.76,4.38-6.45.94l-.09-.1Zm-188-217.55a24.47,24.47,0,0,1,13.27-9c7.29-1.82,12.81,2.13,18.2,7-.3-2.88-.6-5.13-.74-7.39a2.36,2.36,0,0,0-2.58-2.52c-9.85-.55-19.23.75-27.31,7-3.94,3.06-4.74,5.6-3.43,10.82,9.09-7.28,18.61-11.95,30.92-3.56-2.08-4.41-4.82-5.71-7.56-6.87C963.34,442.82,956.87,446.51,950.44,450.68Zm41.87,9.26c1.36-5.81-.66-11.28-1.61-16.86-.15-.9-.9-1.86-1.83-1.77-1.58.14-1.09,1.6-1,2.53A38,38,0,0,0,992.31,459.94Zm-26.77,1c3.69-1.25,7.76-.28,8.68-3.71.64-2.42-2.54-3.9-5.12-5.53C969.31,455.34,968.13,457.88,965.54,460.91Zm-5,32.06c-3.62,3.33-3.62,3.33.07,6A6.15,6.15,0,0,0,960.5,493Zm-69-30.4c1.72-.71,2.94-1.15,2.88-2.82,0-.23-.7-.68-1-.62C892,459.42,891.57,460.51,891.45,462.57Z"/><path class="cls-6" d="M956.32,383.75c6.61,5.69,13,11.57,17,19.49.91,1.76,1.77,3.55,2.5,5.39,3.17,8,2.57,8.74-5.87,9-10,.34-18.59,4.41-26.27,10.62a6.63,6.63,0,0,0-1.49,1.72c-1,1.81-3.36,4.08-2,5.65,1.77,2,3.69-.8,5.41-1.76,9.59-5.31,19.48-7.94,30.2-3.57,1.21.49,2.62.81,3.21,2.51-5,2-10.25.75-15.25,1.95-7.79,1.87-14.76,5-20,11.21-1.4,1.65-2.47,1.56-4.25.92-5-1.76-10-1.65-14.54,1.2-1.82,1.15-3.07,1-4.93.06a38.19,38.19,0,0,0-19.86-4.12,17,17,0,0,0-6.39.22l-3.63.22a3.61,3.61,0,0,0-2.81.61l-2.75-.06c-.46-3.47,3-5.14,3.72-8.05l-.08-.28,1.53-.59,3.11-.25.45.07.44-.14,1.91-.1,3.51-.19,2.86-.26a5.85,5.85,0,0,0,3.66.55l2.23.31,1.45.6.95.13a22.69,22.69,0,0,0,2,1.06c1.35.55,3,1.8,4.06.13.78-1.23-.53-2.58-1.45-3.58a17.73,17.73,0,0,0-12-5.89l-1.3-.12a32.88,32.88,0,0,0-17.1-.8l-3.68.23a9.22,9.22,0,0,0-4.57.85,7,7,0,0,0-3.7.9,7.14,7.14,0,0,0-4.68,1.65l0,0a37.84,37.84,0,0,0-9.46,3.68l-1.54-.08c.24-1,.46-2.07.72-3.1,1.82-7.14,5.67-13.68,5.16-21.53-.33-5.23,2-9.66,6.11-13.56,7.87-7.51,17.1-12.48,26.9-16.77,4.55-2,9.43-3.3,13.56-6.21l12.82-.41,4.61.25,12.89,2.55,1.55.27a13.82,13.82,0,0,0,5.68,1.9l0-.05a5.73,5.73,0,0,0,3.65,1.94l0-.1,1.11.81,1.61,1,1.17.76Z"/><path class="cls-7" d="M924.15,773c-.89-.18-1.79-.33-2.68-.53-13.77-3.2-11.54.48-10.85-14.92.41-9.34.84-18.6-.46-27.84-1.26-9-6.1-16-13.17-21.28-12.6-9.4-25.2-18.77-37.11-29.06a14.19,14.19,0,0,0-12.9-3c-9.77,2.28-17.84,7.84-26,13.29-4.94,3.31-9.62,7-14.48,10.44-1.43,1-3.22,2.63-4.86.7-4.72-5.53-9.93-10.74-12.6-17.73,4.35-4.59,9.84-7.63,15.07-11,10.4-6.73,21.39-12.44,32.25-18.39,8.13-4.46,15.37-3.54,22.47,2.2,12.64,10.2,24,21.76,36.14,32.55a89.41,89.41,0,0,0,15.46,11.43c1.68.93,3.32,2.43,5.47,1s2.07-3.74,1.73-5.8c-1.2-7.23-2.6-14.43-4-21.62a13.26,13.26,0,0,1-.17-5.46c.63-2.84,1-6.51,3.68-7.52,2-.74,3.71,2.57,5.5,4.12,3.69,3.22,7.15,6.7,10.9,9.83,1.7,1.42,2.2,2.81,1.42,4.75-9.93,24.89-9.06,51.22-10.32,77.26C924.42,762,924.33,767.51,924.15,773Z"/><path class="cls-8" d="M974.75,584.87c-1.61,2.65-4.06,4.44-6.45,6.3l-1.8.05c-6.55-3.42-13.38-3.68-19.52.24-5.13,3.28-10.32,5-16.29,4.6l-2.78-.26c-4.08-1.69-8.14-3.35-11.74-6-4.34-3.25-7.46-7.63-11.14-11.48l0,0a5.25,5.25,0,0,0-1.88-2.94.68.68,0,0,0-.26-.61,87,87,0,0,1-8.58-24.17c-1.74,2.6-1.78,5.07-2.37,7.4-1.23,4.91.17,10.11-1.78,14.91l-1.86.09c-6.41-4.5-8.56-11.52-11-18.41-.63-1.83-.85-3.8-2.66-5.1-4.63-3.32-8.09-7.72-11.14-12.47l0,0q-1-3.66-2-7.31c0-.62-.07-1.23-.1-1.84l.21-2.72h0c2.48-.11,4.11,1.79,6.2,2.6,4.81,1.88,9.61,3.67,14.76,3.76l.45-1.16-10.28-7.23h0a53.5,53.5,0,0,1-12-19.56c-.06-.48-.13-1-.2-1.43.06-1.31.17-2.63-.83-3.69-.08-.62-.15-1.25-.23-1.87-.19-.44-.39-.88-.58-1.33s-.11-.92-.17-1.39a12.47,12.47,0,0,0-1.69-6.53l.08,0c.06-4.52-3.76-9,0-13.57l3.55-2.68,5.47-1.21,1,1.05L868,472l-.1,0c2.16,8.4,7.26,14.71,14.1,19.77-.61,1.21-1.56,1-2.71.89-5.08-.33-8.74-3.51-12.54-6.43-.26.53-.41.67-.39.8q.4,2.46.84,4.92c2.77,15.49,10.8,27.49,24,36.09,1.36.89,3.42,1.86,3,3.59s-2.66.62-4.06,1a15.63,15.63,0,0,1-1.77.41c-2.33.3-4.23,1.25-4.2,3.87,0,2,.37,4.35,2.13,5.31,2.35,1.27,3.34-1.44,4.68-2.66,3.78-3.45,4.6-3.28,6.32,1.82,1,2.94,1.81,6,5.84,5.93,1.2,5.17,1.8,10.6,6,14.52,3.08,1.93,5.65,4.71,9.38,5.51,3.53.76,5.25,3.38,6.66,6.34,1.18,2.49,2.23,5.05,3.57,7.44,2.68,4.76,6.83,6.42,12.27,5.9,2.94-.28,5.17-1.74,7.57-3C957.52,579.29,966.05,584,974.75,584.87Z"/><path class="cls-5" d="M961.82,610.58l11-14.23c.26,2.68,1.75,4.88,3,7.12,12.06,21.57,11.39,44,4.47,66.79-.11.34,0,1.61-.75.3a5.12,5.12,0,0,1-.34-1.32l-.06-2.57c.12-3.39,1.19-6.76.09-10.16a1.12,1.12,0,0,0-.63-1.36c-1.92-4.21-5.4-6.73-9.37-8.73l-.87-.59c-1.47-.87-2.75-2.12-4.6-2.19l-.92-.61-1.35-.46-1.41-.59a14.45,14.45,0,0,0-6.06-2.14l-1.3-.57-1.55-.32-1.2-.55c-1.56-.44-3.11-1-4.69-1.32-1.87-.42-1.36-1.47-.83-2.59l.72-.93,2-2.79.67-.87,1.2-1.79c.26-.32.51-.65.77-1l6.59-9.11a4.79,4.79,0,0,0,2-2.78l.75-1,.7-.91,1.18-1.73C961.29,611.28,961.55,610.93,961.82,610.58Z"/><path class="cls-7" d="M866.59,624.39c0-1.83-.16-3.67,0-5.48.21-2.38.66-4.74,1.13-7.94,19.21,12.21,39.46,21,60.6,29.16-7,7-13.86,13.5-18.06,22.1-4.44,9.07-.3,18.38-.85,27.75a4.61,4.61,0,0,1-3.59-2.16l-1-1-.05.24c.29-1.2-.5-2-1-2.94-4.56-8.09-6.71-16.34-1.71-25.11a18.13,18.13,0,0,0,1.16-3.47c3.13-9.79,2.24-11.65-7.43-15.44-6.42-2.51-12.35-5.93-18.34-9.32C873.77,628.75,871.05,625.05,866.59,624.39Z"/><path class="cls-5" d="M866.59,624.39c4.46.66,7.18,4.36,10.84,6.43,6,3.39,11.92,6.81,18.34,9.32,9.67,3.79,10.56,5.65,7.43,15.44a18.13,18.13,0,0,1-1.16,3.47c-5,8.77-2.85,17,1.71,25.11.52.93,1.31,1.74,1,2.94C883.75,671.24,868.56,651.84,866.59,624.39Z"/><path class="cls-7" d="M979.19,669.24a5.12,5.12,0,0,0,.34,1.32c.77,1.31.64,0,.75-.3,6.92-22.82,7.59-45.22-4.47-66.79-1.25-2.24-2.74-4.44-3-7.12l.18-1.23c2.09-2.41,4.17-4.82,6.27-7.22.17-.19.5-.23,1.15-.5,5.57,13.78,12.25,27.14,13.86,42.23a32.47,32.47,0,0,1-2.54,16.5,172.75,172.75,0,0,0-7.63,21.43,8.25,8.25,0,0,0-1.24,4.06c-.2.48-.39,1-.59,1.43l-.3,1.42c-.2.45-.39.89-.58,1.34-.85,1.21-.56,3-2.1,3.88-.28-.37-.57-.73-.85-1.09-.07-.33-.13-.65-.2-1-.25-1.37.67-2.92-.61-4.15,1.41-1,.86-2.53.88-3.89C978.73,669.46,979,669.35,979.19,669.24Z"/><path class="cls-8" d="M909.52,373.66c-4.13,2.91-9,4.21-13.56,6.21-9.8,4.29-19,9.26-26.9,16.77-4.1,3.9-6.44,8.33-6.11,13.56.51,7.85-3.34,14.39-5.16,21.53-.26,1-.48,2.07-.72,3.1l.12.42a10.15,10.15,0,0,0-4.71,1.54l-1.84.29-1.73.11-1.88-.37a8.16,8.16,0,0,1,.41-5.38q2-5.1,4-10.2a2,2,0,0,0,.2-.89,31.61,31.61,0,0,0,3.35-14c-.15-.39-.3-.79-.44-1.19.33-4.59,3.77-7.31,6.34-10.56l0,0a5.44,5.44,0,0,0,2.84-2.71l0,0a3.9,3.9,0,0,0,2.92-2.56l.08-.05,11.77-7.57a1.16,1.16,0,0,0,.78-.29l.95-.68,0,0L894,375.46l.07.08C899.27,375.32,904.23,373.17,909.52,373.66Z"/><path class="cls-8" d="M898.46,473.46l1.61-.08c.2.22.42.43.63.63-3.7,4.63-9,5.22-14.6,5.29,4.13,3.06,12.54,1.89,17.58-2.32a32.35,32.35,0,0,0,5.84-6.4c.93-1.34,3.3-3.4,3.67-2.24.8,2.5,5.22,2.28,3.9,6.19a62.94,62.94,0,0,1-2.47,6.28c-.68,1.5-.24,1.95,1.22,1.92-2.5,3.89-5.55,7.31-9.73,9.35-6.74,3.3-13.66,4.22-20.62.41-1.75-2.34-4.29-3.83-6.39-5.78-1.39-1.29-4.09-3.12.22-4.56,1.77-.59,1.62-2,.18-3.13,0-.52,0-1,0-1.55,2.91-.92,5.68-2.49,8.91-2.05l2.79-.08a9.89,9.89,0,0,0,6.47-1.68A1.09,1.09,0,0,0,898.46,473.46Z"/><path class="cls-7" d="M975.43,683.21c-1.89.85-2.68,4-5.08,3.25-2.73-.92-2.18-4.11-2.66-6.32a32,32,0,0,1-.28-7.71c.18-6-3.09-9.44-8.32-11.49a2,2,0,0,0-.19-.72c.7-1.65,1.43-3.3,2.08-5,2.45-6.31,2.44-6.31,8.06-3.25l1.1.89,0,0,1,.83c3.17,2.88,3.86,6.49,3.74,10.65C974.66,670.63,973.15,677,975.43,683.21Z"/><path class="cls-8" d="M896.63,448.69c6.27,0,12.48.24,18.39,2.7,4.25,1.78,4.63,4.2,1.08,7.22-1.06.91-1.06.91-1.38,5.29-4.43-1.57-8.73-3.33-13.17-4.63-7.76-2.27-15.06-1.46-21.47,4a16.21,16.21,0,0,1-2.76,1.58l-.82-.44.27-2.58,2.26-2.94,5.78-4.43v.05c9.78-4.37,18.37-.17,27,4-4.16-5.24-10.21-7-15.82-9.59A.75.75,0,0,0,896.63,448.69Z"/><path class="cls-8" d="M888.41,437c-.74,2.91-4.18,4.58-3.72,8.05l-1.07.93-1.72.26-1.23.64-.31,0-.27.15a8.77,8.77,0,0,0-4.7,1.78l-2.64,1.09a14,14,0,0,0-6.5,3.42l-2,.17c1.45-6.34,6.57-9.44,11.37-12.82l2.64-1.11,1.26-.7,1.46-.29a12,12,0,0,0,4.93-1.53Z"/><path class="cls-4" d="M860.93,503.56a53.5,53.5,0,0,0,12,19.56c-1.41.45-3.3-1.74-4.3.69-.42,1,.41,1.72,1.31,2,2.35.67,2.86-.82,3-2.68l10.28,7.23-.45,1.16c-5.15-.09-10-1.88-14.76-3.76-2.09-.81-3.72-2.71-6.2-2.6-.08-2.39.42-3.77,3.44-3.21,1.39.26,3,.07,1.53-2.92C864.28,514.15,858.89,510.14,860.93,503.56Z"/><path class="cls-4" d="M863.59,537c3,4.75,6.51,9.15,11.14,12.47,1.81,1.3,2,3.27,2.66,5.1,2.39,6.89,4.54,13.91,11,18.41-1.64,1.62-2.88.41-3.81-.76-4-5-8.93-9.28-9.21-16.61-.19-4.75-5-7.13-8.15-9.91C864.2,543.05,863.49,540.42,863.59,537Z"/><path class="cls-4" d="M890.2,572.88c1.95-4.8.55-10,1.78-14.91.59-2.33.63-4.8,2.37-7.4a87,87,0,0,0,8.58,24.17c-3.12-.44-5.7-1.24-4.59-5.41.22-.87-.43-2.06-.9-3s-1.23-2.41-2.65-2.08-.59,1.84-.94,2.75C893,569.19,894.91,573.11,890.2,572.88Z"/><path class="cls-4" d="M879.5,479c1.44,1.14,1.59,2.54-.18,3.13-4.31,1.44-1.61,3.27-.22,4.56,2.1,2,4.64,3.44,6.39,5.79l-3.46-.82c-6.84-5.06-11.94-11.37-14.1-19.77a5.81,5.81,0,0,1,4.75,4.11C873.82,479,875.75,481.41,879.5,479Z"/><path class="cls-4" d="M905,578.27c3.68,3.85,6.8,8.23,11.14,11.48,3.6,2.7,7.66,4.36,11.74,6-5.08,1.52-9-1.61-13-3.6-3-1.48-4.9-4.64-8.22-6.27C904.68,585,904.64,581.08,905,578.27Z"/><path class="cls-4" d="M896,448.91c5.61,2.55,11.66,4.35,15.82,9.59-8.62-4.17-17.21-8.37-27-4,.4-3.84,4-3.45,6.34-4.65C892.55,449.13,894.36,449.19,896,448.91Z"/><path class="cls-4" d="M930.69,596.06c6,.36,11.16-1.32,16.29-4.6,6.14-3.92,13-3.66,19.52-.24-1,2.27-2.37,1-3.75.5-5.41-2.14-10.18-2.08-15.14,2S936.67,597.64,930.69,596.06Z"/><path class="cls-4" d="M909.52,373.66c-5.29-.49-10.25,1.66-15.44,1.88-.22-3.48,2.82-3.58,4.73-3.69,6.65-.35,13.33-.18,20-.24a3.62,3.62,0,0,1,3.53,1.64Z"/><path class="cls-4" d="M875.64,440.63c-4.8,3.38-9.92,6.48-11.37,12.82-1.75-.36-3.14-1.4-2.18-3.16a26.31,26.31,0,0,1,9.67-10.14C873.18,439.31,874.4,440,875.64,440.63Z"/><path class="cls-4" d="M903.07,428.56a17.73,17.73,0,0,1,12,5.89c.92,1,2.23,2.35,1.45,3.58-1,1.67-2.71.42-4.06-.13a22.69,22.69,0,0,1-2-1.06c1.4-4.11-1.78-4.82-4.39-5.37C904.14,431.07,902.9,430.75,903.07,428.56Z"/><path class="cls-9" d="M896.28,469c.39-.81.74-1.64,1.16-2.43.71-1.37-1.12-4,.85-4.13,2.22-.21,4.66.94,6.85,1.86,1.84.76.48,1.69-.36,2.15-2.08,1.15-4.25,2.16-6.38,3.22C897.64,469.66,896.62,470.42,896.28,469Z"/><path class="cls-4" d="M851.41,421.24q-2,5.1-4,10.2a8.16,8.16,0,0,0-.41,5.38c-1.11,1.1-2.84,1.11-2.46-.46C845.9,431,845.4,424.56,851.41,421.24Z"/><path class="cls-4" d="M857.3,473.71c-3.75,4.53.07,9.05,0,13.57-2.88-.62-4.63-3.14-3.5-5.19C855.32,479.37,850.6,474,857.3,473.71Z"/><path class="cls-4" d="M884.67,427.64a32.88,32.88,0,0,1,17.1.8C896,428.9,890.31,429.23,884.67,427.64Z"/><path class="cls-4" d="M894,375.46l-13.88,5.42a2.54,2.54,0,0,1,2-3C886,376.55,889.87,375.4,894,375.46Z"/><path class="cls-4" d="M860.86,394.64c-2.57,3.25-6,6-6.34,10.56C852.61,398,854.05,395.58,860.86,394.64Z"/><path class="cls-4" d="M878.43,381.81l-11.77,7.57c.09-.71,0-1.9.29-2.05C870.85,385.64,873.41,381.13,878.43,381.81Z"/><path class="cls-4" d="M855,406.39a31.61,31.61,0,0,1-3.35,14C851.79,415.47,851.44,410.47,855,406.39Z"/><path class="cls-4" d="M888.36,475.42c-3.23-.44-6,1.13-8.91,2.05-1.52-3.82,1.48-4.3,3.87-5.22a.87.87,0,0,0,.17.07c-.35.88-.51,1.84.76,1.88s1.1-1,1-1.9h0C887,472.7,887.71,474,888.36,475.42Z"/><path class="cls-4" d="M939.84,376.05,927,373.5C930.92,372.16,937.7,373.5,939.84,376.05Z"/><path class="cls-4" d="M858.61,434.91a37.84,37.84,0,0,1,9.46-3.68C866.72,437.11,862.27,435,858.61,434.91Z"/><path class="cls-10" d="M883.49,472.32a.87.87,0,0,1-.17-.07A21,21,0,0,1,880,471c-1.44-.81-.57-1.73.17-2.5s1.32-.92,2.06.21a33,33,0,0,0,3.06,3.54h0C884.67,471.47,884.08,472.08,883.49,472.32Z"/><path class="cls-4" d="M852.48,436.79a10.15,10.15,0,0,1,4.71-1.54,7.24,7.24,0,0,0-.31,1.75c.07,1.19,3.58,1.44,1.12,3.19-1.73,1.23-2.41-.82-3.34-1.92A9.19,9.19,0,0,0,852.48,436.79Z"/><path class="cls-4" d="M866.25,453.28a14,14,0,0,1,6.5-3.42C872.14,454.07,870.43,455,866.25,453.28Z"/><path class="cls-4" d="M942.13,630c1.15-.08,1.71.24,1.57,1.27-.2,1.52-.28,3.13-2.18,3.63-1.31.35-1.68-.48-1.59-1.5C940.07,631.83,940.52,630.39,942.13,630Z"/><path class="cls-4" d="M954.78,670.49c-.42,1.17-.83,2.33-1.24,3.5-1.38-.46-4.1,1-3.92-1.47C949.85,669.51,952.72,670.4,954.78,670.49Z"/><path class="cls-4" d="M861.64,529.7q1,3.64,2,7.31C859.82,535.06,859.1,532.39,861.64,529.7Z"/><path class="cls-4" d="M884.81,454.45,879,458.88c-2.74-1.93.42-2.16,1-3C881.12,454.22,883,454.18,884.81,454.45Z"/><path class="cls-11" d="M982,749.42c2.5,2.06,4.34,4.26,1.59,7.45A26.87,26.87,0,0,1,982,749.42Z"/><path class="cls-4" d="M857.23,487.32a12.47,12.47,0,0,1,1.69,6.53C854,492.8,857.67,489.53,857.23,487.32Z"/><path class="cls-4" d="M947.07,378.22a13.82,13.82,0,0,1-5.68-1.9C943.1,377.5,946.91,372.38,947.07,378.22Z"/><path class="cls-4" d="M866.32,469.82,860.85,471C861.93,467.26,864,468,866.32,469.82Z"/><path class="cls-4" d="M966.42,597a1.55,1.55,0,0,1,1.41,1.2c.2,1-.51,1.24-1.31,1.26s-1.51-.23-1.62-1.12S965.29,597,966.42,597Z"/><path class="cls-4" d="M875.39,448.77a8.77,8.77,0,0,1,4.7-1.78C880,451.59,877.15,448.68,875.39,448.77Z"/><path class="cls-4" d="M876.42,428.72a9.22,9.22,0,0,1,4.57-.85C879.57,428.72,878.62,432.06,876.42,428.72Z"/><path class="cls-4" d="M897.62,473.66a9.89,9.89,0,0,1-6.47,1.68C893,473.44,895.3,473.56,897.62,473.66Z"/><path class="cls-4" d="M885.93,437a12,12,0,0,1-4.93,1.53C881.58,434.59,884.37,437.77,885.93,437Z"/><path class="cls-4" d="M859.9,498.44c1,1.06.89,2.38.83,3.69C858.3,501.38,858.62,500,859.9,498.44Z"/><path class="cls-4" d="M950.7,380.11a5.73,5.73,0,0,1-3.65-1.94C948.58,378.22,950.61,377.35,950.7,380.11Z"/><path class="cls-4" d="M866.58,389.43a3.9,3.9,0,0,1-2.92,2.56C863.69,390.06,864.45,389,866.58,389.43Z"/><path class="cls-4" d="M868,431.27a7.14,7.14,0,0,1,4.68-1.65C871.68,431.63,869.84,431.4,868,431.27Z"/><path class="cls-4" d="M883.62,446l1.07-.93,2.75.06C886.81,448.18,885.08,446.48,883.62,446Z"/><path class="cls-4" d="M863.68,392a5.44,5.44,0,0,1-2.84,2.71C860.62,392.53,861.54,391.61,863.68,392Z"/><path class="cls-4" d="M905.8,435.8a5.85,5.85,0,0,1-3.66-.55C903.69,433.23,904.65,435.14,905.8,435.8Z"/><path class="cls-4" d="M861.75,525.14l-.21,2.72c-.72-.16-1.44-.35-1.48-1.26C860,525.44,860.85,525.24,861.75,525.14Z"/><path class="cls-4" d="M890.25,444.49l3.63-.22C892.85,447.4,891.49,445,890.25,444.49Z"/><path class="cls-4" d="M876.77,461.82l-.27,2.58c-.91-.08-1.81-.32-1.7-1.44S875.88,461.8,876.77,461.82Z"/><path class="cls-11" d="M985.48,765c.87.09,1.79.16,1.88,1.32.08.93-.64,1.16-1.35,1.37Z"/><path class="cls-4" d="M903.19,575.35a5.25,5.25,0,0,1,1.88,2.94C902.92,578.28,903.08,576.8,903.19,575.35Z"/><path class="cls-11" d="M980.55,744c2.48,1.13,1.15,3.31,1.4,5.06C980.81,747.59,981.06,745.7,980.55,744Z"/><path class="cls-4" d="M958.39,615.24a4.79,4.79,0,0,1-2,2.78C956.35,616.58,956.44,615.25,958.39,615.24Z"/><path class="cls-4" d="M889.31,356.69c.18.35.49.71.49,1.06a.53.53,0,0,1-.87.44c-.26-.21-.31-.73-.36-1.12C888.56,357,889,356.85,889.31,356.69Z"/><path class="cls-4" d="M954.3,679.93l.71.3c-.1.24-.15.61-.32.67s-.46-.16-.69-.27Z"/><path class="cls-4" d="M977.63,673.48c1.28,1.23.36,2.78.61,4.15C977.12,676.38,977.61,674.9,977.63,673.48Z"/><path class="cls-4" d="M946.79,639.75c-.1.24-.16.6-.33.67s-.45-.17-.69-.27c.11-.24.16-.61.33-.67S946.56,639.65,946.79,639.75Z"/><path class="cls-4" d="M983,684.09a1.82,1.82,0,0,1-1.7,2A1.66,1.66,0,0,1,983,684.09Z"/><path class="cls-4" d="M974.8,720.85a1.89,1.89,0,0,1,.64,1.85C974.27,722.42,973.44,722,974.8,720.85Z"/><path class="cls-4" d="M899.28,435.51l-3.51.19A2.83,2.83,0,0,1,899.28,435.51Z"/><path class="cls-4" d="M979.19,669.24c-.23.11-.46.22-.68.35-.1-1-.24-2.09.62-2.92Z"/><path class="cls-11" d="M984.69,761.38c1.33.85,1,2.14.88,3.37C984.56,763.81,984.82,762.54,984.69,761.38Z"/><path class="cls-4" d="M978.44,678.6c.28.36.57.72.85,1.09C978,680.07,978.59,679.06,978.44,678.6Z"/><path class="cls-11" d="M984,758.66c.81.64.67,1.54.65,2.41C983.88,760.42,984,759.54,984,758.66Z"/><path class="cls-4" d="M981.32,686c-.81,1.12-1.66.84-2.52.07Z"/><path class="cls-4" d="M983.83,682.27A1.66,1.66,0,0,1,983,684C983.28,683.45,983.56,682.86,983.83,682.27Z"/><path class="cls-4" d="M972.15,709.33a2.3,2.3,0,0,1,.63,2.33A2.37,2.37,0,0,1,972.15,709.33Z"/><path class="cls-4" d="M973.05,713.11a2.27,2.27,0,0,1,.61,2.22A2.23,2.23,0,0,1,973.05,713.11Z"/><path class="cls-4" d="M975.8,725.14a2,2,0,0,1,.63,2.14A2.15,2.15,0,0,1,975.8,725.14Z"/><path class="cls-4" d="M848.91,437.19l1.73-.11A1,1,0,0,1,848.91,437.19Z"/><path class="cls-4" d="M961.82,610.58c-.27.35-.53.7-.8,1Z"/><path class="cls-4" d="M957.09,664.81l-.6,1.19Z"/><path class="cls-4" d="M951.77,380.82l-1.11-.81Z"/><path class="cls-4" d="M958,662.05a1.14,1.14,0,0,1-.55,1.43C957.66,663,957.85,662.53,958,662.05Z"/><path class="cls-4" d="M958.9,660.22a2,2,0,0,1,.19.72c-.29.07-.58.14-.86.23Z"/><path class="cls-4" d="M959.84,613.35l-.7.91Z"/><path class="cls-4" d="M978.59,655.15a1.12,1.12,0,0,1,.63,1.36Z"/><path class="cls-4" d="M971.1,653.7l-1-.83Z"/><path class="cls-4" d="M970.14,652.89,969,652Z"/><path class="cls-4" d="M880.16,380.84l-.95.67Z"/><path class="cls-4" d="M968.35,645.83l.87.59Z"/><path class="cls-4" d="M962.83,643l.92.61Z"/><path class="cls-4" d="M960.07,642l1.41.59Z"/><path class="cls-4" d="M952.71,639.27l1.3.57Z"/><path class="cls-4" d="M954.55,382.57l-1.17-.76Z"/><path class="cls-4" d="M950,638.4l1.2.55Z"/><path class="cls-4" d="M945.16,633.56l-.72.93Z"/><path class="cls-4" d="M949.82,627.13l-.77,1C949.31,627.79,949.56,627.46,949.82,627.13Z"/><path class="cls-4" d="M947.85,629.9l-.67.87Z"/><path class="cls-4" d="M971.24,705.67l.51,1.39Z"/><path class="cls-4" d="M970.83,703.42c0,.29.09.59.13.89a4.14,4.14,0,0,1-.36-.6C970.58,703.65,970.75,703.52,970.83,703.42Z"/><path class="cls-4" d="M969.48,699.08c.18.51.36,1,.53,1.54Z"/><path class="cls-4" d="M967.5,694.88c.25.38.49.77.74,1.16Z"/><path class="cls-4" d="M966.49,693.28l.69.91Z"/><path class="cls-5" d="M904.82,686.86l1,1C905.26,687.74,904.82,687.53,904.82,686.86Z"/><path class="cls-4" d="M868,472l-.74-1.08Z"/><path class="cls-4" d="M988.34,669.41c-.18.45-.37.9-.56,1.35C988,670.31,988.16,669.86,988.34,669.41Z"/><path class="cls-4" d="M880.67,446.87l1.23-.64Z"/><path class="cls-4" d="M960.13,683.88l.81,1.13Z"/><path class="cls-4" d="M984.65,680.44l-.61,1.15Z"/><path class="cls-4" d="M985.62,677.68,985,679Z"/><path class="cls-4" d="M859.09,495.24c.19.45.39.89.58,1.33Z"/><path class="cls-4" d="M879.54,438.82l-1.26.71Z"/><path class="cls-4" d="M981.39,675.81c.19-.45.38-.89.58-1.34C981.77,674.92,981.58,675.36,981.39,675.81Z"/><path class="cls-4" d="M909.48,436.71l-1.45-.6Z"/><path class="cls-4" d="M982.27,673.05c.2-.47.39-.95.59-1.43C982.66,672.1,982.47,672.58,982.27,673.05Z"/><path class="cls-4" d="M889.86,436.12l-1.53.59Z"/><path class="cls-4" d="M955.27,669.41c-.18.38-.36.76-.53,1.14C954.91,670.17,955.09,669.79,955.27,669.41Z"/><path class="cls-4" d="M893.86,435.8l-.44.14-.45-.07C893.24,435.43,893.54,435.39,893.86,435.8Z"/><path class="cls-11" d="M1138.48,668.23l2.57,3C1138.93,671.3,1138.19,670.21,1138.48,668.23Z"/><path class="cls-6" d="M974.75,584.87c-8.7-.87-17.23-5.58-26.17-1-2.4,1.24-4.63,2.7-7.57,3-5.44.52-9.59-1.14-12.27-5.9-1.34-2.39-2.39-5-3.57-7.44-1.41-3-3.13-5.58-6.66-6.34-3.73-.8-6.3-3.58-9.38-5.51.84-3.93-2.89-6.93-2.21-10.83,3.1-.75,5.77-2.89,9.11-2.85,4.07.55,8.22.77,12.2,1.7,16.83,3.95,32,1.15,45.16-10.51,2.15-1.9,2.6-2.91-.06-4.62-3.58-2.31-7-4.89-10.41-7.42-3.64-2.68-7.58-3.81-12-2.65.28-6.62-2.51-12.74-3.18-19.21,4.35.64,8.59,1.16,12.67-1.41,7.32-4.61,7.54-11.72,0-16.71a12.46,12.46,0,0,1-5.93-8.46c2.54,0,4.17,2.46,6.56,2.32l0,0,1.84,1.09A29.36,29.36,0,0,0,984,479.37c.31-.37.61-.75.91-1.12l0,0a5.15,5.15,0,0,0,1.29-.43c5.22-3.42,5.77-3.12,6.3,3.28s-.76,12.44-2.65,18.47a47.81,47.81,0,0,0-.95,23l2.6-4.85c3.36,11.87,3.78,22.73-.52,33.42-3.65,9.06-7.66,18-11.54,26.94A18.34,18.34,0,0,1,974.75,584.87ZM964,562.81c-8.48-6.78-20.74-4.95-25.57,4.66C946.87,560.77,955.21,560.34,964,562.81Zm18-12.26c5.94-7.78,4.27-22.68-3-28.63,1.73,5.08,3.52,9.26,4,13.77S982.94,544.88,982,550.55Z"/><path class="cls-6" d="M882,491.68l3.46.82c7,3.8,13.88,2.88,20.62-.42,4.18-2,7.23-5.46,9.73-9.35,1.62-3.52,3.38-7,4.8-10.59,1.22-3.07,2.56-4.07,5.06-1.22,1.6,1.82,3.26,3.58,4.89,5.37,0,1.94,0,3.88.12,5.81.27,4-1,7-5.2,8.2-4.43,2-8.19,4.61-8.87,10-3.86,1.75-3.89,5.89-5.36,9-3.73,7.94-6.53,16.22-6.24,25.21-1.06,4.17-2.07,8.35-1.93,12.7-4,.08-4.85-3-5.84-5.93-1.72-5.1-2.54-5.27-6.32-1.82-1.34,1.22-2.33,3.93-4.68,2.66-1.76-1-2.1-3.36-2.13-5.31,0-2.62,1.87-3.57,4.2-3.87a15.63,15.63,0,0,0,1.77-.41c1.4-.34,3.61.78,4.06-1s-1.62-2.7-3-3.59c-13.16-8.6-21.19-20.6-24-36.09q-.43-2.46-.84-4.92c0-.13.13-.27.39-.8,3.8,2.92,7.46,6.1,12.54,6.43C880.47,492.65,881.42,492.89,882,491.68Z"/><path class="cls-8" d="M905,534.48c-.29-9,2.51-17.27,6.24-25.21,1.47-3.12,1.5-7.26,5.36-9,1.62,9.55,6.18,12.09,16,9.71,3.82-.93,6.49-4.7,10.83-4-2.49,6.17-1.18,12.91-2.82,19.21C928.39,528.41,922.85,538.9,916,548c-3.34,0-6,2.1-9.11,2.85-1.6-4.57-.89-9.18-.32-13.82C906.7,536.26,908.36,533.57,905,534.48Z"/><path class="cls-6" d="M929.71,449.8c5.48-1.89,8.72-1.16,9.52,3.26,2.19,12,8.59,22.37,12.07,33.83,1.77,5.82-.5,10.25-5.93,11.43-.4-2.08-2.39-2.7-3.73-3.81a9.05,9.05,0,0,1-3.63-6.59,50.63,50.63,0,0,0-4.13-15.84C930.93,464.92,929.2,457.59,929.71,449.8Z"/><path class="cls-8" d="M984,479.37a29.36,29.36,0,0,1-21.24,2.73c.09-1.3-.18-1.46-1.84-1.09l0,0c.48-2.19-1.6-2.72-2.64-3.8a42.57,42.57,0,0,1-10.13-16.66c11.79,9.29,18.49,10.83,25.65,5.72-5.25,1.05-9.92,1.75-13.91-1.73l.37-.41c4.4.26,8.82.79,13.09-.93.55-.22,1.37-.61,1.72-.39,4.6,3,7.39-.24,10.25-3.21a23.28,23.28,0,0,0,1.39,4.14c2.78,4.94,2.94,9.4-1.86,13.25-.2.17,0,.83,0,1.26l0,0a.85.85,0,0,0-1.34.22C983.47,478.61,983.85,479.06,984,479.37Z"/><path class="cls-8" d="M929.71,449.8c-.51,7.79,1.22,15.12,4.17,22.28A50.63,50.63,0,0,1,938,487.92a9.05,9.05,0,0,0,3.63,6.59c1.34,1.11,3.33,1.73,3.73,3.81-3.89.81-6.72-1.45-9.51-3.5-2.26-1.66-3.77-2.79-4.21,1.36s-4.8,4.61-7.3,6.75c-1.33,1.13-2.68-.94-3-2.85-.7-4.2,2.54-6.62,4.16-9.78,4.21-1.17,5.47-4.16,5.2-8.2-.14-1.93-.09-3.87-.12-5.81-.43-4.31-2.85-8-3.94-12.07a37.32,37.32,0,0,1-1.68-8.46C924.86,452.32,926.14,450.22,929.71,449.8Z"/><path class="cls-8" d="M950.44,450.68c6.43-4.17,12.9-7.86,20.77-4.52,2.74,1.16,5.48,2.46,7.56,6.87-12.31-8.39-21.83-3.72-30.92,3.56-1.31-5.22-.51-7.76,3.43-10.82,8.08-6.29,17.46-7.59,27.31-7a2.36,2.36,0,0,1,2.58,2.52c.14,2.26.44,4.51.74,7.39-5.39-4.86-10.91-8.81-18.2-7A24.47,24.47,0,0,0,950.44,450.68Zm-1.46.86-.59,1c.22.07.5.26.65.18a1.23,1.23,0,0,0,.52-.62C949.59,452,949.26,451.8,949,451.54Z"/><path class="cls-6" d="M940.68,525.21c1.64-6.3.33-13,2.82-19.21h1.8a89.53,89.53,0,0,0,2,20.18Z"/><path class="cls-8" d="M947.32,526.17a89.53,89.53,0,0,1-2-20.18l2.39-.68c.67,6.47,3.46,12.59,3.18,19.21A6,6,0,0,1,947.32,526.17Z"/><path class="cls-9" d="M965.54,460.91c2.59-3,3.77-5.57,3.56-9.24,2.58,1.63,5.76,3.11,5.12,5.53C973.3,460.63,969.23,459.66,965.54,460.91Z"/><path class="cls-6" d="M960.5,493a6.15,6.15,0,0,1,.07,6C956.88,496.3,956.88,496.3,960.5,493Z"/><path class="cls-2" d="M891.45,462.57c.12-2.06.5-3.15,1.89-3.44.29-.06,1,.39,1,.62C894.39,461.42,893.17,461.86,891.45,462.57Z"/><path class="cls-8" d="M959.93,464.58l-1.14-.6c.59-.58,1.07-.37,1.5.2Z"/><path class="cls-8" d="M900.07,473.38l1.17-.65,0-.05c.28.6-.06,1-.49,1.33C900.49,473.81,900.27,473.6,900.07,473.38Z"/><path class="cls-8" d="M901.24,472.73a1.49,1.49,0,0,1,.2-.29s.15,0,.22,0c-.15.09-.31.17-.47.25Z"/><path class="cls-4" d="M905,534.48c3.32-.91,1.66,1.78,1.56,2.57-.57,4.64-1.28,9.25.32,13.82-.68,3.9,3.05,6.9,2.21,10.83-4.22-3.92-4.82-9.35-6-14.52C903,542.83,904,538.65,905,534.48Z"/><path class="cls-2" d="M872.88,523.11c-.12,1.86-.63,3.35-3,2.68-.9-.26-1.73-.95-1.31-2,1-2.43,2.89-.24,4.3-.69Z"/><path class="cls-2" d="M883.49,472.32c.59-.24,1.18-.85,1.79,0,.07.86.23,1.94-1,1.9S883.14,473.2,883.49,472.32Z"/><path class="cls-4" d="M947.32,526.17a6,6,0,0,0,3.55-1.65c4.47-1.16,8.41,0,12,2.65,3.43,2.53,6.83,5.11,10.41,7.42,2.66,1.71,2.21,2.72.06,4.62-13.2,11.66-28.33,14.46-45.16,10.51-4-.93-8.13-1.15-12.2-1.7,6.82-9.12,12.36-19.61,24.65-22.81Zm-20.86,18c15.85,3.72,29.21.53,42.78-6.81-7.11-1.35-13.25-4-19.57-.51a2.66,2.66,0,0,1-1.79.1C939.53,534.75,933.86,540.17,926.46,544.2Zm-1.94-1.77c13.29-11.43,28.07-12.67,44.06-7.45-2.73-2.35-5.63-4.05-8.19-6.16-6.38-5.27-13,2.92-19.55-.49-1.48-.77-4.07.72-5.87,2C930.58,533.45,927.64,537.85,924.52,542.43Z"/><path class="cls-4" d="M964,562.81c-8.8-2.47-17.14-2-25.57,4.66C943.27,557.86,955.53,556,964,562.81Z"/><path class="cls-4" d="M982,550.55c1-5.67,1.44-10.25,1-14.86s-2.25-8.69-4-13.77C986.26,527.87,987.93,542.77,982,550.55Z"/><path class="cls-4" d="M960.92,481c1.66-.37,1.93-.21,1.84,1.09Z"/><path class="cls-4" d="M984,479.37c-.15-.31-.53-.76-.43-.9a.85.85,0,0,1,1.34-.22C984.61,478.62,984.31,479,984,479.37Z"/><path class="cls-4" d="M949,451.54c.28.26.61.48.58.56a1.23,1.23,0,0,1-.52.62c-.15.08-.43-.11-.65-.18Z"/><path class="cls-8" d="M926.46,544.2c7.4-4,13.07-9.45,21.42-7.22a2.66,2.66,0,0,0,1.79-.1c6.32-3.5,12.46-.84,19.57.51C955.67,544.73,942.31,547.92,926.46,544.2Z"/><path class="cls-8" d="M924.52,542.43c3.12-4.58,6.06-9,10.45-12.1,1.8-1.28,4.39-2.77,5.87-2,6.56,3.41,13.17-4.78,19.55.49,2.56,2.11,5.46,3.81,8.19,6.16C952.59,529.76,937.81,531,924.52,542.43Z"/><path class="cls-3" d="M1021,478.17l.07,0L1019.7,494l8-1.28-1.75,5.57h-10l-.13-23.47Zm-3.65,18.67a.32.32,0,0,0,.23.34l.29.2a1.39,1.39,0,0,1,.25.23,6.07,6.07,0,0,1,.75,0,4.31,4.31,0,0,0,.81,0,1.3,1.3,0,0,0,.65-.26.89.89,0,0,0,.27-.72v-.47c0-.25-.11-.37-.34-.37s-.33.12-.33.37,0,.37,0,.58-.16.3-.41.25a2.9,2.9,0,0,0-.43,0,3,3,0,0,1-.42,0,1.12,1.12,0,0,1-.39-.08.39.39,0,0,1-.23-.3c0-.61,0-1.21,0-1.83a3.42,3.42,0,0,1,.54-1.73c0-.24,0-.5.07-.77a5.08,5.08,0,0,0,0-.78,2.6,2.6,0,0,0-.19-.74,1.71,1.71,0,0,0-.45-.62,1.66,1.66,0,0,1,0-1.36,1.63,1.63,0,0,1,1-.92.3.3,0,0,0,.2-.3,4.21,4.21,0,0,1,0-.71,4.33,4.33,0,0,0,0-.72,1.55,1.55,0,0,0-.19-.62,1.1,1.1,0,0,0-.55-.44.54.54,0,0,0-.27-.06.15.15,0,0,1-.17-.17,2,2,0,0,1,0-1.33,1.53,1.53,0,0,1,.91-.92,1.21,1.21,0,0,0,.25-.67,1.35,1.35,0,0,0-.13-.65,2.86,2.86,0,0,0-.39-.61c-.15-.18-.31-.36-.47-.52a1.91,1.91,0,0,1-.08-.45,1.27,1.27,0,0,1,.05-.48.67.67,0,0,1,.23-.37.75.75,0,0,1,.47-.14l.24,0a.28.28,0,0,0,.27-.07.42.42,0,0,0,.11-.22.33.33,0,0,0-.06-.23.38.38,0,0,0-.25-.15,1.32,1.32,0,0,0-1.13.21,1.68,1.68,0,0,0-.55.91,2.12,2.12,0,0,0,.05,1.14,1.48,1.48,0,0,0,.72.89.56.56,0,0,1,.22.4,2.47,2.47,0,0,1,0,.47,1.68,1.68,0,0,0-.75.62,2.77,2.77,0,0,0-.41.91,2.69,2.69,0,0,0,0,1,1.76,1.76,0,0,0,.42.88,1.91,1.91,0,0,0,.4.23,1.28,1.28,0,0,1,.4.27.4.4,0,0,1,0,.13v1.24a1.94,1.94,0,0,0-.84.66,2.44,2.44,0,0,0-.44,1,2.77,2.77,0,0,0,0,1.11,1.81,1.81,0,0,0,.53.92,3.39,3.39,0,0,1,0,1.7,7.32,7.32,0,0,1-.55,1.59,6.38,6.38,0,0,0,0,1.07,9.55,9.55,0,0,1,0,1.07.14.14,0,0,1,0,.07.14.14,0,0,0,0,.1Q1017.24,496.75,1017.32,496.84Z"/><path class="cls-3" d="M1029.79,480.78l2.52-3.22-.14-.1,2.48-2.61,6.71,1.2,4.36,5.5v4.56l-.54,8.08-5.63,4.13h-6.61l-3.38-4.33-.31-9.08Zm3.92-.63v0h0v0l-.07.07a.43.43,0,0,0-.31.17.43.43,0,0,1-.39.13,5.14,5.14,0,0,0-1.14.5,1.11,1.11,0,0,0-.54,1.08,2.56,2.56,0,0,0,0,1.32,1.29,1.29,0,0,0,.82,1,1.39,1.39,0,0,0,0,.52.27.27,0,0,1-.18.38,5.51,5.51,0,0,0-.64,1,4.71,4.71,0,0,0-.42,1.21,2.47,2.47,0,0,0,0,1.15,1.46,1.46,0,0,0,.72.89l.4.47,0-.07a1,1,0,0,1,.27.67c0,.25,0,.5,0,.74a.74.74,0,0,0-.37.47.37.37,0,0,0,0,.24c-.09.2-.19.4-.3.62a2,2,0,0,0-.22.63,1.29,1.29,0,0,0,0,.62,1,1,0,0,0,.47.51,2.3,2.3,0,0,0,.75.31l.76.19a3.84,3.84,0,0,1,.13.72,3.68,3.68,0,0,0,.14.75,1.65,1.65,0,0,0,.3.64,1,1,0,0,0,.67.34h.67a3.23,3.23,0,0,0,.7,0,1.28,1.28,0,0,0,.59-.23,1,1,0,0,0,.35-.59v-.71q0-.36-.33-.36c-.23,0-.34.12-.34.36v.51a.43.43,0,0,1-.23.37,1.51,1.51,0,0,0-.52,0,2.71,2.71,0,0,1-.57,0,1.37,1.37,0,0,1-.47-.15.55.55,0,0,1-.22-.46,3.06,3.06,0,0,0,0-.73,2.2,2.2,0,0,0-.27-.73,1.38,1.38,0,0,0-.51-.48,1,1,0,0,0-.73-.07,1.34,1.34,0,0,1-.56-.3.43.43,0,0,1-.08-.6,3.25,3.25,0,0,1,.39-.62,1,1,0,0,0,.18-.66l0,0a.08.08,0,0,0,.07,0,.27.27,0,0,0,.2-.3,2.8,2.8,0,0,0-.18-1.66,2.28,2.28,0,0,0-1.16-1.19,3.17,3.17,0,0,1,.15-1.72,3.36,3.36,0,0,1,1-1.43,1,1,0,0,0,.1-.65,1.83,1.83,0,0,1,0-.66.26.26,0,0,0-.13-.33,4.29,4.29,0,0,1-.59-.39.6.6,0,0,1-.22-.62c0-.31.1-.64.17-1a.77.77,0,0,1,.7-.62l1-.35a.9.9,0,0,0,.65-.75v-.54a.78.78,0,0,0-.17-.5.66.66,0,0,0,0-.14.59.59,0,0,1,0-.13,1.8,1.8,0,0,1,0-.22,1.7,1.7,0,0,0,0-.22,2.54,2.54,0,0,1,.41-.67,9,9,0,0,1,1.5-.08,1.67,1.67,0,0,1,1.31.62h.2c.25,0,.37-.11.37-.34s-.12-.33-.37-.33h0s0,0,0,0a2,2,0,0,0-1.55-.6,13.16,13.16,0,0,0-1.74.17,2.87,2.87,0,0,0-.69,1.16,1.69,1.69,0,0,0,.12,1.32v.47Zm8.12,3.05-5.9-3.59-2.45,6.77,1.57,8,5.7-.54Z"/><path class="cls-3" d="M1049.71,477.23l10.59-3.15.47,7.47-7.17-1.74,8.18,9.12-4,8.65-9.69.74,3.22-6.71,4,2.25,1.24-5.6-5.93-3-2.85-4.67Zm4,.33a4.91,4.91,0,0,0-1.55.12,2.83,2.83,0,0,0-1.24.67,2,2,0,0,0-.55,1.43,2.7,2.7,0,0,0,.1,1.1,1.06,1.06,0,0,0,.84.71c.2,0,.4.1.6.16a2.27,2.27,0,0,1,.54.27,1.07,1.07,0,0,1,.35.44.92.92,0,0,1,0,.64,4.66,4.66,0,0,1-.07,1.12,3.5,3.5,0,0,0,0,1.12,1.49,1.49,0,0,0,1,.67,7.32,7.32,0,0,0,1.24.1c.45,0,.89,0,1.31.07a2,2,0,0,1,1.14.5.26.26,0,0,0,.2.07,2.29,2.29,0,0,0,.24.47.48.48,0,0,1,0,.47,3.39,3.39,0,0,1-.13,1.12c-.12.39-.22.78-.3,1.16a3.88,3.88,0,0,0-.11,1.11,1.57,1.57,0,0,0,.51,1,2.64,2.64,0,0,1,0,1.31,1.62,1.62,0,0,1-.84,1,3.08,3.08,0,0,1-.92.43,4.89,4.89,0,0,1-1,.17.28.28,0,0,0-.25.12.33.33,0,0,0-.07.25.32.32,0,0,0,.12.22.41.41,0,0,0,.27.08,3,3,0,0,0,1.54-.27,3.56,3.56,0,0,0,1.24-.92,3,3,0,0,0,.65-1.34,2.38,2.38,0,0,0-.25-1.56,1.36,1.36,0,0,1-.3-.92,4.3,4.3,0,0,1,.18-1c.1-.34.2-.67.31-1a2.12,2.12,0,0,0,.05-1,1.23,1.23,0,0,0-.09-.71c-.1-.22-.2-.44-.32-.67s-.25-.26-.43-.17a2.62,2.62,0,0,0-1-.48,6.77,6.77,0,0,0-1.1-.15c-.37,0-.74,0-1.12-.05a3.48,3.48,0,0,1-1.11-.22.65.65,0,0,1,0-.59.84.84,0,0,0,.07-.58c0-.25,0-.52.07-.81a3.15,3.15,0,0,0,0-.82,1.68,1.68,0,0,0-.32-.69,1.53,1.53,0,0,0-.67-.47.89.89,0,0,0-.39-.2l-.47-.12a1.18,1.18,0,0,1-.38-.16.37.37,0,0,1-.13-.39,1.71,1.71,0,0,1,0-.84,1.57,1.57,0,0,1,.38-.72,1.74,1.74,0,0,1,.67-.47,1.51,1.51,0,0,1,.82-.08,6.15,6.15,0,0,1,2.11.17.31.31,0,0,0,.39-.26.57.57,0,0,0,0-.25.3.3,0,0,0-.22-.17C1054.79,477.68,1054.29,477.61,1053.75,477.56Z"/><path class="cls-3" d="M1024.53,509.08l5.39,2.31-.77,10.66-8.65,3.86v7.41h-4.16l-.3-21.93Zm-6.86,16.14c.14.15.3.29.47.44a3.11,3.11,0,0,1,.44.45.78.78,0,0,1,.11.64.71.71,0,0,1-.23.37c-.11.09-.23.17-.35.25a2.3,2.3,0,0,0-.34.25.57.57,0,0,0-.18.37,3.06,3.06,0,0,0-.32,1.59,4.79,4.79,0,0,0,.35,1.56,2.08,2.08,0,0,0,1.12.17,1.41,1.41,0,0,0,1-.54.33.33,0,1,0-.53-.4.61.61,0,0,1-.54.27,2.78,2.78,0,0,1-.57,0c-.05-.27-.09-.54-.12-.84a3.74,3.74,0,0,1,0-.82,1.94,1.94,0,0,1,.25-.72,1.45,1.45,0,0,1,.61-.53,1.51,1.51,0,0,0,.5-.76,1.6,1.6,0,0,0,0-.84,2.05,2.05,0,0,0-.46-.77,2.65,2.65,0,0,0-.68-.55.22.22,0,0,1,0-.1.35.35,0,0,0,0-.14,9.47,9.47,0,0,1,0-1.32,1.47,1.47,0,0,1,.74-1.06,2.47,2.47,0,0,0,.45-1,2.82,2.82,0,0,0,0-1,2.53,2.53,0,0,0-.37-.94,2.14,2.14,0,0,0-.76-.7.81.81,0,0,1-.15-.52c0-.19,0-.38,0-.55a.9.9,0,0,1,.44-.29,1.51,1.51,0,0,0,.47-.25.2.2,0,0,0,.1-.12.4.4,0,0,0,0-.15,2.43,2.43,0,0,1,0-.54,4,4,0,0,0,0-.6,1.21,1.21,0,0,0-.14-.52.69.69,0,0,0-.41-.32.79.79,0,0,1-.41-.53,1.27,1.27,0,0,1,0-.67,1,1,0,0,1,.42-.54,1,1,0,0,1,.67-.17,3.06,3.06,0,0,1,.74,0,1.88,1.88,0,0,1,.7.2.34.34,0,0,0,.26,0,.33.33,0,0,0,.16-.17.36.36,0,0,0,0-.25.28.28,0,0,0-.17-.2A3.08,3.08,0,0,0,1020,512a3.16,3.16,0,0,0-1.16.12,2,2,0,0,0-.9.58,1.64,1.64,0,0,0-.37,1.13,1.54,1.54,0,0,0,.27.92c.2.32.42.49.67.49a2.43,2.43,0,0,1,0,.6c0,.2,0,.4,0,.6a3.1,3.1,0,0,0-.84.51.78.78,0,0,0-.23.9,1.06,1.06,0,0,0,.13.84,5.38,5.38,0,0,0,.54.64,4.35,4.35,0,0,1,.52.63,1,1,0,0,1,.08.84,1.25,1.25,0,0,1-.25.67c-.14.2-.3.4-.45.59a4,4,0,0,0-.42.6,1.27,1.27,0,0,0-.15.72v1.11s0,.1,0,.17A.83.83,0,0,0,1017.67,525.22Zm2.83-11.05v6.47l6.17-4.09Z"/><path class="cls-3" d="M1031.7,515.78l2.52-3.22-.14-.1,2.48-2.61,6.71,1.2,4.36,5.5v4.56l-.54,8.08-5.63,4.13h-6.61l-3.38-4.33-.3-9.08Zm3.93-.63v0h0v0l-.07.07a.43.43,0,0,0-.31.17.42.42,0,0,1-.39.13,5.14,5.14,0,0,0-1.14.5,1.11,1.11,0,0,0-.54,1.08,2.56,2.56,0,0,0-.05,1.32,1.28,1.28,0,0,0,.83,1,1.19,1.19,0,0,0,0,.52.27.27,0,0,1-.18.38,5.51,5.51,0,0,0-.64,1,4.71,4.71,0,0,0-.42,1.21,2.61,2.61,0,0,0,0,1.15,1.46,1.46,0,0,0,.72.89l.4.47,0-.07a1,1,0,0,1,.27.67c0,.25,0,.5,0,.74a.74.74,0,0,0-.37.47.37.37,0,0,0,0,.24c-.09.2-.19.4-.3.62a2,2,0,0,0-.22.63,1.29,1.29,0,0,0,0,.62,1,1,0,0,0,.47.51,2.39,2.39,0,0,0,.75.31l.76.19a3.18,3.18,0,0,1,.13.72,3.68,3.68,0,0,0,.14.75,1.8,1.8,0,0,0,.3.64,1,1,0,0,0,.67.34h.67a3.2,3.2,0,0,0,.7,0,1.28,1.28,0,0,0,.59-.23,1,1,0,0,0,.35-.59v-.71q0-.36-.33-.36c-.23,0-.34.12-.34.36v.51a.43.43,0,0,1-.23.37,1.51,1.51,0,0,0-.52,0,2.71,2.71,0,0,1-.57,0,1.37,1.37,0,0,1-.47-.15.58.58,0,0,1-.22-.46,3.06,3.06,0,0,0,0-.73,2.2,2.2,0,0,0-.27-.73,1.35,1.35,0,0,0-.5-.48,1,1,0,0,0-.74-.07,1.4,1.4,0,0,1-.56-.3.44.44,0,0,1-.08-.6,3.25,3.25,0,0,1,.39-.62,1,1,0,0,0,.18-.66l0,0a.07.07,0,0,0,.06,0,.27.27,0,0,0,.2-.3,2.8,2.8,0,0,0-.18-1.66,2.28,2.28,0,0,0-1.16-1.19,3.17,3.17,0,0,1,.15-1.72,3.45,3.45,0,0,1,1-1.43,1,1,0,0,0,.1-.65,1.83,1.83,0,0,1,0-.66.26.26,0,0,0-.13-.33,4.29,4.29,0,0,1-.59-.39.6.6,0,0,1-.22-.62c0-.31.1-.64.17-1a.77.77,0,0,1,.71-.62l1-.35a.89.89,0,0,0,.65-.75v-.54a.78.78,0,0,0-.17-.5.66.66,0,0,0,0-.14.59.59,0,0,1,0-.13,1.8,1.8,0,0,1,0-.22,1.7,1.7,0,0,0,0-.22,2.54,2.54,0,0,1,.41-.67,9.12,9.12,0,0,1,1.51-.08,1.66,1.66,0,0,1,1.3.62h.2c.25,0,.37-.11.37-.34s-.12-.33-.37-.33h0s0,0,0,0a2,2,0,0,0-1.54-.6,13.15,13.15,0,0,0-1.75.17,2.87,2.87,0,0,0-.69,1.16,1.69,1.69,0,0,0,.12,1.32v.47Zm8.11,3.05-5.9-3.59-2.45,6.77,1.58,8,5.7-.54Z"/><path class="cls-3" d="M1054.34,513.17l.06,0L1053.06,529l8-1.28-1.75,5.57h-9.95l-.14-23.47Zm-3.66,18.67a.32.32,0,0,0,.23.34l.29.2a1.39,1.39,0,0,1,.25.23,6.24,6.24,0,0,1,.76,0,4.25,4.25,0,0,0,.8,0,1.26,1.26,0,0,0,.65-.26.89.89,0,0,0,.27-.72v-.47c0-.25-.11-.37-.33-.37s-.34.12-.34.37,0,.37,0,.58-.16.3-.4.25a3,3,0,0,0-.44,0,3.1,3.1,0,0,1-.42,0,1.12,1.12,0,0,1-.38-.08.38.38,0,0,1-.24-.3c0-.61,0-1.21,0-1.83a3.62,3.62,0,0,1,.54-1.73c0-.24,0-.5.07-.77a5.08,5.08,0,0,0,0-.78,2.6,2.6,0,0,0-.19-.74,1.71,1.71,0,0,0-.45-.62,1.66,1.66,0,0,1,.05-1.36,1.63,1.63,0,0,1,1-.92.3.3,0,0,0,.2-.3,4.21,4.21,0,0,1,0-.71,4.33,4.33,0,0,0,0-.72,1.55,1.55,0,0,0-.18-.62,1.13,1.13,0,0,0-.56-.44.48.48,0,0,0-.26-.06.15.15,0,0,1-.17-.17,1.9,1.9,0,0,1,0-1.33,1.52,1.52,0,0,1,.9-.92,1.21,1.21,0,0,0,.25-.67,1.25,1.25,0,0,0-.13-.65,2.86,2.86,0,0,0-.39-.61c-.15-.18-.31-.36-.46-.52a1.57,1.57,0,0,1,0-.93.69.69,0,0,1,.24-.37.71.71,0,0,1,.47-.14l.23,0a.28.28,0,0,0,.27-.07.44.44,0,0,0,.12-.22.35.35,0,0,0-.07-.23.38.38,0,0,0-.25-.15,1.32,1.32,0,0,0-1.13.21,1.68,1.68,0,0,0-.55.91,2.12,2.12,0,0,0,0,1.14,1.48,1.48,0,0,0,.72.89.53.53,0,0,1,.22.4,1.85,1.85,0,0,1,0,.47,1.68,1.68,0,0,0-.75.62,2.56,2.56,0,0,0-.4.91,2.49,2.49,0,0,0,0,1,1.76,1.76,0,0,0,.42.88,1.91,1.91,0,0,0,.4.23,1.46,1.46,0,0,1,.41.27.66.66,0,0,1,0,.13v1.24a2.06,2.06,0,0,0-.84.66,2.29,2.29,0,0,0-.43,1,2.6,2.6,0,0,0,0,1.11,1.76,1.76,0,0,0,.54.92,3.63,3.63,0,0,1,0,1.7,7.93,7.93,0,0,1-.56,1.59,6.38,6.38,0,0,0,0,1.07,9.55,9.55,0,0,1,0,1.07.14.14,0,0,1,0,.07.14.14,0,0,0,0,.1Q1050.61,531.75,1050.68,531.84Z"/><path class="cls-3" d="M1067.65,513.17l.06,0L1066.37,529l8.05-1.28-1.75,5.57h-10l-.14-23.47ZM1064,531.84a.32.32,0,0,0,.23.34l.29.2a1.39,1.39,0,0,1,.25.23,6.24,6.24,0,0,1,.76,0,4.21,4.21,0,0,0,.8,0,1.23,1.23,0,0,0,.65-.26.89.89,0,0,0,.27-.72v-.47c0-.25-.11-.37-.33-.37s-.34.12-.34.37,0,.37,0,.58-.16.3-.4.25a3,3,0,0,0-.44,0,3.1,3.1,0,0,1-.42,0,1.12,1.12,0,0,1-.38-.08.4.4,0,0,1-.24-.3c0-.61,0-1.21,0-1.83a3.62,3.62,0,0,1,.54-1.73c0-.24,0-.5.07-.77a5.08,5.08,0,0,0,0-.78,2.31,2.31,0,0,0-.19-.74,1.71,1.71,0,0,0-.45-.62,1.66,1.66,0,0,1,0-1.36,1.63,1.63,0,0,1,1-.92.28.28,0,0,0,.2-.3,4.21,4.21,0,0,1,0-.71,4.33,4.33,0,0,0,0-.72,1.55,1.55,0,0,0-.18-.62,1.13,1.13,0,0,0-.56-.44.48.48,0,0,0-.26-.06.15.15,0,0,1-.17-.17,1.9,1.9,0,0,1,0-1.33,1.52,1.52,0,0,1,.9-.92,1.21,1.21,0,0,0,.25-.67,1.25,1.25,0,0,0-.13-.65,3.26,3.26,0,0,0-.38-.61l-.47-.52a1.57,1.57,0,0,1,0-.93.69.69,0,0,1,.24-.37.73.73,0,0,1,.47-.14l.23,0a.28.28,0,0,0,.27-.07.44.44,0,0,0,.12-.22.35.35,0,0,0-.07-.23.38.38,0,0,0-.25-.15,1.29,1.29,0,0,0-1.12.21,1.64,1.64,0,0,0-.56.91,2.12,2.12,0,0,0,0,1.14,1.48,1.48,0,0,0,.72.89.53.53,0,0,1,.22.4,1.85,1.85,0,0,1,0,.47,1.68,1.68,0,0,0-.75.62,2.75,2.75,0,0,0-.4.91,2.49,2.49,0,0,0,0,1,1.2,1.2,0,0,0,.83,1.11,1.41,1.41,0,0,1,.4.27.66.66,0,0,1,0,.13v1.24a2.06,2.06,0,0,0-.84.66,2.29,2.29,0,0,0-.43,1,2.6,2.6,0,0,0,0,1.11,1.76,1.76,0,0,0,.54.92,3.63,3.63,0,0,1,0,1.7,7.93,7.93,0,0,1-.56,1.59,6.38,6.38,0,0,0,0,1.07,9.55,9.55,0,0,1,0,1.07.14.14,0,0,1,0,.07.14.14,0,0,0,0,.1A.38.38,0,0,0,1064,531.84Z"/><path class="cls-3" d="M1076.46,515.78l2.52-3.22-.14-.1,2.49-2.61,6.7,1.2,4.36,5.5v4.56l-.54,8.08-5.63,4.13h-6.6l-3.39-4.33-.3-9.08Zm3.93-.63v0h0v0l-.06.07a.43.43,0,0,0-.32.17.42.42,0,0,1-.39.13,5.14,5.14,0,0,0-1.14.5,1.09,1.09,0,0,0-.53,1.08,2.36,2.36,0,0,0-.05,1.32,1.27,1.27,0,0,0,.82,1,1.07,1.07,0,0,0,0,.52.28.28,0,0,1-.19.38,5.5,5.5,0,0,0-.63,1,4.06,4.06,0,0,0-.42,1.21,2.47,2.47,0,0,0,0,1.15,1.46,1.46,0,0,0,.72.89l.4.47,0-.07a1,1,0,0,1,.27.67,6,6,0,0,1,0,.74.73.73,0,0,0-.36.47.33.33,0,0,0,0,.24c-.09.2-.19.4-.3.62a2.26,2.26,0,0,0-.22.63,1.43,1.43,0,0,0,0,.62,1,1,0,0,0,.47.51,2.35,2.35,0,0,0,.76.31l.75.19a3.83,3.83,0,0,1,.14.72,3.68,3.68,0,0,0,.13.75,2,2,0,0,0,.3.64,1,1,0,0,0,.67.34h.67a3.32,3.32,0,0,0,.71,0,1.25,1.25,0,0,0,.58-.23,1,1,0,0,0,.35-.59v-.71q0-.36-.33-.36c-.22,0-.34.12-.34.36v.51a.41.41,0,0,1-.23.37,1.51,1.51,0,0,0-.52,0,2.71,2.71,0,0,1-.57,0,1.37,1.37,0,0,1-.47-.15.58.58,0,0,1-.22-.46,3.06,3.06,0,0,0,0-.73,2,2,0,0,0-.27-.73,1.35,1.35,0,0,0-.5-.48,1,1,0,0,0-.74-.07,1.31,1.31,0,0,1-.55-.3.43.43,0,0,1-.09-.6,3.25,3.25,0,0,1,.39-.62.9.9,0,0,0,.18-.66l0,0a.07.07,0,0,0,.06,0,.27.27,0,0,0,.2-.3,2.66,2.66,0,0,0-.18-1.66,2.25,2.25,0,0,0-1.16-1.19,3.17,3.17,0,0,1,.15-1.72,3.54,3.54,0,0,1,1-1.43,1,1,0,0,0,.1-.65,1.83,1.83,0,0,1,0-.66.26.26,0,0,0-.13-.33,4.29,4.29,0,0,1-.59-.39.58.58,0,0,1-.21-.62c0-.31.1-.64.16-1a.78.78,0,0,1,.71-.62l1-.35a.89.89,0,0,0,.65-.75v-.54a.83.83,0,0,0-.16-.5.68.68,0,0,0,0-.14.59.59,0,0,1,0-.13,1.8,1.8,0,0,1,0-.22,1.8,1.8,0,0,0,0-.22,2.29,2.29,0,0,1,.4-.67,9.12,9.12,0,0,1,1.51-.08,1.7,1.7,0,0,1,1.31.62h.2c.24,0,.36-.11.36-.34s-.12-.33-.36-.33h0s0,0,0,0a2,2,0,0,0-1.54-.6,13.15,13.15,0,0,0-1.75.17,2.75,2.75,0,0,0-.68,1.16,1.65,1.65,0,0,0,.11,1.32v.47Zm8.11,3.05-5.9-3.59-2.45,6.77,1.58,8,5.7-.54Z"/><path class="cls-3" d="M1096.38,512.23l10.59-3.15.47,7.47-7.17-1.74,8.18,9.12-4,8.65-9.69.74,3.22-6.71,4,2.25,1.24-5.6-5.93-3-2.85-4.67Zm4,.33a4.85,4.85,0,0,0-1.54.12,2.78,2.78,0,0,0-1.24.67,2,2,0,0,0-.56,1.43,2.7,2.7,0,0,0,.1,1.1,1.09,1.09,0,0,0,.84.71c.2,0,.4.1.61.16a2,2,0,0,1,.53.27,1,1,0,0,1,.35.44.92.92,0,0,1,0,.64,4.66,4.66,0,0,1-.07,1.12,4.19,4.19,0,0,0,0,1.12,1.49,1.49,0,0,0,1,.67,7.16,7.16,0,0,0,1.24.1c.44,0,.88,0,1.3.07a2.1,2.1,0,0,1,1.15.5.24.24,0,0,0,.2.07,1.87,1.87,0,0,0,.23.47.48.48,0,0,1,0,.47,3.15,3.15,0,0,1-.13,1.12c-.11.39-.21.78-.3,1.16a3.86,3.86,0,0,0-.1,1.11,1.55,1.55,0,0,0,.5,1,2.64,2.64,0,0,1,0,1.31,1.62,1.62,0,0,1-.84,1,3.08,3.08,0,0,1-.92.43,4.66,4.66,0,0,1-1,.17.29.29,0,0,0-.25.12.33.33,0,0,0-.07.25.32.32,0,0,0,.12.22.46.46,0,0,0,.27.08,3,3,0,0,0,1.54-.27,3.47,3.47,0,0,0,1.24-.92,3,3,0,0,0,.66-1.34,2.39,2.39,0,0,0-.26-1.56,1.36,1.36,0,0,1-.3-.92,4.33,4.33,0,0,1,.19-1l.3-1a2,2,0,0,0,0-1,1.16,1.16,0,0,0-.09-.71l-.31-.67c-.12-.2-.26-.26-.44-.17a2.52,2.52,0,0,0-1-.48,7,7,0,0,0-1.11-.15c-.37,0-.74,0-1.12-.05a3.53,3.53,0,0,1-1.11-.22.62.62,0,0,1,0-.59.83.83,0,0,0,.06-.58c0-.25,0-.52.07-.81a2.77,2.77,0,0,0,0-.82,1.57,1.57,0,0,0-.32-.69,1.47,1.47,0,0,0-.67-.47.91.91,0,0,0-.38-.2l-.47-.12a1.14,1.14,0,0,1-.39-.16.37.37,0,0,1-.13-.39,1.71,1.71,0,0,1,0-.84,1.57,1.57,0,0,1,.38-.72,1.82,1.82,0,0,1,.67-.47,1.55,1.55,0,0,1,.83-.08,6.17,6.17,0,0,1,2.11.17.34.34,0,0,0,.27-.05.36.36,0,0,0,.11-.21.57.57,0,0,0,0-.25.28.28,0,0,0-.22-.17C1101.46,512.68,1101,512.61,1100.42,512.56Z"/><path class="cls-3" d="M1022.51,567.21l-4.09.81-2.58-12.71,1.38-10.46,6,1.47-2.14,4.8,7.41,2.92-.64-4.67-.47-3.52,5.33-1-.17,23.47-5.9-1.14,1.85-8.92-7.72-2.38-.1,1.68h-.16Zm-2.78-20.28a1.39,1.39,0,0,0-1.07.73,1.52,1.52,0,0,0-.5,1.31c0,.52.09,1,.13,1.44a3.15,3.15,0,0,1,.4.54,1.84,1.84,0,0,1,.27.69,1.42,1.42,0,0,1,0,.65.64.64,0,0,1-.45.44,10.3,10.3,0,0,1-.9.55,1.06,1.06,0,0,0-.57.82,2.44,2.44,0,0,0-.26,1.16,3.22,3.22,0,0,0,.26,1.16,1.49,1.49,0,0,0,.41.38l.52.29a4.27,4.27,0,0,1,.51.3,1.69,1.69,0,0,1,.4.4,11.27,11.27,0,0,1,.08,1.74,2.5,2.5,0,0,1-.58,1.58.8.8,0,0,0-.07.34v.3c0,.22.12.33.37.33a2.06,2.06,0,0,0,.55,1.31,1.49,1.49,0,0,0,1.19.54,2.77,2.77,0,0,0,.17.43.34.34,0,0,1-.13.47,3.29,3.29,0,0,1-.32.27,2,2,0,0,1-.32.17l-.37.1a.35.35,0,0,0,.2.67,3,3,0,0,0,.74-.32,2.42,2.42,0,0,0,.62-.52,1.24,1.24,0,0,0,.3-.67,1.12,1.12,0,0,0-.22-.77.56.56,0,0,0-.23-.37,1.13,1.13,0,0,0-.39-.15,3.45,3.45,0,0,1-.43-.12.62.62,0,0,1-.35-.23l-.17-.17a4.28,4.28,0,0,1-.1-.59c0-.19-.06-.38-.1-.58a.32.32,0,0,0-.24-.24,5.06,5.06,0,0,0,.57-2.11,4,4,0,0,0-.43-2.11,3.86,3.86,0,0,0-.88-.56,2.46,2.46,0,0,1-.8-.58c0-.23,0-.45-.07-.67a1.63,1.63,0,0,1,.1-.71.72.72,0,0,0,.2-.43.39.39,0,0,1,.3-.34l.58-.44-.07.07a3.48,3.48,0,0,0,.67-.33.9.9,0,0,0,.37-.61,1.92,1.92,0,0,0-.05-1.09c-.13-.34-.27-.7-.42-1a5,5,0,0,1-.34-1.06,1.48,1.48,0,0,1,.27-1.09.94.94,0,0,0,.37-.37.51.51,0,0,1,.47-.23,2,2,0,0,1,.6-.05,4.15,4.15,0,0,0,.61,0c.24,0,.37-.11.37-.34s-.13-.33-.37-.33A7.18,7.18,0,0,0,1019.73,546.93Zm-2.18,7.64a.51.51,0,0,1,.07-.17Z"/><path class="cls-3" d="M1049.17,546.76l1.51.43-.54,5.24-11.46-3.36,1.44,3.83h6.07v5h-6.07l-.4,6.27,10.76-4.62-.67,6.37-10.19,2.38-3.73-1.58-.87-21.89h7.58Zm-11.68-.57a1.29,1.29,0,0,0-.76.94,1.17,1.17,0,0,0-.23.84,6.76,6.76,0,0,1,0,.9.4.4,0,0,0,0,.15.2.2,0,0,0,.1.12,1.36,1.36,0,0,0,.39.27.37.37,0,0,1,.21.37.47.47,0,0,1,.24.58,2,2,0,0,0-.07.72,3.05,3.05,0,0,0-.69,1.11,3.47,3.47,0,0,0-.18,1.26,2.51,2.51,0,0,0,.37,1.17,2.4,2.4,0,0,0,1,.89c.07.2.14.43.22.69a2.66,2.66,0,0,1,.12.79,1.69,1.69,0,0,1-.15.7,1.23,1.23,0,0,1-.52.54,4.38,4.38,0,0,0-.49.68,3.11,3.11,0,0,0-.32.81,2,2,0,0,0,0,.84,1.23,1.23,0,0,0,.46.72.26.26,0,0,0,.33.1,1.81,1.81,0,0,0,.07.52c0,.17.1.33.15.5a2.31,2.31,0,0,1,.12.52,1.41,1.41,0,0,1,0,.54,6.71,6.71,0,0,0-.25,1,3.25,3.25,0,0,0,0,1.08,2.57,2.57,0,0,0,.4.95,1.78,1.78,0,0,0,.91.64,5.11,5.11,0,0,0,1,.17,8.68,8.68,0,0,0,1,0,.34.34,0,0,0,.15,0,.2.2,0,0,0,.12-.1,2.23,2.23,0,0,0,.42-.67,1.54,1.54,0,0,0,.11-.77c0-.25-.11-.37-.33-.37s-.34.12-.34.37a1.32,1.32,0,0,1-.3.91,3.38,3.38,0,0,1-.9,0,3.12,3.12,0,0,1-.91-.27,1.53,1.53,0,0,1-.62-.56,1.21,1.21,0,0,1-.08-.92,7.17,7.17,0,0,0,.32-1.71,3.81,3.81,0,0,0-.29-1.67,1.41,1.41,0,0,0-.23-.81.3.3,0,0,0-.44-.17.09.09,0,0,1-.07,0l0,0a.76.76,0,0,1-.15-.49,1.36,1.36,0,0,1,.12-.48,4.69,4.69,0,0,1,.21-.45,3.7,3.7,0,0,0,.19-.42l0,.1a2,2,0,0,0,.86-1,2.93,2.93,0,0,0,.2-1.31,3.06,3.06,0,0,0-.38-1.27,2.74,2.74,0,0,0-.91-1,1.51,1.51,0,0,1-.39-.79,1.91,1.91,0,0,1,.09-.82,4.16,4.16,0,0,1,.37-.81,3.8,3.8,0,0,1,.5-.7,5.13,5.13,0,0,1,0-1.11,1.06,1.06,0,0,0-.42-1,.86.86,0,0,1-.21-.22.51.51,0,0,0-.26-.18,5,5,0,0,0-.06-.76.62.62,0,0,1,.3-.65.43.43,0,0,1,.3-.54.68.68,0,0,1,.64,0,.32.32,0,0,0,.47-.17c.09-.2,0-.35-.2-.44A1.2,1.2,0,0,0,1037.49,546.19Z"/><path class="cls-3" d="M1061.31,544.11l5.4,2.31-1.18,8.49-2.58,1.94,3.89,8.12-5.2,3.35-.87-8.65L1057,561l2.22,5.7-6.07,1.58-.3-21.9Zm-7.38,14.7a1.45,1.45,0,0,0,.24,1.36,2.17,2.17,0,0,1,.85.91,2.35,2.35,0,0,1,.22,1.15,3.41,3.41,0,0,1-.3,1.23,3.8,3.8,0,0,1-.67,1v1.44a.29.29,0,0,0,.33.33,2.71,2.71,0,0,0,.51.1,2.27,2.27,0,0,0,.52,0,1.06,1.06,0,0,0,.46-.13.84.84,0,0,0,.36-.42,1.4,1.4,0,0,1,.15-.3.62.62,0,0,0,.08-.31q0-.36-.33-.36c-.23,0-.34.12-.34.36a3,3,0,0,1-.25.41.3.3,0,0,1-.42.06l-.54-.1h.14a2,2,0,0,1,.17-1.1c.15-.36.31-.71.48-1.06a4.68,4.68,0,0,0,.37-1.07,2.93,2.93,0,0,0-.64-2l-.72-.72a.49.49,0,0,1,0-.2.64.64,0,0,1,.13-.69,2.42,2.42,0,0,0,.44-.62.35.35,0,0,0,.3-.33,2.84,2.84,0,0,0,.45-1,3.32,3.32,0,0,0,0-1.13,3.5,3.5,0,0,0-.3-1.07,2.93,2.93,0,0,0-.64-.92,1.69,1.69,0,0,1,0-1,1.27,1.27,0,0,1,.65-.79,1.84,1.84,0,0,0,.15-1.73,6,6,0,0,0-.85-1.52c0-.21,0-.43,0-.69a.57.57,0,0,1,.34-.52,3.69,3.69,0,0,1,1.15,0,2.7,2.7,0,0,1,1.06.39.3.3,0,0,0,.27,0,.42.42,0,0,0,.2-.17.36.36,0,0,0,0-.25.43.43,0,0,0-.17-.24,4.46,4.46,0,0,0-.8-.33,3.89,3.89,0,0,0-.89-.17,2.8,2.8,0,0,0-.87.07,1.65,1.65,0,0,0-.72.37,2.42,2.42,0,0,0-.32,1.41,1.6,1.6,0,0,0,.69,1.24,3.21,3.21,0,0,1,.22.57,2,2,0,0,1,.06.6,1.25,1.25,0,0,1-.15.55.85.85,0,0,1-.47.39,2,2,0,0,0-.32.85,3.08,3.08,0,0,0,0,.91,2.86,2.86,0,0,0,.34.85,4,4,0,0,0,.54.74,2.6,2.6,0,0,1,.08,1.14,3.77,3.77,0,0,1-.35,1.11.28.28,0,0,0-.3.2A3.65,3.65,0,0,0,1053.93,558.81Zm3.36-9.6v6.47l5.8-5.74Z"/><path class="cls-3" d="M1071.33,545.45l4.3,1.11,1.4,6.2,2.39-7.91,6.47,1.44.6,22-7.44-2,3.38-2.92-.23-13.71-3.39,9.79-3.12-1.71-3.22-6.68-.1,7.82,3.59,7.84-7.07,1.58.1-23.47Zm2.35,2.23a1.76,1.76,0,0,1-.57-.32,4.25,4.25,0,0,1-.67-.06,2.43,2.43,0,0,0-.7,0,1.32,1.32,0,0,0-.62.18.87.87,0,0,0-.39.57,1,1,0,0,0-.2.8,3.24,3.24,0,0,1,0,.88,2.85,2.85,0,0,0,.47.75.78.78,0,0,1,.13.82,2.83,2.83,0,0,0-.79.79,3.13,3.13,0,0,0-.43,1,2.2,2.2,0,0,0,0,1.08,1.89,1.89,0,0,0,.62.93.42.42,0,0,0,0,.27,1.47,1.47,0,0,0,.08.25,2,2,0,0,1,.1.26.3.3,0,0,1,0,.26,6.61,6.61,0,0,1-.25.79,5.66,5.66,0,0,0-.27.79c-.08.27-.14.54-.19.8a3,3,0,0,0,0,.84.28.28,0,0,0,.2.3,1.26,1.26,0,0,0,.32.29.57.57,0,0,1,.25.32.76.76,0,0,1,.56.28,1,1,0,0,1,.18.56.83.83,0,0,1-.18.53.75.75,0,0,1-.56.27,2.54,2.54,0,0,0-.85,1.38,3.64,3.64,0,0,0-.08,1.76,2.66,2.66,0,0,0,.73,1.42,1.66,1.66,0,0,0,1.58.37,1.06,1.06,0,0,0,.5-.3,1.8,1.8,0,0,0,.27-.47,1.75,1.75,0,0,0,.12-.55,5.07,5.07,0,0,1,0-.56c0-.24-.12-.37-.34-.37s-.33.13-.33.37-.05.35-.09.51a2.57,2.57,0,0,0,0,.5.78.78,0,0,1-.48.23,1.09,1.09,0,0,1-.54-.06,1,1,0,0,1-.42-.31.67.67,0,0,1-.17-.43,4,4,0,0,1-.18-.91,3.14,3.14,0,0,1,0-1,1.84,1.84,0,0,1,.39-.82,1.56,1.56,0,0,1,.78-.52,1.23,1.23,0,0,0,.42-.62,1.52,1.52,0,0,0,.05-.76,1.5,1.5,0,0,0-.3-.67,1.16,1.16,0,0,0-.6-.4l-.41-.37a.31.31,0,0,0,0-.33.34.34,0,0,0-.25-.2,3.27,3.27,0,0,1,.22-1c.12-.32.24-.64.35-1a3.71,3.71,0,0,0,.2-1,2.21,2.21,0,0,0-.2-1l-.49-.6a.9.9,0,0,1-.18-.74,1,1,0,0,1,.18-.7,6.66,6.66,0,0,1,.49-.59,6.66,6.66,0,0,0,.49-.59,1,1,0,0,0,.18-.7,1.74,1.74,0,0,0-.27-.72c-.13-.21-.27-.43-.4-.66V549a2.87,2.87,0,0,1,0-.52.9.9,0,0,1,.18-.42.54.54,0,0,1,.44-.17c.25,0,.51.08.79.1a1,1,0,0,1,.62.23c0,.25.11.37.33.37s.34-.12.34-.37S1073.9,547.76,1073.68,547.68Zm-3.17,11.13,0,0a.13.13,0,0,1-.1,0l.24-.16v.1Z"/><path class="cls-3" d="M1093.2,547l8.68-2.91,2.62,21.49-1.21,2.75h-6.51l2.65-8.59H1093l2.28,6.17-6.7,2.42-.74-4.43,2.55-13Zm1.25.94a2.14,2.14,0,0,0-.78.35,1.28,1.28,0,0,0-.47.64.92.92,0,0,0,.13.82.6.6,0,0,1-.12.69.63.63,0,0,1-.62.25,1.41,1.41,0,0,0-.79.54,2.13,2.13,0,0,0-.33.85,4.11,4.11,0,0,0,0,1c0,.34,0,.65.07.94l-.54.29a.68.68,0,0,0-.34.45,1.13,1.13,0,0,0-.18.87,3,3,0,0,1,0,.94,3,3,0,0,1,.45.52,2.57,2.57,0,0,1,.32.67,1.85,1.85,0,0,1,0,.7.89.89,0,0,1-.35.59.59.59,0,0,0-.34.25,3.37,3.37,0,0,1-.33.39.74.74,0,0,0-.51.62,2,2,0,0,1-.3.82,2.59,2.59,0,0,0,.2,1.83,2.1,2.1,0,0,0,1.41,1.15.82.82,0,0,1,.29.37,1.24,1.24,0,0,1,.06.46.7.7,0,0,1-.17.41.57.57,0,0,1-.41.24.5.5,0,0,0-.17.15.18.18,0,0,1-.2,0c-.25,0-.37.11-.37.34s.12.33.37.33a2.73,2.73,0,0,0,.68-.23,2.12,2.12,0,0,0,.61-.44,1.66,1.66,0,0,0,.35-.6,1.08,1.08,0,0,0-.07-.74,1.3,1.3,0,0,0-.62-.89l-1-.55a1.87,1.87,0,0,1-.36-.89,2.84,2.84,0,0,1,.07-1,2.46,2.46,0,0,1,.4-.85,2.28,2.28,0,0,1,.66-.62.39.39,0,0,0,.23-.24,1.43,1.43,0,0,0,.44-.72,2,2,0,0,0,0-.85,2.79,2.79,0,0,0-.28-.86,3,3,0,0,0-.52-.72c0-.24,0-.5,0-.77a1,1,0,0,1,.25-.7l.47-.26a.66.66,0,0,0,.37-.45,4.57,4.57,0,0,0-.07-.77,4.68,4.68,0,0,1,0-.82,1.76,1.76,0,0,1,.17-.7,1,1,0,0,1,.62-.49,1.24,1.24,0,0,0,.65-.25,1.37,1.37,0,0,0,.42-.54,1.51,1.51,0,0,0,.12-.67,1.21,1.21,0,0,0-.22-.65.64.64,0,0,1,.57-.54,3.5,3.5,0,0,1,.84,0,.28.28,0,0,0,.27-.07.37.37,0,0,0,.12-.22.3.3,0,0,0-.07-.23.38.38,0,0,0-.25-.15A1.66,1.66,0,0,0,1094.45,547.93Zm-1.49,6.78h6.47l.94-7.21-5.13,3Z"/><path class="cls-3" d="M1117.14,544.18l5.83,2.61v21.53l-6.14-2.78-6.7-10.63,1.71,11.73-5.53,1.68v-22.6l3.82-1.64,2.21,7.47,7,9L1118,550.38Zm-10,10.17a3.14,3.14,0,0,0,0,.62,1.22,1.22,0,0,0,.22.52.9.9,0,0,0,.54.32,2.06,2.06,0,0,1,.43.64,1.84,1.84,0,0,1,.19.74,1.43,1.43,0,0,1-.15.7,1,1,0,0,1-.61.47,1.63,1.63,0,0,0-.5,1.09c0,.41,0,.82,0,1.22a.29.29,0,0,0,.17.31,2,2,0,0,0,.63.31,4.67,4.67,0,0,1,.67.27,1.25,1.25,0,0,1,.49.42,1.12,1.12,0,0,1,.15.71,2.8,2.8,0,0,1,0,1c0,.34-.08.67-.1,1a.63.63,0,0,1-.2.47,1,1,0,0,1-.45.27.82.82,0,0,1-.47,0,.42.42,0,0,1-.25-.39.28.28,0,0,0-.17-.22.55.55,0,0,0-.25,0,.28.28,0,0,0-.2.12.28.28,0,0,0,0,.27,1,1,0,0,0,.48.82,1.41,1.41,0,0,0,.91.12,2,2,0,0,0,.89-.46,1.18,1.18,0,0,0,.43-.85v-.14a7.64,7.64,0,0,0,.12-1.22,4.54,4.54,0,0,0-.13-1.24,2.3,2.3,0,0,0-.54-1,1.81,1.81,0,0,0-1.12-.52l-.37-.2a6.63,6.63,0,0,0,0-.9.76.76,0,0,1,.42-.74,1.67,1.67,0,0,0,.78-.92,2.44,2.44,0,0,0,0-1.14,3,3,0,0,0-.49-1.11,2.71,2.71,0,0,0-.84-.79,1,1,0,0,1,0-.42,3.19,3.19,0,0,0,0-.45c.09,0,.14-.14.14-.3a1.68,1.68,0,0,1,.41-1.14c.28-.31.57-.61.86-.91a.26.26,0,0,0,.23-.26,2.71,2.71,0,0,0-.1-1.4,1.61,1.61,0,0,0-.9-1,.38.38,0,0,0-.17-.23c-.09-.07-.13-.13-.13-.17a1.44,1.44,0,0,1,0-.74.84.84,0,0,1,.48-.53c.11-.12.22-.22.32-.32a.49.49,0,0,1,.42-.12c.25,0,.37-.11.37-.34s-.12-.33-.37-.33a2.06,2.06,0,0,0-.85.3,2.73,2.73,0,0,0-.68.59,2.23,2.23,0,0,0-.4.8,1.91,1.91,0,0,0,0,.92.29.29,0,0,0,.23.31,1.86,1.86,0,0,1,.22.35.46.46,0,0,0,.35.25.72.72,0,0,1,.47.6,3.21,3.21,0,0,1,0,.81l-.95,1a2.09,2.09,0,0,0-.59,1.28.36.36,0,0,0-.13.37C1107.18,554,1107.17,554.14,1107.16,554.35Z"/><path class="cls-3" d="M1125.32,550.78l2.51-3.22-.13-.1,2.48-2.61,6.7,1.2,4.36,5.5v4.56l-.53,8.08-5.64,4.13h-6.6l-3.39-4.33-.3-9.08Zm3.92-.63v0h0v0l-.07.07a.45.45,0,0,0-.32.17.41.41,0,0,1-.38.13,4.77,4.77,0,0,0-1.14.5,1.11,1.11,0,0,0-.54,1.08,2.56,2.56,0,0,0,0,1.32,1.27,1.27,0,0,0,.82,1,1.21,1.21,0,0,0,0,.52.27.27,0,0,1-.18.38,5,5,0,0,0-.64,1,4.71,4.71,0,0,0-.42,1.21,2.47,2.47,0,0,0,0,1.15,1.46,1.46,0,0,0,.72.89l.41.47,0-.07a1,1,0,0,1,.27.67c0,.25,0,.5,0,.74a.74.74,0,0,0-.37.47q-.07.17,0,.24c-.09.2-.19.4-.31.62a2,2,0,0,0-.21.63,1.18,1.18,0,0,0,0,.62.92.92,0,0,0,.47.51,2.21,2.21,0,0,0,.75.31l.75.19a3.17,3.17,0,0,1,.14.72,4.52,4.52,0,0,0,.13.75,2,2,0,0,0,.3.64,1,1,0,0,0,.68.34h.67a3.23,3.23,0,0,0,.7,0,1.33,1.33,0,0,0,.59-.23,1.08,1.08,0,0,0,.35-.59v-.71c0-.24-.11-.36-.34-.36s-.33.12-.33.36v.51a.42.42,0,0,1-.24.37,1.51,1.51,0,0,0-.52,0,2.71,2.71,0,0,1-.57,0,1.44,1.44,0,0,1-.47-.15.57.57,0,0,1-.21-.46,2.64,2.64,0,0,0,0-.73,1.84,1.84,0,0,0-.27-.73,1.35,1.35,0,0,0-.5-.48,1,1,0,0,0-.74-.07,1.31,1.31,0,0,1-.55-.3.42.42,0,0,1-.08-.6,3.8,3.8,0,0,1,.38-.62.91.91,0,0,0,.19-.66l0,0s0,0,.07,0a.28.28,0,0,0,.2-.3,2.73,2.73,0,0,0-.19-1.66,2.27,2.27,0,0,0-1.15-1.19,3.17,3.17,0,0,1,.15-1.72,3.36,3.36,0,0,1,1-1.43,1,1,0,0,0,.1-.65,1.47,1.47,0,0,1,0-.66.27.27,0,0,0-.14-.33,4.21,4.21,0,0,1-.58-.39.58.58,0,0,1-.22-.62c0-.31.1-.64.17-1a.76.76,0,0,1,.7-.62l1-.35a.91.91,0,0,0,.66-.75v-.54a.84.84,0,0,0-.17-.5.68.68,0,0,0,0-.14.57.57,0,0,1,0-.13,1.7,1.7,0,0,1,0-.22,1.8,1.8,0,0,0,0-.22,2.53,2.53,0,0,1,.4-.67,9.12,9.12,0,0,1,1.51-.08,1.68,1.68,0,0,1,1.31.62h.2c.25,0,.37-.11.37-.34s-.12-.33-.37-.33h0a0,0,0,0,0,0,0,1.94,1.94,0,0,0-1.54-.6,12.83,12.83,0,0,0-1.74.17,2.67,2.67,0,0,0-.69,1.16,1.61,1.61,0,0,0,.12,1.32v.47Zm8.11,3.05-5.9-3.59-2.44,6.77,1.57,8,5.7-.54Z"/><path class="cls-3" d="M1145.23,547.23l10.6-3.15.47,7.47-7.18-1.74,8.18,9.12-4,8.65-9.69.74,3.22-6.71,4,2.25,1.24-5.6-5.94-3-2.85-4.67Zm4,.33a4.87,4.87,0,0,0-1.54.12,2.83,2.83,0,0,0-1.24.67,2,2,0,0,0-.55,1.43,2.54,2.54,0,0,0,.1,1.1,1.06,1.06,0,0,0,.84.71c.2,0,.4.1.6.16a2.27,2.27,0,0,1,.54.27,1.16,1.16,0,0,1,.35.44,1,1,0,0,1,0,.64,4.66,4.66,0,0,1-.07,1.12,3.5,3.5,0,0,0,0,1.12,1.47,1.47,0,0,0,1,.67,7.24,7.24,0,0,0,1.24.1c.45,0,.88,0,1.31.07a2.1,2.1,0,0,1,1.14.5.24.24,0,0,0,.2.07,2.29,2.29,0,0,0,.24.47.51.51,0,0,1,0,.47,3.16,3.16,0,0,1-.14,1.12c-.11.39-.21.78-.3,1.16a3.86,3.86,0,0,0-.1,1.11,1.52,1.52,0,0,0,.51,1,2.64,2.64,0,0,1,0,1.31,1.69,1.69,0,0,1-.84,1,3.08,3.08,0,0,1-.92.43,4.89,4.89,0,0,1-1,.17.3.3,0,0,0-.26.12.37.37,0,0,0-.06.25.36.36,0,0,0,.11.22.46.46,0,0,0,.27.08,3.08,3.08,0,0,0,1.55-.27,3.56,3.56,0,0,0,1.24-.92,3,3,0,0,0,.65-1.34,2.38,2.38,0,0,0-.25-1.56,1.26,1.26,0,0,1-.3-.92,4.3,4.3,0,0,1,.18-1l.3-1a2,2,0,0,0,.05-1,1.15,1.15,0,0,0-.08-.71c-.1-.22-.21-.44-.32-.67s-.26-.26-.44-.17a2.52,2.52,0,0,0-1-.48,7.08,7.08,0,0,0-1.1-.15c-.37,0-.75,0-1.13-.05a3.42,3.42,0,0,1-1.1-.22.6.6,0,0,1,0-.59.9.9,0,0,0,.07-.58c0-.25,0-.52.07-.81a3.15,3.15,0,0,0,0-.82,1.82,1.82,0,0,0-.32-.69,1.53,1.53,0,0,0-.67-.47.89.89,0,0,0-.39-.2l-.47-.12a1.18,1.18,0,0,1-.38-.16.37.37,0,0,1-.14-.39,2,2,0,0,1,0-.84,1.69,1.69,0,0,1,.39-.72,1.74,1.74,0,0,1,.67-.47,1.51,1.51,0,0,1,.82-.08,6.17,6.17,0,0,1,2.11.17.34.34,0,0,0,.27-.05.33.33,0,0,0,.12-.21.47.47,0,0,0,0-.25.27.27,0,0,0-.21-.17C1150.32,547.68,1149.82,547.61,1149.27,547.56Z"/><path class="cls-3" d="M695.3,293.46a.5.5,0,0,1,.55-.39h3.32c.37,0,.51.18.42.55L693.73,311a.55.55,0,0,1-.58.4H690a.51.51,0,0,1-.55-.4l-4-11.48L681.54,311a.5.5,0,0,1-.55.4h-3.15a.51.51,0,0,1-.55-.4l-5.86-17.37a.4.4,0,0,1,0-.39.43.43,0,0,1,.38-.16h3.3a.5.5,0,0,1,.55.39l3.82,11.86,4.14-11.75a.51.51,0,0,1,.57-.39h2.53a.52.52,0,0,1,.55.39l4.17,11.78Z"/><path class="cls-3" d="M715.41,311.81a4.68,4.68,0,0,1-2.91-.83,2.72,2.72,0,0,1-1.09-2.29v-4.1a3,3,0,0,0-.75-2.14,2.56,2.56,0,0,0-2-.82,2.9,2.9,0,0,0-2.1.77,2.71,2.71,0,0,0-.81,2.05v6.44a.44.44,0,0,1-.5.5h-2.92a.44.44,0,0,1-.5-.5V292.52a.44.44,0,0,1,.5-.5h2.92a.44.44,0,0,1,.5.5v6.89a6.87,6.87,0,0,1,3.92-1.13,5.51,5.51,0,0,1,4.13,1.59,5.71,5.71,0,0,1,1.56,4.2v3.37c0,.67.28,1,.85,1a3,3,0,0,0,.8-.09c.36,0,.56.11.57.42l.23,2.17a.43.43,0,0,1-.38.55A7,7,0,0,1,715.41,311.81Z"/><path class="cls-3" d="M726.41,311.81A7.32,7.32,0,0,1,721.2,310a6.4,6.4,0,0,1-2-4.9,6.54,6.54,0,0,1,1.92-4.92,7,7,0,0,1,5-1.85,6.73,6.73,0,0,1,5,1.83A6.54,6.54,0,0,1,733,305c0,.1,0,.25,0,.45s0,.34,0,.44a.5.5,0,0,1-.55.45H723a3.32,3.32,0,0,0,1.24,1.86,3.66,3.66,0,0,0,2.21.67,2.72,2.72,0,0,0,2.14-.78,1.2,1.2,0,0,1,.63-.27h2.94a.49.49,0,0,1,.41.15.33.33,0,0,1,0,.38,5.26,5.26,0,0,1-2.33,2.57A7.65,7.65,0,0,1,726.41,311.81ZM723,304h6.25a2.82,2.82,0,0,0-.86-2,3,3,0,0,0-2.12-.77,3.26,3.26,0,0,0-2.18.77A3.15,3.15,0,0,0,723,304Z"/><path class="cls-3" d="M746.22,298.51a.47.47,0,0,1,.39.58l-.34,2.51a.44.44,0,0,1-.58.4,7,7,0,0,0-1.43-.13,3.5,3.5,0,0,0-2.49.92,3.21,3.21,0,0,0-1,2.48v5.62a.44.44,0,0,1-.5.5h-2.93a.44.44,0,0,1-.49-.5v-8.21a.91.91,0,0,0-1-1l-.57.08c-.38,0-.58-.14-.58-.41v-2.14a.56.56,0,0,1,.4-.58,5.76,5.76,0,0,1,1.88-.32,3.15,3.15,0,0,1,3.17,1.78,5.48,5.48,0,0,1,4.26-1.78A6,6,0,0,1,746.22,298.51Z"/><path class="cls-3" d="M755.06,311.81a7.32,7.32,0,0,1-5.21-1.86,6.41,6.41,0,0,1-2-4.9,6.54,6.54,0,0,1,1.93-4.92,7,7,0,0,1,5-1.85,6.74,6.74,0,0,1,5,1.83,6.54,6.54,0,0,1,1.84,4.84c0,.1,0,.25,0,.45s0,.34,0,.44a.5.5,0,0,1-.55.45h-9.39a3.28,3.28,0,0,0,1.24,1.86,3.64,3.64,0,0,0,2.21.67,2.74,2.74,0,0,0,2.14-.78,1.2,1.2,0,0,1,.63-.27h2.94a.5.5,0,0,1,.41.15.37.37,0,0,1,0,.38,5.31,5.31,0,0,1-2.33,2.57A7.65,7.65,0,0,1,755.06,311.81Zm-3.4-7.86h6.25a2.86,2.86,0,0,0-.86-2,3,3,0,0,0-2.12-.77,3.26,3.26,0,0,0-2.18.77A3.15,3.15,0,0,0,751.66,304Z"/><path class="cls-3" d="M776.38,311.81a8.31,8.31,0,0,1-4.47-1.08,4.22,4.22,0,0,1-2-3c0-.35.12-.53.5-.53l2.57,0a.65.65,0,0,1,.57.37c.37.95,1.32,1.42,2.85,1.42a3.29,3.29,0,0,0,1.56-.32,1,1,0,0,0,.59-.84c0-.46-.28-.78-.84-1a8.94,8.94,0,0,0-2-.44,22.13,22.13,0,0,1-2.41-.43,4,4,0,0,1-2-1.18,3.39,3.39,0,0,1-.83-2.42,3.48,3.48,0,0,1,1.59-3,7.19,7.19,0,0,1,4.22-1.13,7.63,7.63,0,0,1,4.12,1,3.88,3.88,0,0,1,1.92,2.73c0,.35-.1.52-.47.52h-2.59a.57.57,0,0,1-.53-.32,1.78,1.78,0,0,0-.9-.92,3.58,3.58,0,0,0-3-.05.88.88,0,0,0-.56.8,1.13,1.13,0,0,0,.85,1,9.48,9.48,0,0,0,2.07.51c.81.11,1.62.27,2.42.46a4.11,4.11,0,0,1,2.05,1.17,3.36,3.36,0,0,1,.85,2.39,3.51,3.51,0,0,1-1.63,3A7.63,7.63,0,0,1,776.38,311.81Z"/><path class="cls-3" d="M796.86,310a8.25,8.25,0,0,1-10.44,0,7.1,7.1,0,0,1,0-9.82,8.27,8.27,0,0,1,10.44,0,7.09,7.09,0,0,1,0,9.81Zm-7.72-2.34a3.74,3.74,0,0,0,5,0,3.92,3.92,0,0,0,0-5.12,3.74,3.74,0,0,0-5,0,3.92,3.92,0,0,0,0,5.12Z"/><path class="cls-3" d="M827.17,310.94a.45.45,0,0,1-.39.55,7,7,0,0,1-2,.32,4.73,4.73,0,0,1-2.92-.83,2.72,2.72,0,0,1-1.09-2.29v-4.1a3.07,3.07,0,0,0-.73-2.14,2.48,2.48,0,0,0-2-.82,2.15,2.15,0,0,0-1.72.77,3.06,3.06,0,0,0-.65,2.05v6.44a.44.44,0,0,1-.5.5h-3a.44.44,0,0,1-.5-.5v-6.3a3.25,3.25,0,0,0-.68-2.14,2.24,2.24,0,0,0-1.81-.82,2.55,2.55,0,0,0-1.93.77,2.9,2.9,0,0,0-.72,2.05v6.44a.44.44,0,0,1-.5.5h-2.92a.44.44,0,0,1-.5-.5v-8.21a.91.91,0,0,0-1-1l-.58.08c-.38,0-.57-.14-.57-.41v-2.14a.55.55,0,0,1,.39-.58,5.18,5.18,0,0,1,1.88-.32,3.29,3.29,0,0,1,3.12,1.6,5.84,5.84,0,0,1,4.42-1.6,5,5,0,0,1,4.14,1.85,5.78,5.78,0,0,1,4.58-1.85,5.51,5.51,0,0,1,4.12,1.59,5.71,5.71,0,0,1,1.56,4.2v3.37c0,.67.29,1,.86,1a3,3,0,0,0,.79-.09q.55,0,.57.42Z"/><path class="cls-3" d="M835.77,311.81a7.3,7.3,0,0,1-5.2-1.86,6.38,6.38,0,0,1-2-4.9,6.54,6.54,0,0,1,1.92-4.92,7,7,0,0,1,5-1.85,6.77,6.77,0,0,1,5,1.83,6.58,6.58,0,0,1,1.84,4.84c0,.1,0,.25,0,.45s0,.34,0,.44a.49.49,0,0,1-.55.45H832.4a3.29,3.29,0,0,0,1.25,1.86,3.61,3.61,0,0,0,2.2.67A2.76,2.76,0,0,0,838,308a1.21,1.21,0,0,1,.62-.27h2.94a.49.49,0,0,1,.41.15.33.33,0,0,1,0,.38,5.26,5.26,0,0,1-2.33,2.57A7.6,7.6,0,0,1,835.77,311.81Zm-3.4-7.86h6.25a2.82,2.82,0,0,0-.86-2,3,3,0,0,0-2.11-.77,3.29,3.29,0,0,0-2.19.77A3.19,3.19,0,0,0,832.37,304Z"/><path class="cls-3" d="M852,311.81a5.52,5.52,0,0,1-4.05-1.45,5.36,5.36,0,0,1-1.47-4v-4.52H844a.44.44,0,0,1-.5-.5V299.2a.44.44,0,0,1,.5-.5h2.42v-3.32c0-.33.16-.5.48-.5h2.94a.44.44,0,0,1,.5.5v3.32h4.1a.44.44,0,0,1,.5.5v2.17a.44.44,0,0,1-.5.5h-4.1v4.4a2.07,2.07,0,0,0,.59,1.57,2.17,2.17,0,0,0,1.58.57,7.91,7.91,0,0,0,2-.24.44.44,0,0,1,.57.4l.35,2.25a.54.54,0,0,1-.4.57A12.57,12.57,0,0,1,852,311.81Z"/><path class="cls-3" d="M871.33,311.81a4.7,4.7,0,0,1-2.91-.83,2.75,2.75,0,0,1-1.09-2.29v-4.1a3,3,0,0,0-.74-2.14,2.57,2.57,0,0,0-2-.82,3,3,0,0,0-2.11.77,2.71,2.71,0,0,0-.81,2.05v6.44a.44.44,0,0,1-.49.5h-2.93a.44.44,0,0,1-.5-.5V292.52a.44.44,0,0,1,.5-.5h2.93a.44.44,0,0,1,.49.5v6.89a6.9,6.9,0,0,1,3.93-1.13,5.51,5.51,0,0,1,4.12,1.59,5.71,5.71,0,0,1,1.56,4.2v3.37c0,.67.29,1,.86,1a3,3,0,0,0,.79-.09c.37,0,.56.11.58.42l.23,2.17a.44.44,0,0,1-.39.55A7,7,0,0,1,871.33,311.81Z"/><path class="cls-3" d="M879.66,295.74a2.53,2.53,0,0,1-3.32,0,2,2,0,0,1-.68-1.54,2,2,0,0,1,.68-1.53,2.56,2.56,0,0,1,3.32,0,2,2,0,0,1,.67,1.53A2.05,2.05,0,0,1,879.66,295.74Zm.37,16.07a4.72,4.72,0,0,1-2.91-.83,2.74,2.74,0,0,1-1.08-2.29V299.2a.44.44,0,0,1,.49-.5h2.93a.44.44,0,0,1,.5.5v8.24c0,.67.3,1,.89,1a3,3,0,0,0,.78-.09c.35,0,.53.11.55.42l.27,2.17a.47.47,0,0,1-.42.55A6.81,6.81,0,0,1,880,311.81Z"/><path class="cls-3" d="M901.65,310.94c.06.3-.08.48-.39.55a7,7,0,0,1-2,.32,4.68,4.68,0,0,1-2.91-.83,2.72,2.72,0,0,1-1.09-2.29v-4.1a3,3,0,0,0-.75-2.14,2.56,2.56,0,0,0-2-.82,3,3,0,0,0-2.11.77,2.74,2.74,0,0,0-.8,2.05v6.44a.44.44,0,0,1-.5.5h-2.92a.44.44,0,0,1-.5-.5v-8.21a.91.91,0,0,0-1-1l-.57.08c-.38,0-.58-.14-.58-.41v-2.14a.56.56,0,0,1,.4-.58,5.14,5.14,0,0,1,1.88-.32,3.35,3.35,0,0,1,3.14,1.62,6.21,6.21,0,0,1,4.59-1.62,5.53,5.53,0,0,1,4.13,1.59,5.67,5.67,0,0,1,1.57,4.2v3.37c0,.67.29,1,.87,1a2.88,2.88,0,0,0,.78-.09q.54,0,.57.42Z"/><path class="cls-3" d="M917.1,298.7a.44.44,0,0,1,.5.5v12.51a5.7,5.7,0,0,1-1.94,4.49,7.37,7.37,0,0,1-5.07,1.71,8.16,8.16,0,0,1-4.73-1.31,5.27,5.27,0,0,1-2.29-3.48c-.08-.34.07-.5.47-.5H907a.61.61,0,0,1,.57.39,2.17,2.17,0,0,0,1.08,1.24,3.84,3.84,0,0,0,1.94.46,3.09,3.09,0,0,0,2.25-.81,2.89,2.89,0,0,0,.83-2.16v-1.1a5.87,5.87,0,0,1-3.63,1.12,6.76,6.76,0,0,1-5-1.9,7,7,0,0,1,0-9.69,6.79,6.79,0,0,1,5-1.89,5.88,5.88,0,0,1,3.72,1.2v-.28c0-.33.16-.5.48-.5Zm-6.76,10a3.06,3.06,0,0,0,2.39-1,3.87,3.87,0,0,0,.91-2.65,3.77,3.77,0,0,0-.93-2.64,3.06,3.06,0,0,0-2.37-1,3.15,3.15,0,0,0-2.42,1,4.15,4.15,0,0,0,0,5.27A3.15,3.15,0,0,0,910.34,308.67Z"/><path class="cls-3" d="M941,298.7a.44.44,0,0,1,.5.5v12.51a5.72,5.72,0,0,1-1.93,4.49,7.42,7.42,0,0,1-5.08,1.71,8.11,8.11,0,0,1-4.72-1.31,5.29,5.29,0,0,1-2.3-3.48c-.08-.34.07-.5.47-.5h2.93a.64.64,0,0,1,.58.39,2.15,2.15,0,0,0,1.07,1.24,3.84,3.84,0,0,0,1.94.46,3.07,3.07,0,0,0,2.25-.81,2.89,2.89,0,0,0,.83-2.16v-1.1a5.87,5.87,0,0,1-3.63,1.12,6.76,6.76,0,0,1-4.95-1.9,7,7,0,0,1,0-9.69,6.79,6.79,0,0,1,4.95-1.89,5.88,5.88,0,0,1,3.72,1.2v-.28a.44.44,0,0,1,.49-.5Zm-6.76,10a3.06,3.06,0,0,0,2.39-1,3.83,3.83,0,0,0,.91-2.65,3.77,3.77,0,0,0-.93-2.64,3.06,3.06,0,0,0-2.37-1,3.15,3.15,0,0,0-2.42,1,4.15,4.15,0,0,0,0,5.27A3.16,3.16,0,0,0,934.22,308.67Z"/><path class="cls-3" d="M956.53,310a8.25,8.25,0,0,1-10.44,0,7.08,7.08,0,0,1,0-9.82,8.27,8.27,0,0,1,10.44,0,7.09,7.09,0,0,1,0,9.81Zm-7.72-2.34a3.74,3.74,0,0,0,5,0,3.92,3.92,0,0,0,0-5.12,3.74,3.74,0,0,0-5,0,3.92,3.92,0,0,0,0,5.12Z"/><path class="cls-3" d="M973,310a8.25,8.25,0,0,1-10.44,0,7.1,7.1,0,0,1,0-9.82,8.27,8.27,0,0,1,10.44,0,7.09,7.09,0,0,1,0,9.81Zm-7.72-2.34a3.74,3.74,0,0,0,5,0,3.92,3.92,0,0,0,0-5.12,3.74,3.74,0,0,0-5,0,3.92,3.92,0,0,0,0,5.12Z"/><path class="cls-3" d="M993.91,310.94a.44.44,0,0,1-.4.55,6.77,6.77,0,0,1-2,.32,3.39,3.39,0,0,1-3.3-1.65,6,6,0,0,1-4.35,1.65,6.8,6.8,0,0,1-5-1.88,7.19,7.19,0,0,1,0-9.77,6.79,6.79,0,0,1,5-1.88,6,6,0,0,1,3.64,1.13v-6.89a.44.44,0,0,1,.5-.5h3a.43.43,0,0,1,.48.5v14.92c0,.67.29,1,.87,1a2.83,2.83,0,0,0,.78-.09c.37,0,.56.11.58.42Zm-9.71-2.19a3,3,0,0,0,2.38-1,4.36,4.36,0,0,0,0-5.33,3,3,0,0,0-2.38-1,3.14,3.14,0,0,0-2.44,1,4.25,4.25,0,0,0,0,5.33A3.15,3.15,0,0,0,984.2,308.75Z"/><path class="cls-3" d="M1006.5,295.74a2.53,2.53,0,0,1-3.32,0,2,2,0,0,1-.67-1.54,2,2,0,0,1,.67-1.53,2.56,2.56,0,0,1,3.32,0,2,2,0,0,1,.67,1.53A2,2,0,0,1,1006.5,295.74Zm.38,16.07A4.73,4.73,0,0,1,1004,311a2.74,2.74,0,0,1-1.08-2.29V299.2a.44.44,0,0,1,.5-.5h2.92a.44.44,0,0,1,.5.5v8.24c0,.67.3,1,.89,1a3,3,0,0,0,.78-.09c.35,0,.54.11.55.42l.27,2.17a.46.46,0,0,1-.42.55A6.8,6.8,0,0,1,1006.88,311.81Z"/><path class="cls-3" d="M1017.15,311.81a8.31,8.31,0,0,1-4.47-1.08,4.19,4.19,0,0,1-2-3c0-.35.11-.53.5-.53l2.56,0a.67.67,0,0,1,.58.37c.37.95,1.32,1.42,2.85,1.42a3.29,3.29,0,0,0,1.56-.32,1,1,0,0,0,.59-.84c0-.46-.28-.78-.84-1a9.16,9.16,0,0,0-2-.44A23,23,0,0,1,1014,306a4.06,4.06,0,0,1-2-1.18,3.39,3.39,0,0,1-.84-2.42,3.46,3.46,0,0,1,1.6-3,7.16,7.16,0,0,1,4.21-1.13,7.67,7.67,0,0,1,4.13,1,3.88,3.88,0,0,1,1.92,2.73c0,.35-.11.52-.47.52h-2.6a.55.55,0,0,1-.52-.32,1.86,1.86,0,0,0-.9-.92,3.13,3.13,0,0,0-1.5-.35,3.18,3.18,0,0,0-1.49.3.9.9,0,0,0-.56.8,1.13,1.13,0,0,0,.85,1,9.78,9.78,0,0,0,2.07.51c.81.11,1.62.27,2.42.46a4.07,4.07,0,0,1,2.05,1.17,3.31,3.31,0,0,1,.85,2.39,3.53,3.53,0,0,1-1.62,3A7.65,7.65,0,0,1,1017.15,311.81Z"/><path class="cls-3" d="M1048.84,310.94a.47.47,0,0,1-.42.55,6.71,6.71,0,0,1-2,.32,3.45,3.45,0,0,1-3.3-1.6,6.41,6.41,0,0,1-4.4,1.6,6.8,6.8,0,0,1-5-1.88,7.17,7.17,0,0,1,0-9.77,6.83,6.83,0,0,1,5-1.88,5.87,5.87,0,0,1,3.71,1.2v-.28a.44.44,0,0,1,.5-.5h2.89a.44.44,0,0,1,.49.5v8.22c0,.68.28,1,.86,1a3.12,3.12,0,0,0,.81-.09c.35,0,.53.11.55.42Zm-9.74-2.19a3,3,0,0,0,2.38-1,4.32,4.32,0,0,0,0-5.33,3,3,0,0,0-2.38-1,3.11,3.11,0,0,0-2.43,1,4.25,4.25,0,0,0,0,5.33A3.12,3.12,0,0,0,1039.1,308.75Z"/><path class="cls-3" d="M1055.14,311.81a4.73,4.73,0,0,1-2.92-.83,2.74,2.74,0,0,1-1.08-2.29V292.52a.44.44,0,0,1,.5-.5h2.92a.44.44,0,0,1,.5.5v14.92c0,.67.3,1,.9,1a3,3,0,0,0,.77-.09c.35,0,.54.11.55.42l.27,2.17a.45.45,0,0,1-.42.55A6.75,6.75,0,0,1,1055.14,311.81Z"/><path class="cls-3" d="M1067.38,311.81a6.71,6.71,0,0,1-4.6-1.6A5.38,5.38,0,0,1,1061,306v-3.27a.91.91,0,0,0-1-1l-.57.08c-.39,0-.58-.14-.58-.41v-2.14a.55.55,0,0,1,.4-.58,6.06,6.06,0,0,1,2-.32,3.94,3.94,0,0,1,2.73.94,3.31,3.31,0,0,1,1,2.54v3.74a3.31,3.31,0,0,0,.65,2.26,2.57,2.57,0,0,0,2,.7,2.14,2.14,0,0,0,2-.86A5.18,5.18,0,0,0,1070,305V299.2c0-.33.16-.5.48-.5h3a.44.44,0,0,1,.5.5v6.3a3.43,3.43,0,0,0,.61,2.26,2.38,2.38,0,0,0,1.9.7,2.26,2.26,0,0,0,1.92-1,4.57,4.57,0,0,0,.74-2.71,15.49,15.49,0,0,0-1-5.44c-.12-.39,0-.58.44-.58h2.86a.59.59,0,0,1,.6.41,17.18,17.18,0,0,1,1,5.71,7.18,7.18,0,0,1-1.79,5.06,6,6,0,0,1-4.63,1.93,5.86,5.86,0,0,1-4.64-1.89A5.64,5.64,0,0,1,1067.38,311.81Z"/><path class="cls-3" d="M1102.41,310.94a.45.45,0,0,1-.42.55,6.6,6.6,0,0,1-2,.32,3.45,3.45,0,0,1-3.3-1.6,6.46,6.46,0,0,1-4.41,1.6,6.8,6.8,0,0,1-5-1.88,7.19,7.19,0,0,1,0-9.77,6.79,6.79,0,0,1,4.95-1.88,5.88,5.88,0,0,1,3.72,1.2v-.28a.44.44,0,0,1,.5-.5h2.89a.43.43,0,0,1,.48.5v8.22q0,1,.87,1a3.18,3.18,0,0,0,.81-.09c.35,0,.53.11.55.42Zm-9.73-2.19a3,3,0,0,0,2.38-1,4.36,4.36,0,0,0,0-5.33,3,3,0,0,0-2.38-1,3.14,3.14,0,0,0-2.44,1,4.25,4.25,0,0,0,0,5.33A3.15,3.15,0,0,0,1092.68,308.75Z"/><path class="cls-3" d="M1111.2,317.91a8.18,8.18,0,0,1-4.77-1.32,4.82,4.82,0,0,1-2.16-3.47c0-.34.12-.5.47-.5h3a.58.58,0,0,1,.55.39,2.76,2.76,0,0,0,2.92,1.7,3,3,0,0,0,2.13-.76,2.76,2.76,0,0,0,.83-2.14v-1.15a6.76,6.76,0,0,1-3.9,1.1,5.45,5.45,0,0,1-4.1-1.6,5.77,5.77,0,0,1-1.55-4.19V299.2a.44.44,0,0,1,.5-.5H1108a.44.44,0,0,1,.49.5v6.25a3,3,0,0,0,.75,2.13,2.63,2.63,0,0,0,2,.8,2.9,2.9,0,0,0,2.09-.76,2.7,2.7,0,0,0,.79-2V299.2a.44.44,0,0,1,.49-.5h3a.44.44,0,0,1,.5.5v12.54a5.76,5.76,0,0,1-1.88,4.47A7.2,7.2,0,0,1,1111.2,317.91Z"/><path class="cls-3" d="M1127,311.81a8.32,8.32,0,0,1-4.48-1.08,4.18,4.18,0,0,1-2-3c-.06-.35.11-.53.49-.53l2.57,0a.68.68,0,0,1,.58.37c.36.95,1.31,1.42,2.85,1.42a3.28,3.28,0,0,0,1.55-.32.94.94,0,0,0,.59-.84c0-.46-.28-.78-.83-1a9.16,9.16,0,0,0-2-.44,22.56,22.56,0,0,1-2.41-.43,4,4,0,0,1-2-1.18,3.43,3.43,0,0,1-.83-2.42,3.48,3.48,0,0,1,1.59-3,7.21,7.21,0,0,1,4.22-1.13,7.61,7.61,0,0,1,4.12,1,3.89,3.89,0,0,1,1.93,2.73c0,.35-.11.52-.48.52h-2.59a.57.57,0,0,1-.53-.32,1.78,1.78,0,0,0-.9-.92,3.08,3.08,0,0,0-1.5-.35,3.14,3.14,0,0,0-1.48.3.9.9,0,0,0-.56.8,1.13,1.13,0,0,0,.85,1,9.48,9.48,0,0,0,2.07.51c.81.11,1.62.27,2.42.46a4.11,4.11,0,0,1,2.05,1.17,3.31,3.31,0,0,1,.85,2.39,3.53,3.53,0,0,1-1.62,3A7.65,7.65,0,0,1,1127,311.81Z"/><path class="cls-3" d="M1148.87,311.81a7.31,7.31,0,0,1-5.22-1.86,7.1,7.1,0,0,1,0-9.82,8.23,8.23,0,0,1,9.62-.56,5.35,5.35,0,0,1,2.19,3.45c.06.35-.09.52-.44.52h-2.8a.58.58,0,0,1-.55-.42,2.51,2.51,0,0,0-1-1.21,3.29,3.29,0,0,0-1.77-.46,3.25,3.25,0,0,0-2.48,1,4.09,4.09,0,0,0,0,5.22,3.24,3.24,0,0,0,2.48,1,3.51,3.51,0,0,0,1.78-.44,2.19,2.19,0,0,0,1-1.23.62.62,0,0,1,.55-.42h2.8c.35,0,.5.17.44.52a5.4,5.4,0,0,1-2.19,3.46A7.36,7.36,0,0,1,1148.87,311.81Z"/><path class="cls-3" d="M1169.92,310a8.25,8.25,0,0,1-10.44,0,7.1,7.1,0,0,1,0-9.82,8.27,8.27,0,0,1,10.44,0,7.07,7.07,0,0,1,0,9.81Zm-7.71-2.34a3.72,3.72,0,0,0,5,0,3.92,3.92,0,0,0,0-5.12,3.72,3.72,0,0,0-5,0,3.89,3.89,0,0,0,0,5.12Z"/><path class="cls-3" d="M1186.35,310a8.24,8.24,0,0,1-10.43,0,7.08,7.08,0,0,1,0-9.82,8.26,8.26,0,0,1,10.43,0,7.07,7.07,0,0,1,0,9.81Zm-7.71-2.34a3.72,3.72,0,0,0,5,0,3.89,3.89,0,0,0,0-5.12,3.72,3.72,0,0,0-5,0,3.89,3.89,0,0,0,0,5.12Z"/><path class="cls-3" d="M1205,310.82a.33.33,0,0,1,.07.4.42.42,0,0,1-.39.17H1201a.66.66,0,0,1-.6-.32l-3.17-4.5h-2.33v4.32c0,.33-.16.5-.47.5h-3c-.31,0-.47-.17-.47-.5V292.52c0-.33.16-.5.47-.5h3c.31,0,.47.17.47.5V303.4h1.23a4.47,4.47,0,0,0,3.15-1.11,4.8,4.8,0,0,0,1.46-3.09c0-.33.18-.5.5-.5h2.9c.37,0,.53.17.5.5a8,8,0,0,1-3.58,6.22Z"/><path class="cls-3" d="M1210.66,295.74a2.53,2.53,0,0,1-3.32,0,2,2,0,0,1-.68-1.54,2,2,0,0,1,.68-1.53,2.56,2.56,0,0,1,3.32,0,2,2,0,0,1,.67,1.53A2.05,2.05,0,0,1,1210.66,295.74Zm.37,16.07a4.7,4.7,0,0,1-2.91-.83,2.74,2.74,0,0,1-1.08-2.29V299.2a.44.44,0,0,1,.49-.5h2.93a.44.44,0,0,1,.5.5v8.24c0,.67.3,1,.89,1a3,3,0,0,0,.78-.09c.35,0,.53.11.55.42l.27,2.17a.47.47,0,0,1-.42.55A6.81,6.81,0,0,1,1211,311.81Z"/><path class="cls-3" d="M1232.65,310.94c.06.3-.08.48-.39.55a7,7,0,0,1-2,.32,4.68,4.68,0,0,1-2.91-.83,2.72,2.72,0,0,1-1.09-2.29v-4.1a3,3,0,0,0-.75-2.14,2.56,2.56,0,0,0-2-.82,3,3,0,0,0-2.11.77,2.74,2.74,0,0,0-.8,2.05v6.44a.44.44,0,0,1-.5.5h-2.92a.44.44,0,0,1-.5-.5v-8.21a.91.91,0,0,0-1-1l-.57.08c-.38,0-.58-.14-.58-.41v-2.14a.56.56,0,0,1,.4-.58,5.14,5.14,0,0,1,1.88-.32,3.35,3.35,0,0,1,3.14,1.62,6.21,6.21,0,0,1,4.59-1.62,5.53,5.53,0,0,1,4.13,1.59,5.67,5.67,0,0,1,1.57,4.2v3.37c0,.67.29,1,.87,1a2.88,2.88,0,0,0,.78-.09q.54,0,.57.42Z"/><path class="cls-3" d="M1248.1,298.7a.44.44,0,0,1,.5.5v12.51a5.7,5.7,0,0,1-1.94,4.49,7.37,7.37,0,0,1-5.07,1.71,8.16,8.16,0,0,1-4.73-1.31,5.31,5.31,0,0,1-2.29-3.48c-.08-.34.07-.5.47-.5H1238a.64.64,0,0,1,.58.39,2.12,2.12,0,0,0,1.07,1.24,3.84,3.84,0,0,0,1.94.46,3.09,3.09,0,0,0,2.25-.81,2.89,2.89,0,0,0,.83-2.16v-1.1a5.87,5.87,0,0,1-3.63,1.12,6.76,6.76,0,0,1-5-1.9,7,7,0,0,1,0-9.69,6.79,6.79,0,0,1,5-1.89,5.88,5.88,0,0,1,3.72,1.2v-.28c0-.33.16-.5.48-.5Zm-6.76,10a3.06,3.06,0,0,0,2.39-1,3.83,3.83,0,0,0,.91-2.65,3.77,3.77,0,0,0-.93-2.64,3.08,3.08,0,0,0-2.37-1,3.15,3.15,0,0,0-2.42,1,4.15,4.15,0,0,0,0,5.27A3.16,3.16,0,0,0,1241.34,308.67Z"/></svg>