<svg id="Capa_1" data-name="Capa 1" xmlns="http://www.w3.org/2000/svg" viewBox="0 0 1920 1080"><defs><style>.cls-1{fill:#cb0001;}.cls-2{fill:#030101;}.cls-3{fill:#fff;}.cls-4{fill:#0d0504;}.cls-5{fill:#fffb66;}.cls-6{fill:#896242;}.cls-7{fill:#ccc950;}.cls-8{fill:#7a522e;}.cls-9{fill:#fce6e4;}.cls-10{fill:#fad3d2;}.cls-11{fill:#fcf7d8;}</style></defs><title>gustavo</title><rect class="cls-1" width="1920" height="1080"/><path class="cls-2" d="M811.79,348.65l1.24-.21c.74-.11.68-.71.71-1.24l.13-.26c1.47.1,2.44-.63,3.57-1.58a44,44,0,0,0,5.49-6c3.12-3.82,7.1-6.71,10.73-9.7,2.53-2.08,3-6.51,7.25-6.6,2.68-.06,4.31-1.73,5.82-3.85a16.8,16.8,0,0,1,4.63-4.34c11.9-7.45,24.55-12.41,39-11.19,1.82.15,4.06.83,5.37-1.41a85.06,85.06,0,0,1,19.86,4.42c-.49,1.26-1.42,2.79.77,3.22,7,1.38,13.49,4.43,20.16,6.8a40.34,40.34,0,0,1,9.63,5.13c2.19,1.55,2.9,4.65,6.42,5.14,1.57.23,4.88,1,4.82,3.3-.06,2.12-3.38.15-4.6,1.77-.09.12-.2.24-.29.35l-1.77-1.18-1.17-.75-1.61-1-1.11-.81,0,.1c-.1-2.77-2.12-1.89-3.66-1.94l0,0c-.16-5.83-4-.71-5.68-1.89l-1.56-.27c-2.14-2.55-8.91-3.89-12.88-2.55l-4.61-.25a3.63,3.63,0,0,0-3.53-1.64c-6.67.06-13.35-.11-20,.24-1.91.1-5,.21-4.73,3.69l-.07-.09c-4.14-.05-8,1.1-11.9,2.39a2.53,2.53,0,0,0-2,3l0,0-1,.67a1.07,1.07,0,0,1-.78.29c-5-.68-7.58,3.83-11.48,5.53-.33.14-.2,1.34-.29,2.05l-.08.05c-2.14-.47-2.89.62-2.92,2.56l0,0c-2.14-.35-3.07.58-2.84,2.71l0,0c-6.82.94-8.26,3.34-6.34,10.56l.44,1.19c-3.53,4.08-3.17,9.08-3.35,14a2,2,0,0,1-.21.89c-6,3.32-5.5,9.71-6.83,15.12-.38,1.56,1.35,1.56,2.46.46l1.88.37a1,1,0,0,0,1.73-.12l1.84-.28a9.19,9.19,0,0,1,2.18,1.48c.93,1.1,1.61,3.15,3.34,1.92,2.46-1.76-1-2-1.13-3.19a7.26,7.26,0,0,1,.32-1.75l-.12-.42,1.54.08c3.66.08,8.11,2.2,9.46-3.68l0,0c1.8.13,3.63.36,4.68-1.65a6.92,6.92,0,0,1,3.69-.9c2.21,3.33,3.16,0,4.58-.85l3.68-.24c5.64,1.59,11.36,1.26,17.1.81l1.3.12c-.18,2.19,1.07,2.51,3,2.91,2.62.55,5.8,1.26,4.4,5.37l-1-.14-1.44-.59-2.23-.31c-1.15-.67-2.11-2.57-3.66-.55l-2.86.26a2.83,2.83,0,0,0-3.51.19l-1.91.1c-.33-.41-.62-.37-.89.06l-3.11.25-1.54.59.09.29h-2.48c-1.56.77-4.35-2.41-4.93,1.53l-1.46.29-1.27.7-2.63,1.11c-1.24-.62-2.46-1.33-3.88-.49A26.4,26.4,0,0,0,858.25,399c-1,1.75.43,2.8,2.18,3.16l2-.18c4.18,1.69,5.89.79,6.5-3.41l2.64-1.09c1.76-.1,4.65,2.81,4.7-1.78l.27-.15.31,0,1.23-.64,1.72-.26c1.46.51,3.18,2.21,3.82-.87a3.64,3.64,0,0,1,2.81-.62c1.24.51,2.6,2.92,3.63-.21a17,17,0,0,1,6.39-.22c2,4.1-1.8,3.58-3.64,4.63a.7.7,0,0,1-.65.22c-1.63.29-3.43.22-4.83.95-2.32,1.2-5.94.81-6.34,4.65v-.05c-1.84-.27-3.69-.23-4.81,1.45-.55.81-3.72,1.05-1,3l-2.27,2.94c-.88,0-1.85,0-2,1.13s.79,1.36,1.7,1.45l.82.44c3,.5,6.41,3.18,8.31-1.57.72-1.8,2.05-1.84,3.33-1.36a2.21,2.21,0,0,1,1.12,3.38c-.86,1.45-1.21,2.68-.11,4.13,2-2.85,2-2.85,6.31-.38.34,1.38,1.36.62,2.12.66l.06,3.76a1.09,1.09,0,0,1-.84.2c-2.33-.1-4.66-.22-6.47,1.68l-2.8.08c-.65-1.41-1.4-2.73-3.07-3.13a31.8,31.8,0,0,1-3.06-3.54c-.74-1.13-1.32-1-2.06-.21s-1.61,1.68-.17,2.5a20.62,20.62,0,0,0,3.33,1.21c-2.4.92-5.39,1.39-3.87,5.22,0,.51,0,1,0,1.54-3.75,2.39-5.68,0-6.82-3a5.82,5.82,0,0,0-4.75-4.11l.1,0-.74-1.09-1-1c-2.31-1.81-4.39-2.57-5.47,1.21l-3.55,2.68c-6.71.3-2,5.66-3.49,8.38-1.13,2.05.62,4.57,3.5,5.19l-.08,0c.44,2.21-3.24,5.49,1.69,6.54,0,.46.11.93.16,1.39.2.44.39.89.59,1.33l.23,1.87c-1.29,1.58-1.6,2.94.83,3.68.07.48.14,1,.2,1.44-2,6.58,3.35,10.59,5.78,15.45,1.5,3-.13,3.18-1.52,2.92-3-.57-3.52.82-3.44,3.2h0c-.9.1-1.75.29-1.7,1.46,0,.9.77,1.1,1.49,1.26l.1,1.83c-2.55,2.7-1.83,5.37,2,7.32l0,0c-.1,3.43.61,6,3.58,8.7s8,5.16,8.14,9.91c.29,7.33,5.21,11.62,9.22,16.61.93,1.16,2.17,2.38,3.8.76l1.87-.09c4.7.23,2.81-3.69,3.65-5.87.35-.92-.45-2.43.94-2.75s2.1,1,2.64,2.08,1.13,2.12.9,3c-1.1,4.18,1.48,5,4.6,5.42a.68.68,0,0,1,.26.6c-.12,1.46-.27,2.94,1.88,3l0,0c-.39,2.81-.35,6.7,1.6,7.66,3.33,1.63,5.22,4.78,8.23,6.27,4,2,8,5.11,13.05,3.6l2.78.26c6,1.58,12.11,1.65,16.92-2.32s9.73-4.16,15.14-2c1.38.55,2.78,1.76,3.75-.5l1.8,0c1.17,1.79,5.29,0,4.69,3.94L969,545q-5.51,7.11-11,14.23c-.27.35-.53.7-.8,1-.39.58-.79,1.15-1.18,1.72l-.71.92-.74,1c-1.95,0-2,1.33-2,2.78q-3.3,4.54-6.59,9.11c-.26.32-.51.65-.77,1l-1.2,1.78-.68.88-2,2.79-.72.93c-.53,1.12-1.05,2.17.82,2.59,1.59.35,3.13.87,4.7,1.32l1.2.55,1.55.31,1.29.58a14.31,14.31,0,0,1,6.07,2.14l1.41.59,1.35.46.92.61c1.85.06,3.13,1.32,4.6,2.18l.87.6c4,2,7.45,4.52,9.37,8.72l.63,1.37c1.1,3.4,0,6.77-.09,10.16-.86.83-.72,1.88-.62,2.92,0,1.36.53,2.85-.88,3.89,0,1.41-.51,2.9.61,4.15.07.32.13.64.2,1,.15.47-.4,1.48.85,1.1,1.54-.84,1.25-2.67,2.1-3.89l.57-1.33.31-1.42.59-1.43a8,8,0,0,1,1.24-4.06l4.44.91-.2.94-.56,1.35a21.87,21.87,0,0,1-2.16,6.92l-.6,1.32-.38,1.44-.6,1.15a.52.52,0,0,1-.21.68c-.27.59-.55,1.18-.83,1.76l0,0a1.68,1.68,0,0,0-1.71,2l.05,0-2.52.07c-1.74-.24-2.46-1.68-3.37-2.89-2.28-6.21-.78-12.58-.59-18.86.12-4.16-.57-7.77-3.75-10.65l-1-.83,0,0-1.1-.89c-5.63-3.06-5.61-3.06-8.06,3.25-.65,1.67-1.38,3.31-2.08,5l-.67,1a2.45,2.45,0,0,1-.2.88c-.18.48-.37.95-.55,1.43l-.39,1.33-.6,1.19c-.41,1.13-.82,2.27-1.22,3.4-.18.38-.36.77-.53,1.15l0-.06c-2.06-.09-4.94-1-5.16,2-.19,2.52,2.54,1,3.91,1.48l6.6,9.89.81,1.13a35.76,35.76,0,0,1,5.55,8.27l.69.91a.56.56,0,0,1,.32.69l.73,1.15a3.48,3.48,0,0,1,1.25,3l.53,1.55c.27.93.55,1.86.82,2.79-.08.1-.25.24-.23.3a4.14,4.14,0,0,0,.36.6l.27,1.36c.18.46.35.92.52,1.38.13.76.26,1.52.4,2.28a2.33,2.33,0,0,0,.63,2.32l.27,1.46a2.24,2.24,0,0,0,.61,2.22c.57,1.8,1.35,3.55,1.14,5.51-1.36,1.17-.54,1.58.64,1.86.12.81.24,1.63.35,2.44a2.15,2.15,0,0,0,.64,2.14q2.05,8.37,4.12,16.75c.5,1.67.26,3.56,1.4,5.06v.32a26.86,26.86,0,0,0,1.59,7.46c.16.59.33,1.19.49,1.79-.07.88-.16,1.76.64,2.41v.3c.14,1.17-.12,2.44.89,3.38l-.09.26.53,2.7a1.77,1.77,0,0,0,.61,1.92c.65,6,.65,6-5.68,6.5-1.21.09-2.42.25-3.64.32a193.51,193.51,0,0,1-53.15-3.44c.18-5.5.27-11,.54-16.51,1.26-26,.39-52.37,10.32-77.26.78-1.95.27-3.33-1.42-4.75-3.76-3.13-7.21-6.62-10.9-9.83-1.79-1.55-3.53-4.86-5.5-4.12-2.66,1-3.05,4.68-3.68,7.52a13.26,13.26,0,0,0,.17,5.46c1.4,7.19,2.79,14.39,4,21.62.34,2.05.48,4.36-1.73,5.8s-3.8-.11-5.47-1.05a88,88,0,0,1-15.46-11.43c-12.1-10.78-23.5-22.34-36.14-32.54-7.1-5.74-14.34-6.66-22.47-2.2-10.86,6-21.85,11.66-32.26,18.39-5.22,3.37-10.71,6.42-15.06,11-4-2.23-5.13-6.46-7.23-10q25.68-16,51.35-32c10.47-6.56,18.38-15.21,21.22-27.61,1.38-6,4.56-12,3-18.32A241.7,241.7,0,0,0,839,501c-2-4.46-3.35-9.54-10.12-7.38-.51.16-1.18-.24-1.78-.37-8-1.81-13.67-7-17.38-13.89-6.61-12.2-9.58-25.92-15.22-38.6-3.85-8.68-.22-18.42,11.73-19.48,2.22-.2,2.85-1.06,2.14-3.32a133.13,133.13,0,0,1-5.76-39.71c0-1.32.48-2.8-1-3.76,2.22-2.9,2-6.62,3.29-9.82C807.17,359.3,809.51,354,811.79,348.65ZM901,635.53c0,.67.44.88,1,1a4.61,4.61,0,0,0,3.59,2.16c.55-9.37-3.6-18.68.84-27.75,4.21-8.6,11.07-15.09,18.07-22.1-21.14-8.18-41.39-16.95-60.6-29.16-.47,3.2-.92,5.56-1.13,7.94-.16,1.81,0,3.65,0,5.47,2,27.46,17.17,46.86,38.19,62.71Zm37.3-56.86c-1.6.39-2,1.83-2.19,3.4-.09,1,.28,1.84,1.59,1.5,1.9-.51,2-2.11,2.18-3.63C940,578.91,939.43,578.59,938.28,578.67Zm24.3-33c-1.13,0-1.62.47-1.52,1.34s.83,1.13,1.61,1.12,1.52-.3,1.31-1.26A1.55,1.55,0,0,0,962.58,545.66ZM885.47,305.35c-.33.17-.75.3-.74.38,0,.4.1.92.36,1.13a.53.53,0,0,0,.87-.44C886,306.07,885.65,305.71,885.47,305.35Zm65,323.25c-.1.23-.2.47-.31.7.24.1.53.34.7.27s.21-.43.32-.67ZM943,588.42c-.24-.1-.52-.34-.69-.27s-.23.43-.33.67c.24.1.52.34.69.27S942.85,588.66,943,588.42Z"/><path class="cls-3" d="M811.79,348.65c-2.28,5.34-4.62,10.65-6.83,16-1.31,3.2-1.07,6.92-3.29,9.82-3.68,2.61-6.1,6.38-8.74,9.86Q734.79,461,752.4,555.55A188.94,188.94,0,0,0,778,621.78c2.1,3.55,3.28,7.78,7.23,10,2.67,7,7.88,12.2,12.59,17.73,1.65,1.93,3.43.31,4.87-.7,4.86-3.43,9.54-7.13,14.48-10.44,8.11-5.45,16.17-11,25.94-13.29a14.18,14.18,0,0,1,12.91,3c11.91,10.29,24.51,19.66,37.11,29.06,7.07,5.27,11.91,12.33,13.17,21.28,1.3,9.24.87,18.5.46,27.84-.69,15.4-2.92,11.72,10.85,14.91.89.21,1.79.36,2.68.54a193.51,193.51,0,0,0,53.15,3.44c1.22-.07,2.43-.23,3.64-.32,6.33-.5,6.33-.5,5.68-6.5,2.23,1.25,2.43,5.3,6.14,4.49,9.63-2.11,19.39-3.72,28.82-6.49a263.11,263.11,0,0,0,25.1-9.31c12.87-5.25,24.36-12.65,36.12-19.79,6.56-4,12.15-9.12,18-13.92,6.43-5.29,12.91-10.65,18-17.44,5.46-7.23,12.22-13.39,16.91-21.33,2.74-4.64,7.33-8.28,5.39-14.55,2.7,3.45,4.64,3.49,6.46-.93,1.52-3.7,4.13-6.93,5.29-10.85.7-1.17,1.49-2.3,2.07-3.53,18.39-38.84,24.53-79.68,18-122-8.68-56.14-35.93-101.82-80.94-136.53-34.11-26.3-73-40.4-116-43-17.44-1.07-34.86-.32-52,3.64l-4.61,0a85.06,85.06,0,0,0-19.86-4.42l-2.18-.88c15.21-4.13,30.53-7.52,46.31-8.88,40.55-3.5,79.52,2.7,115.92,20.8,69.74,34.67,112.41,90.74,124.13,167.75,10.9,71.61-9.74,134.78-59.81,187.52-35,36.9-78.3,59.13-128.61,65.79-71.11,9.41-133.61-10.46-185.92-59.92-36.58-34.59-59-77.31-65.83-127.09-10.31-75.26,11.93-140.17,66-193.89,1.63-1.62,3.21-3.27,4.81-4.91l-.07,0Z"/><path class="cls-4" d="M893.53,301.4l2.18.88c-1.31,2.24-3.55,1.56-5.37,1.41-14.43-1.22-27.08,3.74-39,11.19a16.8,16.8,0,0,0-4.63,4.34c-1.51,2.12-3.14,3.79-5.82,3.85-4.25.09-4.72,4.52-7.25,6.6-3.63,3-7.61,5.88-10.73,9.7a44,44,0,0,1-5.49,6c-1.13.95-2.1,1.68-3.57,1.58,12.91-17.83,28.84-32,49.24-40.78C872.86,302,883,300.77,893.53,301.4Z"/><path class="cls-4" d="M813.74,347.2c0,.53,0,1.13-.71,1.24A1,1,0,0,1,813.74,347.2Z"/><path class="cls-4" d="M810.44,348.59l.07,0Z"/><path class="cls-5" d="M1137.29,620c1.94,6.27-2.65,9.91-5.39,14.55-4.69,7.94-11.45,14.1-16.91,21.33-5.14,6.79-11.62,12.15-18,17.44-5.83,4.8-11.42,9.94-18,13.92-11.76,7.14-23.25,14.54-36.12,19.79a263.11,263.11,0,0,1-25.1,9.31c-9.43,2.77-19.19,4.38-28.82,6.49-3.71.81-3.91-3.24-6.14-4.49a1.77,1.77,0,0,1-.61-1.92c.7-.21,1.42-.44,1.35-1.38-.1-1.16-1-1.22-1.88-1.32l.09-.26c.09-1.23.45-2.52-.89-3.38v-.3c0-.87.17-1.77-.64-2.41-.16-.6-.33-1.2-.49-1.79,2.75-3.19.91-5.39-1.59-7.46v-.32c-.25-1.75,1.08-3.94-1.4-5.06q-2.06-8.38-4.12-16.75a2,2,0,0,0-.64-2.14c-.11-.81-.23-1.63-.35-2.44a1.9,1.9,0,0,0-.64-1.86c.21-2-.57-3.71-1.14-5.51a2.28,2.28,0,0,0-.61-2.22l-.27-1.46a2.3,2.3,0,0,0-.63-2.32c-.14-.76-.27-1.52-.4-2.28-.17-.46-.34-.92-.52-1.38l-.27-1.36-.13-.9c-.27-.93-.55-1.86-.82-2.79l-.53-1.55a3.48,3.48,0,0,0-1.25-3l-.73-1.15a.56.56,0,0,0-.32-.69l-.69-.91a35.76,35.76,0,0,0-5.55-8.27l-.81-1.13-6.6-9.89,1.25-3.5,0,.06c.17-.39.35-.77.53-1.15.4-1.13.81-2.27,1.22-3.4l.6-1.19.39-1.33a1.14,1.14,0,0,0,.55-1.43,2.45,2.45,0,0,0,.2-.88c.28-.09.57-.16.86-.23,5.23,2,8.5,5.47,8.31,11.49a32.38,32.38,0,0,0,.29,7.7c.47,2.22-.07,5.41,2.66,6.33,2.4.8,3.19-2.4,5.08-3.25.91,1.21,1.63,2.65,3.37,2.89.86.77,1.7,1.05,2.52-.07l-.05,0a1.83,1.83,0,0,0,1.71-2l0,0a1.64,1.64,0,0,0,.83-1.76.52.52,0,0,0,.21-.68l.6-1.15.38-1.44.6-1.32a21.87,21.87,0,0,0,2.16-6.92l.56-1.35c.07-.31.13-.63.2-.94,3.85-9.75,8.09-19.35,11.29-29.37,2.69-8.39,1.19-16.51-1.47-24.54,1.6-.7,2.67,0,3.82.26,19.56,4.88,39.07,9.88,59.26,11.63,11.72,1,23.38,2.72,34.59,6.59,18.57,6.41,30.42,20.91,42.45,35.19-.29,2,.45,3.07,2.57,3Z"/><path class="cls-4" d="M1134.64,616.9c-12-14.28-23.88-28.78-42.45-35.19-11.21-3.87-22.87-5.58-34.59-6.59-20.19-1.75-39.7-6.75-59.26-11.63-1.15-.29-2.22-1-3.82-.26,2.66,8,4.16,16.15,1.47,24.54-3.2,10-7.44,19.62-11.29,29.37l-4.44-.91a172.75,172.75,0,0,1,7.63-21.43,32.35,32.35,0,0,0,2.53-16.5c-1.6-15.09-8.29-28.45-13.86-42.24-.64.28-1,.32-1.14.51-2.1,2.39-4.18,4.81-6.27,7.21.6-3.89-3.52-2.15-4.69-3.94,2.39-1.86,4.83-3.66,6.45-6.3a18.34,18.34,0,0,0,4.65-6.73c3.87-9,7.89-17.88,11.54-26.94,4.3-10.69,3.88-21.55.52-33.42l-2.6,4.84a47.78,47.78,0,0,1,1-23c1.89-6,3.19-12.1,2.65-18.47s-1.08-6.71-6.3-3.28A5.43,5.43,0,0,1,981,427c0-.43-.19-1.09,0-1.26,4.8-3.85,4.64-8.32,1.86-13.25a23.28,23.28,0,0,1-1.39-4.14c-2.87,3-5.65,6.17-10.25,3.21-.35-.22-1.17.17-1.73.39-4.26,1.72-8.68,1.19-13.09.93-.43-.56-.91-.77-1.5-.2l1.14.61c4,3.47,8.66,2.78,13.91,1.72-7.17,5.12-13.87,3.58-25.65-5.71a42.67,42.67,0,0,0,10.12,16.66c1,1.08,3.13,1.61,2.65,3.8-2.39.14-4-2.27-6.56-2.33a12.46,12.46,0,0,0,5.93,8.47c7.57,5,7.35,12.09,0,16.71-4.08,2.57-8.33,2.05-12.67,1.4l-2.39.68h-1.8c-4.34-.72-7,3-10.84,4-9.84,2.38-14.4-.16-16-9.72.68-5.34,4.44-7.94,8.87-9.95-1.62,3.15-4.86,5.58-4.16,9.77.32,1.92,1.67,4,3,2.85,2.5-2.13,6.86-2.65,7.3-6.74s2-3,4.2-1.36c2.8,2.05,5.62,4.31,9.52,3.5,5.43-1.18,7.69-5.61,5.93-11.44-3.48-11.46-9.88-21.84-12.07-33.82-.8-4.42-4-5.15-9.53-3.26-3.56.42-4.84,2.52-4.73,6a36.88,36.88,0,0,0,1.68,8.46c1.09,4.1,3.51,7.76,3.94,12.06-1.63-1.78-3.3-3.54-4.89-5.36-2.5-2.85-3.84-1.85-5.06,1.21-1.42,3.61-3.19,7.07-4.8,10.6-1.46,0-1.91-.43-1.22-1.92a62.12,62.12,0,0,0,2.46-6.29c1.33-3.91-3.09-3.68-3.89-6.18-.37-1.16-2.74.9-3.67,2.24a32.63,32.63,0,0,1-5.84,6.4c-5,4.21-13.45,5.38-17.58,2.32,5.65-.07,10.9-.66,14.6-5.3.43-.34.76-.72.49-1.33l.47-.24c-.07,0-.18,0-.22,0a1.27,1.27,0,0,0-.21.29l-1.17.65-1.6.08-.06-3.76c2.13-1.06,4.3-2.06,6.38-3.21.84-.47,2.19-1.39.36-2.15-2.2-.92-4.63-2.07-6.86-1.87-2,.18-.13,2.77-.84,4.14-.42.79-.78,1.62-1.16,2.43-4.36-2.47-4.36-2.47-6.31.38-1.1-1.45-.75-2.68.11-4.13a2.21,2.21,0,0,0-1.12-3.38c-1.28-.48-2.61-.44-3.33,1.36-1.9,4.75-5.34,2.07-8.31,1.56a15.53,15.53,0,0,0,2.76-1.57c6.4-5.45,13.71-6.26,21.46-4,4.45,1.3,8.75,3.06,13.18,4.63.32-4.38.32-4.38,1.38-5.29,3.55-3,3.17-5.45-1.08-7.22-5.91-2.47-12.12-2.75-18.39-2.71,1.84-1.05,5.67-.53,3.64-4.63a38.12,38.12,0,0,1,19.86,4.12c1.85,1,3.1,1.08,4.93-.06,4.57-2.85,9.56-3,14.53-1.2,1.79.63,2.86.73,4.26-.92,5.23-6.19,12.2-9.35,20-11.21,5-1.2,10.29.06,15.25-1.95-.59-1.7-2-2-3.22-2.51-10.71-4.37-20.6-1.74-30.2,3.57-1.71.95-3.63,3.75-5.4,1.76-1.39-1.57.92-3.85,2-5.65a6.29,6.29,0,0,1,1.49-1.72c7.67-6.21,16.27-10.28,26.27-10.62,8.44-.3,9-1.05,5.87-9-.73-1.84-1.6-3.63-2.5-5.39-4-7.92-10.45-13.8-17-19.5.09-.11.2-.23.29-.35,1.22-1.62,4.54.35,4.6-1.77.06-2.28-3.25-3.07-4.82-3.3-3.52-.49-4.23-3.59-6.42-5.14a40.34,40.34,0,0,0-9.63-5.13c-6.67-2.37-13.13-5.42-20.16-6.8-2.19-.43-1.26-2-.77-3.22l4.61,0c.76,2.35,3.12,2.37,4.84,2.95a115.26,115.26,0,0,1,16.4,7.12c25.4,13.4,42,32.8,42.32,63.05,0,2.83,1.31,4.34,3.74,5,3.13.81,4.35,2.76,4.78,5.86,1.11,7.87,2.65,15.69.75,23.66a10.87,10.87,0,0,0,.26,5.9,39.08,39.08,0,0,1,.17,22.62c-1.78,6.46-1.27,12.6.68,18.91,4.54,14.73,5.7,29.43-1.54,43.78a122.08,122.08,0,0,0-6,14.39c-4.59,13,2.56,28.2,15.51,33.06,22.72,8.53,46.66,10.68,70.43,13.82,12.86,1.7,25.83,3.29,37.46,9.79,12.29,6.87,22.35,16.48,32.38,26.16,2,2,3.58,4.66,6.64,5.42-1.16,3.92-3.77,7.15-5.29,10.85-1.82,4.42-3.76,4.38-6.46.93l-.08-.09ZM946.59,399.35a24.49,24.49,0,0,1,13.28-9c7.29-1.82,12.81,2.13,18.2,7-.3-2.88-.6-5.13-.74-7.39a2.35,2.35,0,0,0-2.58-2.52c-9.86-.56-19.23.75-27.31,7-4,3.06-4.74,5.59-3.43,10.82,9.09-7.28,18.61-11.95,30.92-3.56-2.08-4.41-4.82-5.71-7.56-6.87C959.5,391.49,953,395.18,946.59,399.35Zm41.88,9.26c1.35-5.82-.67-11.29-1.61-16.86-.15-.9-.9-1.86-1.83-1.78-1.58.15-1.09,1.61-1,2.53A38,38,0,0,0,988.47,408.61Zm-26.77,1c3.69-1.25,7.76-.29,8.68-3.72.64-2.41-2.54-3.89-5.12-5.52C965.47,404,964.28,406.55,961.7,409.58Zm-5.05,32.06c-3.61,3.33-3.61,3.33.08,6A6.12,6.12,0,0,0,956.65,441.64Zm-69-30.4c1.72-.72,2.93-1.15,2.87-2.82,0-.23-.69-.68-1-.62C888.11,408.09,887.73,409.18,887.61,411.24Z"/><path class="cls-6" d="M952.48,332.41c6.6,5.7,13,11.58,17,19.5.9,1.76,1.77,3.55,2.5,5.39,3.17,8,2.57,8.73-5.87,9-10,.34-18.6,4.41-26.27,10.62a6.29,6.29,0,0,0-1.49,1.72c-1,1.8-3.36,4.08-2,5.65,1.77,2,3.69-.81,5.4-1.76,9.6-5.31,19.49-7.94,30.2-3.57,1.21.49,2.63.81,3.22,2.51-5,2-10.25.75-15.25,1.95-7.79,1.86-14.76,5-20,11.21-1.4,1.65-2.47,1.55-4.26.92-5-1.76-10-1.65-14.53,1.2-1.83,1.14-3.08,1-4.93.06a38.12,38.12,0,0,0-19.86-4.12,17,17,0,0,0-6.39.22l-3.63.21a3.64,3.64,0,0,0-2.81.62l-2.75-.06c-.46-3.47,3-5.14,3.72-8l-.09-.29,1.54-.59,3.11-.25.45.08.44-.14,1.91-.1,3.51-.19,2.86-.26a5.85,5.85,0,0,0,3.66.55l2.23.31,1.44.59,1,.14a21.29,21.29,0,0,0,2,1.05c1.35.55,3,1.81,4.06.14.78-1.23-.53-2.58-1.45-3.58a17.75,17.75,0,0,0-12-5.89l-1.3-.12a33,33,0,0,0-17.1-.81l-3.68.24a9.28,9.28,0,0,0-4.58.85,6.92,6.92,0,0,0-3.69.9,7.12,7.12,0,0,0-4.68,1.65l0,0a37.84,37.84,0,0,0-9.46,3.68l-1.54-.08c.24-1,.46-2.07.72-3.1,1.82-7.14,5.67-13.68,5.16-21.54-.33-5.23,2-9.65,6.11-13.56,7.87-7.51,17.1-12.47,26.9-16.77,4.54-2,9.43-3.29,13.56-6.2l12.82-.41,4.61.25L936,324.72l1.56.27a13.66,13.66,0,0,0,5.68,1.89l0,0a5.75,5.75,0,0,0,3.66,1.94l0-.1,1.11.81,1.61,1,1.17.75Z"/><path class="cls-7" d="M920.31,721.68c-.89-.18-1.79-.33-2.68-.54-13.77-3.19-11.54.49-10.85-14.91.41-9.34.84-18.6-.46-27.84-1.26-8.95-6.1-16-13.17-21.28-12.6-9.4-25.2-18.77-37.11-29.06a14.18,14.18,0,0,0-12.91-3c-9.77,2.28-17.83,7.84-25.94,13.29-4.94,3.31-9.62,7-14.48,10.44-1.44,1-3.22,2.63-4.87.7-4.71-5.53-9.92-10.74-12.59-17.73,4.35-4.59,9.84-7.64,15.06-11,10.41-6.73,21.4-12.44,32.26-18.39,8.13-4.46,15.37-3.54,22.47,2.2,12.64,10.2,24,21.76,36.14,32.54a88,88,0,0,0,15.46,11.43c1.67.94,3.32,2.44,5.47,1.05s2.07-3.75,1.73-5.8c-1.21-7.23-2.6-14.43-4-21.62a13.26,13.26,0,0,1-.17-5.46c.63-2.84,1-6.51,3.68-7.52,2-.74,3.71,2.57,5.5,4.12,3.69,3.21,7.14,6.7,10.9,9.83,1.69,1.42,2.2,2.8,1.42,4.75-9.93,24.89-9.06,51.22-10.32,77.26C920.58,710.67,920.49,716.18,920.31,721.68Z"/><path class="cls-8" d="M970.91,533.54c-1.62,2.64-4.06,4.44-6.45,6.3l-1.8,0c-6.55-3.43-13.38-3.68-19.52.24-5.14,3.27-10.32,5-16.29,4.6l-2.78-.26c-4.08-1.69-8.14-3.36-11.74-6.05-4.34-3.25-7.46-7.63-11.14-11.48l0,0a5.36,5.36,0,0,0-1.88-3,.68.68,0,0,0-.26-.6,87.11,87.11,0,0,1-8.58-24.17c-1.75,2.6-1.79,5.07-2.37,7.4-1.23,4.91.16,10.11-1.78,14.91l-1.87.09c-6.4-4.5-8.55-11.52-10.94-18.41-.63-1.83-.85-3.81-2.66-5.11-4.63-3.31-8.09-7.71-11.14-12.46l0,0c-.66-2.44-1.31-4.88-2-7.32,0-.61-.07-1.22-.1-1.83l.21-2.72h0c2.47-.1,4.11,1.8,6.2,2.61,4.81,1.87,9.6,3.67,14.76,3.76l.45-1.17L869,471.77v0a53.58,53.58,0,0,1-12-19.56c-.06-.48-.13-1-.2-1.44.06-1.3.17-2.62-.83-3.68-.08-.63-.15-1.25-.23-1.87-.19-.44-.39-.89-.59-1.33,0-.46-.11-.93-.16-1.39a12.72,12.72,0,0,0-1.69-6.54l.08,0c.06-4.52-3.76-9.05,0-13.57L857,419.7l5.47-1.21,1,1,.74,1.09-.1,0c2.16,8.4,7.26,14.71,14.1,19.77-.61,1.21-1.57,1-2.71.89-5.08-.34-8.74-3.51-12.55-6.43-.25.52-.4.67-.38.8q.41,2.46.84,4.92c2.77,15.49,10.8,27.48,24,36.09,1.37.89,3.43,1.86,3,3.59s-2.67.62-4.06,1a15.75,15.75,0,0,1-1.78.4c-2.32.31-4.22,1.26-4.19,3.88,0,1.95.37,4.35,2.13,5.3,2.34,1.28,3.34-1.43,4.68-2.66,3.78-3.44,4.59-3.27,6.32,1.83,1,2.94,1.81,6,5.84,5.93,1.2,5.17,1.8,10.6,6,14.52,3.07,1.92,5.65,4.71,9.38,5.51,3.53.76,5.25,3.38,6.66,6.34,1.18,2.49,2.23,5,3.57,7.44,2.68,4.76,6.83,6.42,12.27,5.9,2.94-.28,5.17-1.75,7.57-3C953.67,528,962.21,532.67,970.91,533.54Z"/><path class="cls-5" d="M958,559.25q5.49-7.11,11-14.23c.26,2.68,1.75,4.88,3,7.12,12.06,21.57,11.39,44,4.47,66.79-.11.34,0,1.61-.75.3a5.12,5.12,0,0,1-.34-1.32l-.06-2.57c.12-3.39,1.19-6.76.09-10.16a1.13,1.13,0,0,0-.63-1.37c-1.92-4.2-5.4-6.72-9.37-8.72l-.87-.6c-1.47-.86-2.75-2.12-4.6-2.18l-.92-.61-1.35-.46-1.41-.59a14.31,14.31,0,0,0-6.07-2.14l-1.29-.58-1.55-.31-1.2-.55c-1.57-.45-3.11-1-4.7-1.32-1.87-.42-1.35-1.47-.82-2.59l.72-.93,2-2.79.68-.88,1.2-1.78c.26-.33.51-.66.77-1q3.3-4.56,6.59-9.11a4.82,4.82,0,0,0,2-2.78l.74-1L956,562c.39-.57.79-1.14,1.18-1.72C957.45,560,957.71,559.6,958,559.25Z"/><path class="cls-7" d="M862.74,573.05c0-1.82-.15-3.66,0-5.47.21-2.38.66-4.74,1.13-7.94,19.21,12.21,39.46,21,60.6,29.16-7,7-13.86,13.5-18.07,22.1-4.44,9.07-.29,18.38-.84,27.75a4.61,4.61,0,0,1-3.59-2.16l-1-1-.05.23c.29-1.19-.5-2-1-2.93-4.56-8.09-6.71-16.34-1.71-25.11a18.23,18.23,0,0,0,1.16-3.48c3.12-9.78,2.24-11.64-7.43-15.43-6.42-2.51-12.35-5.93-18.34-9.32C869.93,577.41,867.21,573.72,862.74,573.05Z"/><path class="cls-5" d="M862.74,573.05c4.47.67,7.19,4.36,10.85,6.44,6,3.39,11.92,6.81,18.34,9.32,9.67,3.79,10.55,5.65,7.43,15.43a18.23,18.23,0,0,1-1.16,3.48c-5,8.77-2.85,17,1.71,25.11.52.92,1.31,1.74,1,2.93C879.91,619.91,864.72,600.51,862.74,573.05Z"/><path class="cls-7" d="M975.35,617.91a5.12,5.12,0,0,0,.34,1.32c.76,1.31.64,0,.75-.3,6.92-22.83,7.59-45.22-4.47-66.79-1.25-2.24-2.74-4.44-3-7.12l.18-1.24c2.09-2.4,4.17-4.82,6.27-7.21.17-.19.5-.23,1.14-.51,5.57,13.79,12.26,27.15,13.86,42.24a32.35,32.35,0,0,1-2.53,16.5,172.75,172.75,0,0,0-7.63,21.43,8,8,0,0,0-1.24,4.06l-.59,1.43c-.1.47-.2.95-.31,1.42l-.57,1.33c-.85,1.22-.56,3-2.1,3.89l-.85-1.1c-.07-.32-.13-.64-.2-1-.26-1.38.66-2.93-.61-4.15,1.41-1,.86-2.53.88-3.89A6.24,6.24,0,0,1,975.35,617.91Z"/><path class="cls-8" d="M905.68,322.33c-4.13,2.91-9,4.21-13.56,6.2-9.8,4.3-19,9.26-26.9,16.77-4.1,3.91-6.44,8.33-6.11,13.56.51,7.86-3.34,14.4-5.16,21.54-.26,1-.48,2.07-.72,3.1l.12.42a10.11,10.11,0,0,0-4.71,1.54l-1.84.28-1.73.12-1.88-.37a8.16,8.16,0,0,1,.41-5.38c1.31-3.41,2.64-6.8,4-10.2a2,2,0,0,0,.21-.89,31.64,31.64,0,0,0,3.35-14c-.15-.4-.3-.79-.44-1.19.33-4.59,3.77-7.31,6.34-10.56l0,0a5.44,5.44,0,0,0,2.84-2.71l0,0a3.92,3.92,0,0,0,2.92-2.56l.08-.05,11.77-7.58a1.07,1.07,0,0,0,.78-.29l1-.67,0,0,13.88-5.42.07.09C895.43,324,900.39,321.84,905.68,322.33Z"/><path class="cls-8" d="M894.62,422.13l1.6-.08c.21.22.42.42.64.62-3.7,4.64-9,5.23-14.6,5.3,4.13,3.06,12.54,1.89,17.58-2.32a32.63,32.63,0,0,0,5.84-6.4c.93-1.34,3.3-3.4,3.67-2.24.8,2.5,5.22,2.27,3.89,6.18a62.12,62.12,0,0,1-2.46,6.29c-.69,1.49-.24,1.95,1.22,1.92-2.5,3.89-5.55,7.3-9.73,9.34-6.74,3.3-13.67,4.23-20.62.42-1.76-2.34-4.29-3.83-6.39-5.78-1.39-1.29-4.09-3.12.22-4.56,1.77-.59,1.62-2,.18-3.14,0-.51,0-1,0-1.54,2.91-.93,5.67-2.5,8.9-2.05l2.8-.08a9.92,9.92,0,0,0,6.47-1.68A1.09,1.09,0,0,0,894.62,422.13Z"/><path class="cls-7" d="M971.59,631.88c-1.89.85-2.68,4-5.08,3.25-2.73-.92-2.19-4.11-2.66-6.33a32.38,32.38,0,0,1-.29-7.7c.19-6-3.08-9.44-8.31-11.49a2.26,2.26,0,0,0-.19-.72c.7-1.66,1.43-3.3,2.08-5,2.45-6.31,2.43-6.31,8.06-3.25l1.1.89,0,0,1,.83c3.18,2.88,3.87,6.49,3.75,10.65C970.81,619.3,969.31,625.67,971.59,631.88Z"/><path class="cls-8" d="M892.79,397.35c6.27,0,12.48.24,18.39,2.71,4.25,1.77,4.63,4.19,1.08,7.22-1.06.91-1.06.91-1.38,5.29-4.43-1.57-8.73-3.33-13.18-4.63-7.75-2.27-15.06-1.46-21.46,4a15.53,15.53,0,0,1-2.76,1.57l-.82-.43c.09-.86.18-1.72.26-2.58l2.27-2.94,5.78-4.43v.05c9.78-4.37,18.37-.17,27,4-4.16-5.24-10.21-7.05-15.82-9.6A.7.7,0,0,0,892.79,397.35Z"/><path class="cls-8" d="M884.57,385.66c-.74,2.91-4.18,4.58-3.72,8l-1.07.93-1.72.26-1.23.64-.31,0-.27.15a8.66,8.66,0,0,0-4.7,1.78l-2.64,1.09a14.09,14.09,0,0,0-6.5,3.41l-2,.18c1.45-6.34,6.57-9.44,11.37-12.82l2.63-1.11,1.27-.7,1.46-.29a12.14,12.14,0,0,0,4.93-1.53Z"/><path class="cls-4" d="M857.09,452.23a53.58,53.58,0,0,0,12,19.56c-1.41.45-3.3-1.74-4.3.69-.43,1,.41,1.72,1.31,2,2.34.67,2.86-.83,3-2.69L879.32,479l-.45,1.17c-5.16-.09-10-1.89-14.76-3.76-2.09-.81-3.73-2.71-6.2-2.61-.08-2.38.42-3.77,3.44-3.2,1.39.26,3,.06,1.52-2.92C860.44,462.82,855.05,458.81,857.09,452.23Z"/><path class="cls-4" d="M859.75,485.66c3,4.75,6.51,9.15,11.14,12.46,1.81,1.3,2,3.28,2.66,5.11,2.39,6.89,4.54,13.91,10.94,18.41-1.63,1.62-2.87.4-3.8-.76-4-5-8.93-9.28-9.22-16.61-.18-4.75-5-7.14-8.14-9.91S859.65,489.09,859.75,485.66Z"/><path class="cls-4" d="M886.36,521.55c1.94-4.8.55-10,1.78-14.91.58-2.33.62-4.8,2.37-7.4a87.11,87.11,0,0,0,8.58,24.17c-3.12-.45-5.7-1.24-4.6-5.42.23-.86-.42-2.06-.9-3s-1.22-2.41-2.64-2.08-.59,1.83-.94,2.75C889.17,517.86,891.06,521.78,886.36,521.55Z"/><path class="cls-4" d="M875.66,427.68c1.44,1.15,1.59,2.55-.18,3.14-4.31,1.44-1.61,3.27-.22,4.56,2.1,1.95,4.63,3.44,6.39,5.78l-3.46-.81c-6.84-5.06-11.94-11.37-14.1-19.77a5.82,5.82,0,0,1,4.75,4.11C870,427.68,871.91,430.07,875.66,427.68Z"/><path class="cls-4" d="M901.19,526.94c3.68,3.85,6.8,8.23,11.14,11.48,3.6,2.69,7.66,4.36,11.74,6.05-5.08,1.51-9-1.62-13.05-3.6-3-1.49-4.9-4.64-8.23-6.27C900.84,533.64,900.8,529.75,901.19,526.94Z"/><path class="cls-4" d="M892.14,397.57c5.61,2.55,11.66,4.36,15.82,9.6-8.62-4.17-17.21-8.37-27-4,.4-3.84,4-3.45,6.34-4.65C888.71,397.79,890.51,397.86,892.14,397.57Z"/><path class="cls-4" d="M926.85,544.73c6,.36,11.15-1.33,16.29-4.6,6.14-3.92,13-3.67,19.52-.24-1,2.26-2.37,1.05-3.75.5-5.41-2.14-10.19-2.08-15.14,2S932.83,546.31,926.85,544.73Z"/><path class="cls-4" d="M905.68,322.33c-5.29-.49-10.25,1.66-15.44,1.88-.22-3.48,2.82-3.59,4.73-3.69,6.65-.35,13.33-.18,20-.24a3.63,3.63,0,0,1,3.53,1.64Z"/><path class="cls-4" d="M871.8,389.3c-4.8,3.38-9.92,6.48-11.37,12.82-1.75-.36-3.14-1.41-2.18-3.16a26.4,26.4,0,0,1,9.67-10.15C869.34,388,870.56,388.68,871.8,389.3Z"/><path class="cls-4" d="M899.23,377.23a17.75,17.75,0,0,1,12,5.89c.92,1,2.23,2.35,1.45,3.58-1.06,1.67-2.71.41-4.06-.14a21.29,21.29,0,0,1-2-1.05c1.4-4.11-1.78-4.82-4.4-5.37C900.3,379.74,899.05,379.42,899.23,377.23Z"/><path class="cls-9" d="M892.44,417.71c.38-.81.74-1.64,1.16-2.43.71-1.37-1.12-4,.84-4.14,2.23-.2,4.66.95,6.86,1.87,1.83.76.48,1.68-.36,2.15-2.08,1.15-4.25,2.15-6.38,3.21C893.8,418.33,892.78,419.09,892.44,417.71Z"/><path class="cls-4" d="M847.56,369.91c-1.32,3.4-2.65,6.79-4,10.2a8.16,8.16,0,0,0-.41,5.38c-1.11,1.1-2.84,1.1-2.46-.46C842.06,379.62,841.56,373.23,847.56,369.91Z"/><path class="cls-4" d="M853.46,422.38c-3.75,4.52.07,9.05,0,13.57-2.88-.62-4.63-3.14-3.5-5.19C851.48,428,846.75,422.68,853.46,422.38Z"/><path class="cls-4" d="M880.83,376.3a33,33,0,0,1,17.1.81C892.19,377.56,886.47,377.89,880.83,376.3Z"/><path class="cls-4" d="M890.17,324.12l-13.88,5.42a2.53,2.53,0,0,1,2-3C882.15,325.22,886,324.07,890.17,324.12Z"/><path class="cls-4" d="M857,343.31c-2.57,3.25-6,6-6.34,10.56C848.76,346.65,850.2,344.25,857,343.31Z"/><path class="cls-4" d="M874.59,330.47l-11.77,7.58c.09-.71,0-1.91.29-2.05C867,334.3,869.57,329.79,874.59,330.47Z"/><path class="cls-4" d="M851.12,355.06a31.64,31.64,0,0,1-3.35,14C848,364.14,847.59,359.14,851.12,355.06Z"/><path class="cls-4" d="M884.51,424.09c-3.23-.45-6,1.12-8.9,2.05-1.52-3.83,1.47-4.3,3.87-5.22l.17.07c-.35.88-.51,1.84.76,1.88s1.09-1,1-1.9h0C883.11,421.36,883.86,422.68,884.51,424.09Z"/><path class="cls-4" d="M936,324.72l-12.88-2.55C927.08,320.83,933.85,322.17,936,324.72Z"/><path class="cls-4" d="M854.77,383.58a37.84,37.84,0,0,1,9.46-3.68C862.88,385.78,858.43,383.66,854.77,383.58Z"/><path class="cls-10" d="M879.65,421l-.17-.07a20.62,20.62,0,0,1-3.33-1.21c-1.44-.82-.57-1.73.17-2.5s1.32-.92,2.06.21a31.8,31.8,0,0,0,3.06,3.54h0C880.83,420.14,880.24,420.74,879.65,421Z"/><path class="cls-4" d="M848.64,385.46a10.11,10.11,0,0,1,4.71-1.54,7.26,7.26,0,0,0-.32,1.75c.08,1.19,3.59,1.43,1.13,3.19-1.73,1.23-2.41-.82-3.34-1.92A9.19,9.19,0,0,0,848.64,385.46Z"/><path class="cls-4" d="M862.41,401.94a14.09,14.09,0,0,1,6.5-3.41C868.3,402.73,866.59,403.63,862.41,401.94Z"/><path class="cls-4" d="M938.28,578.67c1.15-.08,1.72.24,1.58,1.27-.21,1.52-.28,3.12-2.18,3.63-1.31.34-1.68-.48-1.59-1.5C936.23,580.5,936.68,579.06,938.28,578.67Z"/><path class="cls-4" d="M950.94,619.16l-1.25,3.5c-1.37-.46-4.1,1-3.91-1.48C946,618.17,948.88,619.07,950.94,619.16Z"/><path class="cls-4" d="M857.8,478.36c.66,2.44,1.31,4.88,2,7.32C856,483.73,855.25,481.06,857.8,478.36Z"/><path class="cls-4" d="M881,403.12l-5.78,4.43c-2.75-1.93.42-2.17,1-3C877.28,402.89,879.13,402.85,881,403.12Z"/><path class="cls-11" d="M978.11,698.08c2.5,2.07,4.34,4.27,1.59,7.46A26.86,26.86,0,0,1,978.11,698.08Z"/><path class="cls-4" d="M853.39,436a12.72,12.72,0,0,1,1.69,6.54C850.15,441.47,853.83,438.19,853.39,436Z"/><path class="cls-4" d="M943.23,326.88a13.66,13.66,0,0,1-5.68-1.89C939.26,326.17,943.07,321.05,943.23,326.88Z"/><path class="cls-4" d="M862.48,418.49,857,419.7C858.09,415.92,860.17,416.68,862.48,418.49Z"/><path class="cls-4" d="M962.58,545.66a1.55,1.55,0,0,1,1.4,1.2c.21,1-.51,1.24-1.31,1.26s-1.5-.23-1.61-1.12S961.45,545.66,962.58,545.66Z"/><path class="cls-4" d="M871.55,397.44a8.66,8.66,0,0,1,4.7-1.78C876.2,400.25,873.31,397.34,871.55,397.44Z"/><path class="cls-4" d="M872.57,377.39a9.28,9.28,0,0,1,4.58-.85C875.73,377.39,874.78,380.72,872.57,377.39Z"/><path class="cls-4" d="M893.78,422.33a9.92,9.92,0,0,1-6.47,1.68C889.12,422.11,891.45,422.23,893.78,422.33Z"/><path class="cls-4" d="M882.09,385.67a12.14,12.14,0,0,1-4.93,1.53C877.74,383.26,880.53,386.44,882.09,385.67Z"/><path class="cls-4" d="M856.06,447.11c1,1.06.89,2.38.83,3.68C854.46,450.05,854.77,448.69,856.06,447.11Z"/><path class="cls-4" d="M946.86,328.78a5.75,5.75,0,0,1-3.66-1.94C944.74,326.89,946.76,326,946.86,328.78Z"/><path class="cls-4" d="M862.74,338.1a3.92,3.92,0,0,1-2.92,2.56C859.85,338.72,860.6,337.63,862.74,338.1Z"/><path class="cls-4" d="M864.2,379.94a7.12,7.12,0,0,1,4.68-1.65C867.83,380.3,866,380.07,864.2,379.94Z"/><path class="cls-4" d="M879.78,394.64l1.07-.93,2.75.06C883,396.85,881.24,395.15,879.78,394.64Z"/><path class="cls-4" d="M859.84,340.62a5.44,5.44,0,0,1-2.84,2.71C856.77,341.2,857.7,340.27,859.84,340.62Z"/><path class="cls-4" d="M902,384.47a5.85,5.85,0,0,1-3.66-.55C899.85,381.9,900.81,383.8,902,384.47Z"/><path class="cls-4" d="M857.91,473.81l-.21,2.72c-.72-.16-1.44-.36-1.49-1.26C856.16,474.1,857,473.91,857.91,473.81Z"/><path class="cls-4" d="M886.41,393.15l3.63-.21C889,396.07,887.65,393.66,886.41,393.15Z"/><path class="cls-4" d="M872.92,410.49c-.08.86-.17,1.72-.26,2.58-.91-.09-1.81-.32-1.7-1.45S872,410.47,872.92,410.49Z"/><path class="cls-11" d="M981.64,713.68c.87.1,1.78.16,1.88,1.32.07.94-.65,1.17-1.35,1.38Z"/><path class="cls-4" d="M899.35,524a5.36,5.36,0,0,1,1.88,3C899.08,527,899.23,525.47,899.35,524Z"/><path class="cls-11" d="M976.71,692.7c2.48,1.12,1.15,3.31,1.4,5.06C977,696.26,977.21,694.37,976.71,692.7Z"/><path class="cls-4" d="M954.55,563.91a4.82,4.82,0,0,1-2,2.78C952.5,565.24,952.6,563.92,954.55,563.91Z"/><path class="cls-4" d="M885.47,305.35c.18.36.49.72.49,1.07a.53.53,0,0,1-.87.44c-.26-.21-.31-.73-.36-1.13C884.72,305.65,885.14,305.52,885.47,305.35Z"/><path class="cls-4" d="M950.46,628.6l.71.3c-.11.24-.16.6-.32.67s-.46-.17-.7-.27C950.26,629.07,950.36,628.83,950.46,628.6Z"/><path class="cls-4" d="M973.79,622.15c1.27,1.22.35,2.77.61,4.15C973.28,625.05,973.77,623.56,973.79,622.15Z"/><path class="cls-4" d="M943,588.42c-.1.24-.16.6-.33.67s-.45-.17-.69-.27c.1-.24.16-.61.33-.67S942.71,588.32,943,588.42Z"/><path class="cls-4" d="M979.14,632.75a1.83,1.83,0,0,1-1.71,2A1.68,1.68,0,0,1,979.14,632.75Z"/><path class="cls-4" d="M971,669.51a1.9,1.9,0,0,1,.64,1.86C970.42,671.09,969.6,670.68,971,669.51Z"/><path class="cls-4" d="M895.44,384.18l-3.51.19A2.83,2.83,0,0,1,895.44,384.18Z"/><path class="cls-4" d="M975.35,617.91a6.24,6.24,0,0,0-.68.35c-.1-1-.24-2.09.62-2.92Z"/><path class="cls-11" d="M980.84,710c1.34.86,1,2.15.89,3.38C980.72,712.48,981,711.21,980.84,710Z"/><path class="cls-4" d="M974.6,627.26l.85,1.1C974.2,628.74,974.75,627.73,974.6,627.26Z"/><path class="cls-11" d="M980.19,707.33c.81.64.67,1.54.64,2.41C980,709.09,980.12,708.21,980.19,707.33Z"/><path class="cls-4" d="M977.48,634.7c-.82,1.12-1.66.84-2.52.07Z"/><path class="cls-4" d="M980,630.94a1.64,1.64,0,0,1-.83,1.76C979.44,632.12,979.72,631.53,980,630.94Z"/><path class="cls-4" d="M968.31,658a2.3,2.3,0,0,1,.63,2.32A2.33,2.33,0,0,1,968.31,658Z"/><path class="cls-4" d="M969.21,661.78a2.28,2.28,0,0,1,.61,2.22A2.24,2.24,0,0,1,969.21,661.78Z"/><path class="cls-4" d="M972,673.81a2,2,0,0,1,.64,2.14A2.15,2.15,0,0,1,972,673.81Z"/><path class="cls-4" d="M845.07,385.86l1.73-.12A1,1,0,0,1,845.07,385.86Z"/><path class="cls-4" d="M958,559.25c-.27.35-.53.7-.8,1Z"/><path class="cls-4" d="M953.25,613.48l-.6,1.19Z"/><path class="cls-4" d="M947.93,329.49l-1.11-.81Z"/><path class="cls-4" d="M954.19,610.72a1.14,1.14,0,0,1-.55,1.43C953.82,611.67,954,611.2,954.19,610.72Z"/><path class="cls-4" d="M955.06,608.89a2.26,2.26,0,0,1,.19.72c-.29.07-.58.14-.86.23Z"/><path class="cls-4" d="M956,562l-.71.92Z"/><path class="cls-4" d="M974.75,603.81a1.13,1.13,0,0,1,.63,1.37Z"/><path class="cls-4" d="M967.25,602.37l-1-.83Z"/><path class="cls-4" d="M966.3,601.56l-1.1-.89Z"/><path class="cls-4" d="M876.32,329.51l-1,.67Z"/><path class="cls-4" d="M964.51,594.49l.87.6Z"/><path class="cls-4" d="M959,591.7l.92.61Z"/><path class="cls-4" d="M956.23,590.65l1.41.59Z"/><path class="cls-4" d="M948.87,587.93l1.29.58Z"/><path class="cls-4" d="M950.71,331.23l-1.17-.75Z"/><path class="cls-4" d="M946.12,587.07l1.2.55Z"/><path class="cls-4" d="M941.32,582.23l-.72.93Z"/><path class="cls-4" d="M946,575.8l-.77,1C945.47,576.45,945.72,576.12,946,575.8Z"/><path class="cls-4" d="M944,578.56l-.68.88Z"/><path class="cls-4" d="M967.39,654.34c.18.46.35.92.52,1.38C967.74,655.26,967.57,654.8,967.39,654.34Z"/><path class="cls-4" d="M967,652.08c0,.3.08.6.13.9a4.14,4.14,0,0,1-.36-.6C966.74,652.32,966.91,652.18,967,652.08Z"/><path class="cls-4" d="M965.64,647.74l.53,1.55Z"/><path class="cls-4" d="M963.66,643.55l.73,1.15Z"/><path class="cls-4" d="M962.65,642l.69.91Z"/><path class="cls-5" d="M901,635.53l1,1C901.42,636.41,901,636.2,901,635.53Z"/><path class="cls-4" d="M864.19,420.62l-.74-1.09Z"/><path class="cls-4" d="M984.5,618.08l-.56,1.35Z"/><path class="cls-4" d="M876.83,395.54l1.23-.64Z"/><path class="cls-4" d="M956.29,632.55l.81,1.13Z"/><path class="cls-4" d="M980.8,629.11l-.6,1.15Z"/><path class="cls-4" d="M981.78,626.35l-.6,1.32Z"/><path class="cls-4" d="M855.24,443.91c.2.44.4.89.59,1.33C855.63,444.8,855.44,444.35,855.24,443.91Z"/><path class="cls-4" d="M875.7,387.49l-1.27.7Z"/><path class="cls-4" d="M977.55,624.47l.57-1.33Z"/><path class="cls-4" d="M905.63,385.37l-1.44-.59Z"/><path class="cls-4" d="M978.43,621.72l.59-1.43Z"/><path class="cls-4" d="M886,384.78l-1.54.59Z"/><path class="cls-4" d="M951.43,618.07c-.18.38-.36.76-.53,1.15C951.07,618.84,951.25,618.45,951.43,618.07Z"/><path class="cls-4" d="M890,384.47l-.44.14-.45-.08C889.4,384.1,889.69,384.06,890,384.47Z"/><path class="cls-11" d="M1134.64,616.9l2.57,3C1135.09,620,1134.35,618.88,1134.64,616.9Z"/><path class="cls-6" d="M970.91,533.54c-8.7-.87-17.24-5.58-26.17-1-2.4,1.23-4.63,2.7-7.57,3-5.44.52-9.59-1.14-12.27-5.9-1.34-2.39-2.39-4.95-3.57-7.44-1.41-3-3.13-5.58-6.66-6.34-3.73-.8-6.31-3.59-9.38-5.51.83-3.93-2.9-6.93-2.21-10.83,3.1-.75,5.76-2.89,9.11-2.86,4.07.55,8.22.77,12.2,1.71,16.83,3.95,32,1.15,45.16-10.52,2.15-1.89,2.6-2.9-.06-4.62-3.58-2.3-7-4.89-10.42-7.41-3.63-2.69-7.58-3.81-12-2.65.27-6.63-2.51-12.75-3.18-19.22,4.34.65,8.59,1.17,12.67-1.4,7.32-4.62,7.54-11.73,0-16.71a12.46,12.46,0,0,1-5.93-8.47c2.54.06,4.17,2.47,6.56,2.33l0,0,1.83,1.09A29.38,29.38,0,0,0,980.16,428c.31-.37.61-.75.91-1.12l0,0a5.43,5.43,0,0,0,1.29-.43c5.22-3.43,5.77-3.13,6.3,3.28s-.76,12.44-2.65,18.47a47.78,47.78,0,0,0-1,23l2.6-4.84c3.36,11.87,3.78,22.73-.52,33.42-3.65,9.06-7.67,18-11.54,26.94A18.34,18.34,0,0,1,970.91,533.54Zm-10.74-22.06c-8.48-6.79-20.75-5-25.57,4.65C943,509.43,951.37,509,960.17,511.48Zm18-12.26c5.94-7.79,4.27-22.68-3-28.63,1.72,5.08,3.51,9.26,4,13.77S979.09,493.55,978.15,499.22Z"/><path class="cls-6" d="M878.19,440.35l3.46.81c7,3.81,13.88,2.88,20.62-.42,4.18-2,7.23-5.45,9.73-9.34,1.61-3.53,3.38-7,4.8-10.6,1.22-3.06,2.56-4.06,5.06-1.21,1.59,1.82,3.26,3.58,4.89,5.36,0,1.94,0,3.89.12,5.82.27,4-1,7-5.2,8.2-4.43,2-8.19,4.61-8.87,9.95-3.86,1.75-3.9,5.9-5.36,9-3.73,7.94-6.53,16.22-6.24,25.21-1.06,4.17-2.07,8.35-1.93,12.7-4,.07-4.85-3-5.84-5.93-1.73-5.1-2.54-5.27-6.32-1.83-1.34,1.23-2.34,3.94-4.68,2.66-1.76-.95-2.1-3.35-2.13-5.3,0-2.62,1.87-3.57,4.19-3.88a15.75,15.75,0,0,0,1.78-.4c1.39-.34,3.61.78,4.06-1s-1.62-2.7-3-3.59c-13.15-8.61-21.18-20.6-24-36.09q-.43-2.46-.84-4.92c0-.13.13-.28.38-.8,3.81,2.92,7.47,6.09,12.55,6.43C876.62,441.31,877.58,441.56,878.19,440.35Z"/><path class="cls-8" d="M901.2,483.15c-.29-9,2.51-17.27,6.24-25.21,1.46-3.12,1.5-7.27,5.36-9,1.62,9.56,6.18,12.1,16,9.72,3.83-.93,6.5-4.7,10.84-4-2.49,6.18-1.18,12.92-2.82,19.22-12.29,3.2-17.83,13.69-24.65,22.8-3.35,0-6,2.11-9.11,2.86-1.61-4.58-.89-9.18-.32-13.82C902.86,484.92,904.52,482.24,901.2,483.15Z"/><path class="cls-6" d="M925.86,398.47c5.48-1.89,8.73-1.16,9.53,3.26,2.19,12,8.59,22.36,12.07,33.82,1.76,5.83-.5,10.26-5.93,11.44-.4-2.08-2.39-2.7-3.74-3.81a9.12,9.12,0,0,1-3.63-6.59A50.62,50.62,0,0,0,930,420.75C927.09,413.59,925.36,406.26,925.86,398.47Z"/><path class="cls-8" d="M980.16,428a29.38,29.38,0,0,1-21.25,2.73c.1-1.3-.17-1.47-1.83-1.09l0,0c.48-2.19-1.6-2.72-2.65-3.8a42.67,42.67,0,0,1-10.12-16.66c11.78,9.29,18.48,10.83,25.65,5.71-5.25,1.06-9.92,1.75-13.91-1.72l.36-.41c4.41.26,8.83.79,13.09-.93.56-.22,1.38-.61,1.73-.39,4.6,3,7.38-.24,10.25-3.21a23.28,23.28,0,0,0,1.39,4.14c2.78,4.93,2.94,9.4-1.86,13.25-.21.17,0,.83,0,1.26l0,0a.85.85,0,0,0-1.34.21C979.63,427.28,980,427.73,980.16,428Z"/><path class="cls-8" d="M925.86,398.47c-.5,7.79,1.23,15.12,4.18,22.28a50.62,50.62,0,0,1,4.12,15.84,9.12,9.12,0,0,0,3.63,6.59c1.35,1.11,3.34,1.73,3.74,3.81-3.9.81-6.72-1.45-9.52-3.5-2.25-1.66-3.76-2.79-4.2,1.36s-4.8,4.61-7.3,6.74c-1.33,1.14-2.68-.93-3-2.85-.7-4.19,2.54-6.62,4.16-9.77,4.2-1.17,5.47-4.16,5.2-8.2-.14-1.93-.09-3.88-.12-5.82-.43-4.3-2.85-8-3.94-12.06a36.88,36.88,0,0,1-1.68-8.46C921,401,922.3,398.89,925.86,398.47Z"/><path class="cls-8" d="M946.59,399.35c6.44-4.17,12.91-7.86,20.78-4.52,2.74,1.16,5.48,2.46,7.56,6.87-12.31-8.39-21.83-3.72-30.92,3.56-1.31-5.23-.52-7.76,3.43-10.82,8.08-6.29,17.45-7.6,27.31-7a2.35,2.35,0,0,1,2.58,2.52c.14,2.26.44,4.51.74,7.39-5.39-4.86-10.91-8.81-18.2-7A24.49,24.49,0,0,0,946.59,399.35Zm-1.45.86-.6,1c.23.07.5.25.66.18a1.21,1.21,0,0,0,.52-.63C945.75,400.69,945.42,400.47,945.14,400.21Z"/><path class="cls-6" d="M936.84,473.88c1.64-6.3.33-13,2.82-19.22h1.8a89.41,89.41,0,0,0,2,20.18Z"/><path class="cls-8" d="M943.48,474.83a89.41,89.41,0,0,1-2-20.18l2.39-.68c.67,6.47,3.45,12.59,3.18,19.22A6,6,0,0,1,943.48,474.83Z"/><path class="cls-9" d="M961.7,409.58c2.58-3,3.77-5.57,3.56-9.24,2.58,1.63,5.76,3.11,5.12,5.52C969.46,409.29,965.39,408.33,961.7,409.58Z"/><path class="cls-6" d="M956.65,441.64a6.12,6.12,0,0,1,.08,6C953,445,953,445,956.65,441.64Z"/><path class="cls-2" d="M887.61,411.24c.12-2.06.5-3.15,1.89-3.44.29-.06,1,.39,1,.62C890.54,410.09,889.33,410.52,887.61,411.24Z"/><path class="cls-8" d="M956.09,413.25l-1.14-.61c.59-.57,1.07-.36,1.5.2Z"/><path class="cls-8" d="M896.22,422.05l1.17-.65,0-.06c.27.61-.06,1-.49,1.33C896.64,422.47,896.43,422.27,896.22,422.05Z"/><path class="cls-8" d="M897.39,421.4a1.27,1.27,0,0,1,.21-.29s.15,0,.22,0l-.47.24Z"/><path class="cls-4" d="M901.2,483.15c3.32-.91,1.66,1.77,1.56,2.57-.57,4.64-1.29,9.24.32,13.82-.69,3.9,3,6.9,2.21,10.83-4.22-3.92-4.82-9.35-6-14.52C899.13,491.5,900.14,487.32,901.2,483.15Z"/><path class="cls-2" d="M869,471.77c-.12,1.86-.64,3.36-3,2.69-.9-.26-1.74-.95-1.31-2,1-2.43,2.89-.24,4.3-.69Z"/><path class="cls-2" d="M879.65,421c.59-.25,1.18-.85,1.78,0,.07.86.24,1.94-1,1.9S879.3,421.87,879.65,421Z"/><path class="cls-4" d="M943.48,474.83a6,6,0,0,0,3.55-1.64c4.46-1.16,8.41,0,12,2.65,3.44,2.52,6.84,5.11,10.42,7.41,2.66,1.72,2.21,2.73.06,4.62-13.2,11.67-28.33,14.47-45.16,10.52-4-.94-8.13-1.16-12.2-1.71,6.82-9.11,12.36-19.6,24.65-22.8Zm-20.86,18c15.85,3.72,29.21.53,42.78-6.81-7.11-1.35-13.25-4-19.57-.52a2.6,2.6,0,0,1-1.79.11C935.69,483.42,930,488.84,922.62,492.87Zm-1.94-1.77c13.29-11.44,28.07-12.67,44.05-7.46-2.72-2.34-5.62-4-8.18-6.15-6.38-5.27-13,2.92-19.56-.49-1.47-.77-4.06.72-5.87,2C926.74,482.12,923.8,486.52,920.68,491.1Z"/><path class="cls-4" d="M960.17,511.48c-8.8-2.47-17.14-2.05-25.57,4.65C939.42,506.53,951.69,504.69,960.17,511.48Z"/><path class="cls-4" d="M978.15,499.22c.94-5.67,1.44-10.25,1-14.86s-2.26-8.69-4-13.77C982.42,476.54,984.09,491.43,978.15,499.22Z"/><path class="cls-4" d="M957.08,429.68c1.66-.38,1.93-.21,1.83,1.09Z"/><path class="cls-4" d="M980.16,428c-.16-.31-.53-.76-.43-.91a.85.85,0,0,1,1.34-.21C980.77,427.29,980.47,427.67,980.16,428Z"/><path class="cls-4" d="M945.14,400.21c.28.26.61.48.58.55a1.21,1.21,0,0,1-.52.63c-.16.07-.43-.11-.66-.18Z"/><path class="cls-8" d="M922.62,492.87c7.39-4,13.07-9.45,21.42-7.22a2.6,2.6,0,0,0,1.79-.11c6.32-3.49,12.46-.83,19.57.52C951.83,493.4,938.47,496.59,922.62,492.87Z"/><path class="cls-8" d="M920.68,491.1c3.12-4.58,6.06-9,10.44-12.1,1.81-1.28,4.4-2.77,5.87-2,6.56,3.41,13.18-4.78,19.56.49,2.56,2.11,5.46,3.81,8.18,6.15C948.75,478.43,934,479.66,920.68,491.1Z"/><path class="cls-3" d="M1017.13,426.83l.07,0-1.34,15.82,8-1.27-1.74,5.57h-10l-.13-23.47Zm-3.65,18.68a.31.31,0,0,0,.23.34l.29.2a1.1,1.1,0,0,1,.25.23,4.59,4.59,0,0,1,.75,0,4.31,4.31,0,0,0,.81,0,1.22,1.22,0,0,0,.65-.27.86.86,0,0,0,.27-.72v-.47c0-.24-.11-.37-.34-.37s-.33.13-.33.37a4.18,4.18,0,0,1,0,.59c0,.21-.15.3-.4.25a2.9,2.9,0,0,0-.43,0l-.42,0a1.41,1.41,0,0,1-.39-.08.43.43,0,0,1-.23-.3q0-.92,0-1.83a3.39,3.39,0,0,1,.54-1.73c0-.24,0-.5.06-.77a3.48,3.48,0,0,0,0-.79,2.3,2.3,0,0,0-.18-.73,1.63,1.63,0,0,0-.45-.62,1.62,1.62,0,0,1,.05-1.36,1.68,1.68,0,0,1,1-.93.28.28,0,0,0,.2-.3,2.73,2.73,0,0,1,0-.7,4.33,4.33,0,0,0,0-.72,1.67,1.67,0,0,0-.19-.62,1,1,0,0,0-.55-.44.54.54,0,0,0-.27-.07c-.11,0-.17-.05-.17-.16a2,2,0,0,1,0-1.33,1.53,1.53,0,0,1,.91-.92,1.32,1.32,0,0,0,.25-.67,1.35,1.35,0,0,0-.13-.65,2.63,2.63,0,0,0-.39-.61c-.16-.19-.31-.36-.47-.52a1.91,1.91,0,0,1-.08-.45,1.34,1.34,0,0,1,.05-.49.65.65,0,0,1,.23-.36.73.73,0,0,1,.47-.14l.24,0a.26.26,0,0,0,.26-.06.37.37,0,0,0,.12-.22.32.32,0,0,0-.07-.24.44.44,0,0,0-.25-.15,1.3,1.3,0,0,0-1.12.22,1.68,1.68,0,0,0-.55.91,2,2,0,0,0,.05,1.14,1.51,1.51,0,0,0,.72.89.6.6,0,0,1,.22.4,2.5,2.5,0,0,1,0,.47,1.71,1.71,0,0,0-.76.62,3,3,0,0,0-.4.9,2.36,2.36,0,0,0,0,1,1.55,1.55,0,0,0,.42.87,1.7,1.7,0,0,0,.4.24,1.28,1.28,0,0,1,.4.27.34.34,0,0,1,0,.13v1.24a1.87,1.87,0,0,0-.84.66,2.31,2.31,0,0,0-.44,1,2.77,2.77,0,0,0,0,1.11,1.72,1.72,0,0,0,.53.92,3.35,3.35,0,0,1,0,1.69,7.77,7.77,0,0,1-.55,1.6,4.77,4.77,0,0,0,0,1.07,9.55,9.55,0,0,1,0,1.07.19.19,0,0,1,0,.07.1.1,0,0,0,0,.1A.31.31,0,0,0,1013.48,445.51Z"/><path class="cls-3" d="M1026,429.45l2.51-3.22-.13-.1,2.48-2.61,6.71,1.2,4.36,5.5v4.56l-.54,8.08-5.63,4.13h-6.61l-3.39-4.33-.3-9.09Zm3.92-.64v0h0v0l-.07.07a.41.41,0,0,0-.32.17.41.41,0,0,1-.38.13,5.14,5.14,0,0,0-1.14.5,1.1,1.1,0,0,0-.54,1.08,2.56,2.56,0,0,0-.05,1.32,1.27,1.27,0,0,0,.82,1,1.39,1.39,0,0,0,0,.52.27.27,0,0,1-.18.38,5.42,5.42,0,0,0-1.06,2.21,2.51,2.51,0,0,0,0,1.16,1.51,1.51,0,0,0,.73.89l.4.47,0-.07a1,1,0,0,1,.27.67c0,.25,0,.49,0,.74a.74.74,0,0,0-.37.47c0,.11-.06.19,0,.23-.09.2-.19.41-.3.62a1.88,1.88,0,0,0-.22.64,1.19,1.19,0,0,0,0,.62.87.87,0,0,0,.47.5,2.05,2.05,0,0,0,.75.32l.76.19a3.84,3.84,0,0,1,.13.72,4.52,4.52,0,0,0,.13.75,1.82,1.82,0,0,0,.31.64,1,1,0,0,0,.67.34h.67a4,4,0,0,0,.7,0,1.34,1.34,0,0,0,.59-.24,1,1,0,0,0,.35-.58v-.71c0-.24-.11-.37-.33-.37s-.34.13-.34.37v.51a.39.39,0,0,1-.24.36,2.17,2.17,0,0,0-.51,0,1.82,1.82,0,0,1-.57,0,1,1,0,0,1-.47-.15.53.53,0,0,1-.22-.45,2.73,2.73,0,0,0,0-.74,1.94,1.94,0,0,0-.26-.72,1.46,1.46,0,0,0-.51-.48.94.94,0,0,0-.73-.07,1.62,1.62,0,0,1-.56-.3.43.43,0,0,1-.08-.61,4.28,4.28,0,0,1,.38-.62.88.88,0,0,0,.19-.65l0,0a.13.13,0,0,0,.07,0,.28.28,0,0,0,.2-.3,2.8,2.8,0,0,0-.18-1.66,2.25,2.25,0,0,0-1.16-1.19,3.2,3.2,0,0,1,.15-1.73,3.33,3.33,0,0,1,1-1.42,1,1,0,0,0,.1-.65,1.47,1.47,0,0,1,0-.66.27.27,0,0,0-.13-.33,4.63,4.63,0,0,1-.59-.39.61.61,0,0,1-.22-.62c0-.31.1-.64.17-1a.76.76,0,0,1,.7-.62l1-.35a.93.93,0,0,0,.65-.76v-.53a.89.89,0,0,0-.17-.51.32.32,0,0,0,0-.13.57.57,0,0,1,0-.13,1.7,1.7,0,0,1,0-.22.86.86,0,0,0,0-.22,2.53,2.53,0,0,1,.4-.67,8.2,8.2,0,0,1,1.51-.08,1.65,1.65,0,0,1,1.31.62h.2c.25,0,.37-.12.37-.34s-.12-.33-.37-.33h0s0,0,0,0a1.94,1.94,0,0,0-1.54-.6,13.16,13.16,0,0,0-1.74.17,2.79,2.79,0,0,0-.69,1.15,1.71,1.71,0,0,0,.12,1.33v.47Zm8.12,3.05-5.91-3.58-2.44,6.77,1.57,8,5.7-.53Z"/><path class="cls-3" d="M1045.86,425.9l10.6-3.16.47,7.48-7.18-1.74,8.19,9.12-4,8.65-9.69.74,3.22-6.71,4,2.25,1.24-5.6-5.94-3-2.85-4.66Zm4.05.33a4.91,4.91,0,0,0-1.55.12,2.83,2.83,0,0,0-1.24.67,2,2,0,0,0-.55,1.42,2.6,2.6,0,0,0,.1,1.11,1.07,1.07,0,0,0,.84.71c.2,0,.4.1.6.16a2.27,2.27,0,0,1,.54.27,1.09,1.09,0,0,1,.35.44,1,1,0,0,1,0,.63,4.74,4.74,0,0,1-.07,1.13,3.5,3.5,0,0,0,0,1.12,1.5,1.5,0,0,0,1,.67,7.24,7.24,0,0,0,1.24.1,11.26,11.26,0,0,1,1.31.07,2,2,0,0,1,1.14.5.24.24,0,0,0,.2.07,2.58,2.58,0,0,0,.24.47.51.51,0,0,1,0,.47,3.39,3.39,0,0,1-.13,1.12c-.12.39-.22.78-.31,1.16a3.82,3.82,0,0,0-.1,1.1,1.56,1.56,0,0,0,.51,1,2.64,2.64,0,0,1,0,1.31,1.64,1.64,0,0,1-.84,1,2.88,2.88,0,0,1-.92.44,4.89,4.89,0,0,1-1,.17.32.32,0,0,0-.26.11.4.4,0,0,0-.06.26.28.28,0,0,0,.12.21.36.36,0,0,0,.26.09,3.19,3.19,0,0,0,1.55-.27,3.56,3.56,0,0,0,1.24-.92,3,3,0,0,0,.65-1.34,2.36,2.36,0,0,0-.25-1.56,1.31,1.31,0,0,1-.3-.92,4.3,4.3,0,0,1,.18-1l.3-1a2,2,0,0,0,0-1,1.12,1.12,0,0,0-.08-.7c-.1-.22-.21-.45-.32-.67s-.26-.26-.43-.17a2.49,2.49,0,0,0-1-.48,8.33,8.33,0,0,0-1.1-.16l-1.13-.05a3.41,3.41,0,0,1-1.1-.21.6.6,0,0,1,0-.59.87.87,0,0,0,.07-.59c0-.24.05-.51.07-.8a3.12,3.12,0,0,0,0-.82,1.82,1.82,0,0,0-.32-.69,1.53,1.53,0,0,0-.67-.47.8.8,0,0,0-.39-.2l-.47-.12a1,1,0,0,1-.38-.17.35.35,0,0,1-.14-.38,2,2,0,0,1,0-.84,1.69,1.69,0,0,1,.39-.72,1.74,1.74,0,0,1,.67-.47,1.51,1.51,0,0,1,.82-.08,6.14,6.14,0,0,1,2.11.16.27.27,0,0,0,.27-.05.28.28,0,0,0,.12-.2.55.55,0,0,0,0-.25.3.3,0,0,0-.22-.17A14.58,14.58,0,0,0,1049.91,426.23Z"/><path class="cls-3" d="M1020.68,457.74l5.4,2.32-.77,10.66-8.65,3.86V482h-4.16l-.3-21.93Zm-6.85,16.15.47.44a3,3,0,0,1,.43.45.78.78,0,0,1,.12.64.68.68,0,0,1-.23.36c-.12.09-.23.18-.36.26a2,2,0,0,0-.33.25.63.63,0,0,0-.19.37,3.15,3.15,0,0,0-.31,1.59,4.79,4.79,0,0,0,.35,1.56,2.18,2.18,0,0,0,1.12.17,1.45,1.45,0,0,0,1-.54.3.3,0,0,0-.07-.47.29.29,0,0,0-.47.07.57.57,0,0,1-.53.26,4,4,0,0,1-.57,0q-.07-.4-.12-.84a3.74,3.74,0,0,1,0-.82,1.82,1.82,0,0,1,.25-.72,1.51,1.51,0,0,1,.6-.54,1.41,1.41,0,0,0,.51-.75,1.6,1.6,0,0,0,0-.84,2.08,2.08,0,0,0-.45-.77,2.53,2.53,0,0,0-.69-.55.33.33,0,0,1,0-.1.35.35,0,0,0,0-.14,8.15,8.15,0,0,1,0-1.32,1.45,1.45,0,0,1,.74-1.06,2.47,2.47,0,0,0,.45-1,2.62,2.62,0,0,0,0-1,2.3,2.3,0,0,0-.36-.94,2.22,2.22,0,0,0-.76-.7.81.81,0,0,1-.15-.52c0-.19,0-.38,0-.56a.88.88,0,0,1,.44-.28,1.63,1.63,0,0,0,.47-.25.25.25,0,0,0,.1-.12.49.49,0,0,0,0-.15,2.43,2.43,0,0,1,0-.54,4,4,0,0,0,0-.6,1.17,1.17,0,0,0-.14-.52.7.7,0,0,0-.42-.32.8.8,0,0,1-.4-.54,1.29,1.29,0,0,1,0-.67,1,1,0,0,1,.42-.53,1,1,0,0,1,.67-.17,2.3,2.3,0,0,1,.74,0,1.94,1.94,0,0,1,.7.2.28.28,0,0,0,.25,0,.3.3,0,0,0,.17-.16.39.39,0,0,0,0-.26.33.33,0,0,0-.17-.2,3.29,3.29,0,0,0-1.12-.28,2.94,2.94,0,0,0-1.16.12,1.88,1.88,0,0,0-.9.58,1.64,1.64,0,0,0-.37,1.13,1.43,1.43,0,0,0,.27.92.83.83,0,0,0,.67.48,2.56,2.56,0,0,1,0,.61c0,.2,0,.4,0,.6a3.06,3.06,0,0,0-.84.5.78.78,0,0,0-.23.91,1,1,0,0,0,.13.84,5.3,5.3,0,0,0,.54.63,5,5,0,0,1,.52.64,1,1,0,0,1,.08.84,1.34,1.34,0,0,1-.25.67l-.45.59a4,4,0,0,0-.42.6,1.1,1.1,0,0,0-.15.72v1.11c-.05,0-.05.1,0,.17A.85.85,0,0,0,1013.83,473.89Zm2.83-11.05v6.47l6.17-4.09Z"/><path class="cls-3" d="M1027.86,464.45l2.52-3.22-.14-.1,2.48-2.61,6.71,1.2,4.36,5.5v4.56l-.54,8.08-5.63,4.13H1031l-3.38-4.33-.31-9.09Zm3.92-.64v0h0v0l-.07.07a.41.41,0,0,0-.32.17.41.41,0,0,1-.38.13,5.14,5.14,0,0,0-1.14.5,1.1,1.1,0,0,0-.54,1.08,2.56,2.56,0,0,0,0,1.32,1.29,1.29,0,0,0,.82,1,1.39,1.39,0,0,0,0,.52.27.27,0,0,1-.18.38,5.42,5.42,0,0,0-1.06,2.21,2.51,2.51,0,0,0,0,1.16,1.46,1.46,0,0,0,.72.89l.4.47,0-.07a1,1,0,0,1,.26.67c0,.25,0,.49,0,.74a.74.74,0,0,0-.37.47.34.34,0,0,0,0,.23c-.09.2-.19.41-.3.62a1.88,1.88,0,0,0-.22.64,1.3,1.3,0,0,0,0,.62.9.9,0,0,0,.47.5,2.13,2.13,0,0,0,.75.32l.76.19a3.84,3.84,0,0,1,.13.72,3.68,3.68,0,0,0,.14.75,1.65,1.65,0,0,0,.3.64,1,1,0,0,0,.67.34h.67a4,4,0,0,0,.7,0,1.3,1.3,0,0,0,.59-.24,1,1,0,0,0,.35-.58v-.71c0-.24-.11-.37-.33-.37s-.34.13-.34.37v.51a.4.4,0,0,1-.23.36,2.26,2.26,0,0,0-.52,0,1.82,1.82,0,0,1-.57,0,1,1,0,0,1-.47-.15.53.53,0,0,1-.22-.45,3.16,3.16,0,0,0,0-.74,2.15,2.15,0,0,0-.27-.72,1.38,1.38,0,0,0-.51-.48.94.94,0,0,0-.73-.07,1.62,1.62,0,0,1-.56-.3.44.44,0,0,1-.08-.61,4.28,4.28,0,0,1,.38-.62.88.88,0,0,0,.19-.65l0,0a.1.1,0,0,0,.07,0,.28.28,0,0,0,.2-.3,2.8,2.8,0,0,0-.18-1.66,2.25,2.25,0,0,0-1.16-1.19,3.2,3.2,0,0,1,.15-1.73,3.33,3.33,0,0,1,1-1.42,1,1,0,0,0,.1-.65,1.83,1.83,0,0,1,0-.66.26.26,0,0,0-.13-.33,5.46,5.46,0,0,1-.59-.39.61.61,0,0,1-.22-.62c.05-.31.1-.64.17-1a.76.76,0,0,1,.7-.62l1-.35a.93.93,0,0,0,.65-.76v-.53a.89.89,0,0,0-.17-.51.62.62,0,0,0,0-.13.3.3,0,0,1,0-.13.86.86,0,0,1,0-.22,1.7,1.7,0,0,0,0-.22,2.31,2.31,0,0,1,.41-.67,8,8,0,0,1,1.5-.08,1.64,1.64,0,0,1,1.31.62h.2c.25,0,.37-.12.37-.34s-.12-.33-.37-.33h0s0,0,0,0a2,2,0,0,0-1.55-.6,13.16,13.16,0,0,0-1.74.17,2.9,2.9,0,0,0-.69,1.15,1.71,1.71,0,0,0,.12,1.33v.47Zm8.12,3.05-5.9-3.58-2.45,6.77,1.57,8,5.7-.53Z"/><path class="cls-3" d="M1050.49,461.83l.07,0-1.34,15.82,8-1.27-1.75,5.57h-10l-.13-23.47Zm-3.65,18.68a.32.32,0,0,0,.23.34l.29.2a1.1,1.1,0,0,1,.25.23,4.59,4.59,0,0,1,.75,0,4.31,4.31,0,0,0,.81,0,1.22,1.22,0,0,0,.65-.27.86.86,0,0,0,.27-.72v-.47c0-.24-.11-.37-.34-.37s-.33.13-.33.37,0,.38,0,.59-.16.3-.41.25a2.9,2.9,0,0,0-.43,0l-.42,0a1.41,1.41,0,0,1-.39-.08.43.43,0,0,1-.23-.3q0-.92,0-1.83a3.39,3.39,0,0,1,.54-1.73c0-.24,0-.5.07-.77a5.21,5.21,0,0,0,0-.79,2.62,2.62,0,0,0-.19-.73,1.63,1.63,0,0,0-.45-.62,1.66,1.66,0,0,1,0-1.36,1.68,1.68,0,0,1,1-.93.28.28,0,0,0,.2-.3,4.09,4.09,0,0,1,0-.7,4.33,4.33,0,0,0,0-.72,1.37,1.37,0,0,0-.19-.62,1,1,0,0,0-.55-.44.54.54,0,0,0-.27-.07.14.14,0,0,1-.16-.16,1.9,1.9,0,0,1,0-1.33,1.49,1.49,0,0,1,.9-.92,1.24,1.24,0,0,0,.25-.67,1.35,1.35,0,0,0-.13-.65,2.63,2.63,0,0,0-.39-.61,6,6,0,0,0-.47-.52,1.91,1.91,0,0,1-.08-.45,1.6,1.6,0,0,1,0-.49.65.65,0,0,1,.23-.36.75.75,0,0,1,.47-.14l.24,0a.28.28,0,0,0,.27-.06.42.42,0,0,0,.11-.22.36.36,0,0,0-.06-.24.48.48,0,0,0-.25-.15,1.32,1.32,0,0,0-1.13.22,1.68,1.68,0,0,0-.55.91,2.12,2.12,0,0,0,0,1.14,1.51,1.51,0,0,0,.72.89.56.56,0,0,1,.22.4,2.5,2.5,0,0,1,0,.47,1.68,1.68,0,0,0-.75.62,2.82,2.82,0,0,0-.41.9,2.75,2.75,0,0,0,0,1,1.69,1.69,0,0,0,.42.87,1.93,1.93,0,0,0,.4.24,1.28,1.28,0,0,1,.4.27.34.34,0,0,1,0,.13v1.24a1.87,1.87,0,0,0-.84.66,2.44,2.44,0,0,0-.44,1,2.77,2.77,0,0,0,0,1.11,1.85,1.85,0,0,0,.53.92,3.35,3.35,0,0,1,.05,1.69,7.22,7.22,0,0,1-.55,1.6,6.35,6.35,0,0,0,0,1.07,9.55,9.55,0,0,1,0,1.07.19.19,0,0,1,0,.07.14.14,0,0,0,0,.1A.31.31,0,0,0,1046.84,480.51Z"/><path class="cls-3" d="M1063.8,461.83l.07,0-1.34,15.82,8-1.27-1.75,5.57h-10l-.13-23.47Zm-3.65,18.68a.32.32,0,0,0,.23.34l.29.2a1.1,1.1,0,0,1,.25.23,4.59,4.59,0,0,1,.75,0,4.31,4.31,0,0,0,.81,0,1.19,1.19,0,0,0,.65-.27.86.86,0,0,0,.27-.72v-.47c0-.24-.11-.37-.33-.37s-.34.13-.34.37,0,.38,0,.59-.16.3-.41.25a2.9,2.9,0,0,0-.43,0l-.42,0a1.5,1.5,0,0,1-.39-.08.43.43,0,0,1-.23-.3q0-.92,0-1.83a3.48,3.48,0,0,1,.54-1.73c0-.24,0-.5.07-.77a5.21,5.21,0,0,0,0-.79,2.62,2.62,0,0,0-.19-.73,1.63,1.63,0,0,0-.45-.62,1.66,1.66,0,0,1,0-1.36,1.68,1.68,0,0,1,1-.93.28.28,0,0,0,.2-.3,4.09,4.09,0,0,1,0-.7,4.33,4.33,0,0,0,0-.72,1.5,1.5,0,0,0-.18-.62,1.12,1.12,0,0,0-.56-.44.51.51,0,0,0-.27-.07.14.14,0,0,1-.16-.16,1.9,1.9,0,0,1,0-1.33,1.49,1.49,0,0,1,.9-.92,1.24,1.24,0,0,0,.25-.67,1.35,1.35,0,0,0-.13-.65,2.63,2.63,0,0,0-.39-.61,6,6,0,0,0-.47-.52,1.91,1.91,0,0,1-.08-.45,1.6,1.6,0,0,1,0-.49.65.65,0,0,1,.23-.36.75.75,0,0,1,.47-.14l.24,0a.28.28,0,0,0,.27-.06.42.42,0,0,0,.11-.22.31.31,0,0,0-.06-.24.48.48,0,0,0-.25-.15,1.32,1.32,0,0,0-1.13.22,1.68,1.68,0,0,0-.55.91,2.12,2.12,0,0,0,.05,1.14,1.51,1.51,0,0,0,.72.89.56.56,0,0,1,.22.4,2.5,2.5,0,0,1,0,.47,1.68,1.68,0,0,0-.75.62,2.59,2.59,0,0,0-.4.9,2.54,2.54,0,0,0,0,1,1.69,1.69,0,0,0,.42.87,1.93,1.93,0,0,0,.4.24,1.46,1.46,0,0,1,.41.27.53.53,0,0,1,0,.13v1.24a1.87,1.87,0,0,0-.84.66,2.29,2.29,0,0,0-.43,1,2.6,2.6,0,0,0,0,1.11,1.85,1.85,0,0,0,.53.92,3.47,3.47,0,0,1,.06,1.69,7.8,7.8,0,0,1-.56,1.6,6.35,6.35,0,0,0,0,1.07,9.55,9.55,0,0,1,0,1.07.19.19,0,0,1,0,.07.14.14,0,0,0,0,.1A.31.31,0,0,0,1060.15,480.51Z"/><path class="cls-3" d="M1072.62,464.45l2.52-3.22-.14-.1,2.48-2.61,6.71,1.2,4.36,5.5v4.56l-.54,8.08-5.63,4.13h-6.61l-3.38-4.33-.31-9.09Zm3.92-.64v0h0v0l-.07.07a.4.4,0,0,0-.31.17.42.42,0,0,1-.39.13,5.14,5.14,0,0,0-1.14.5,1.1,1.1,0,0,0-.54,1.08,2.56,2.56,0,0,0,0,1.32,1.29,1.29,0,0,0,.82,1,1.39,1.39,0,0,0,.05.52.27.27,0,0,1-.18.38,5.18,5.18,0,0,0-.64,1,4.78,4.78,0,0,0-.42,1.2,2.65,2.65,0,0,0,0,1.16,1.46,1.46,0,0,0,.72.89l.4.47,0-.07a1,1,0,0,1,.27.67c0,.25,0,.49,0,.74a.74.74,0,0,0-.37.47.34.34,0,0,0,0,.23c-.09.2-.19.41-.3.62a2.12,2.12,0,0,0-.22.64,1.3,1.3,0,0,0,.05.62.9.9,0,0,0,.47.5,2.21,2.21,0,0,0,.75.32l.76.19a3.18,3.18,0,0,1,.13.72,3.68,3.68,0,0,0,.14.75,1.65,1.65,0,0,0,.3.64,1,1,0,0,0,.67.34h.67a4,4,0,0,0,.7,0,1.3,1.3,0,0,0,.59-.24,1,1,0,0,0,.35-.58v-.71c0-.24-.11-.37-.33-.37s-.34.13-.34.37v.51a.4.4,0,0,1-.23.36,2.26,2.26,0,0,0-.52,0,1.82,1.82,0,0,1-.57,0,1,1,0,0,1-.47-.15.56.56,0,0,1-.22-.45,3.16,3.16,0,0,0,0-.74,2.15,2.15,0,0,0-.27-.72,1.43,1.43,0,0,0-.5-.48,1,1,0,0,0-.74-.07,1.71,1.71,0,0,1-.56-.3.45.45,0,0,1-.08-.61,3.6,3.6,0,0,1,.39-.62.92.92,0,0,0,.18-.65l0,0s0,0,.06,0a.27.27,0,0,0,.2-.3,2.8,2.8,0,0,0-.18-1.66,2.25,2.25,0,0,0-1.16-1.19,3.2,3.2,0,0,1,.15-1.73,3.41,3.41,0,0,1,1-1.42,1,1,0,0,0,.1-.65,1.83,1.83,0,0,1,0-.66.26.26,0,0,0-.13-.33,5.46,5.46,0,0,1-.59-.39.61.61,0,0,1-.22-.62c0-.31.1-.64.17-1a.76.76,0,0,1,.71-.62l1-.35a.9.9,0,0,0,.65-.76v-.53a.82.82,0,0,0-.17-.51.62.62,0,0,0,0-.13.59.59,0,0,1,0-.13,1.8,1.8,0,0,1,0-.22,1.7,1.7,0,0,0,0-.22,2.54,2.54,0,0,1,.41-.67,8.15,8.15,0,0,1,1.51-.08,1.63,1.63,0,0,1,1.3.62h.2c.25,0,.37-.12.37-.34s-.12-.33-.37-.33h0s0,0,0,0a2,2,0,0,0-1.54-.6,13.15,13.15,0,0,0-1.75.17,2.9,2.9,0,0,0-.69,1.15,1.71,1.71,0,0,0,.12,1.33v.47Zm8.12,3.05-5.9-3.58-2.45,6.77,1.58,8,5.7-.53Z"/><path class="cls-3" d="M1092.54,460.9l10.59-3.16.47,7.48-7.17-1.74,8.18,9.12-4,8.65L1091,482l3.22-6.71,4,2.25,1.24-5.6-5.93-3-2.85-4.66Zm4,.33a4.85,4.85,0,0,0-1.54.12,2.81,2.81,0,0,0-1.25.67,2,2,0,0,0-.55,1.42,2.77,2.77,0,0,0,.1,1.11,1.07,1.07,0,0,0,.84.71c.2,0,.4.1.6.16a2.1,2.1,0,0,1,.54.27,1,1,0,0,1,.35.44.9.9,0,0,1,0,.63,4.74,4.74,0,0,1-.07,1.13,3.82,3.82,0,0,0,0,1.12,1.52,1.52,0,0,0,1,.67,7.32,7.32,0,0,0,1.24.1,11.14,11.14,0,0,1,1.31.07,2,2,0,0,1,1.14.5.26.26,0,0,0,.2.07,2.58,2.58,0,0,0,.24.47.48.48,0,0,1,0,.47,3.39,3.39,0,0,1-.13,1.12c-.11.39-.21.78-.3,1.16a3.5,3.5,0,0,0-.1,1.1,1.55,1.55,0,0,0,.5,1,2.64,2.64,0,0,1,0,1.31,1.58,1.58,0,0,1-.84,1,2.88,2.88,0,0,1-.92.44,4.89,4.89,0,0,1-1,.17.3.3,0,0,0-.25.11.36.36,0,0,0-.07.26.28.28,0,0,0,.12.21.37.37,0,0,0,.27.09,3.15,3.15,0,0,0,1.54-.27,3.56,3.56,0,0,0,1.24-.92,2.85,2.85,0,0,0,.65-1.34,2.36,2.36,0,0,0-.25-1.56,1.36,1.36,0,0,1-.3-.92,4.3,4.3,0,0,1,.18-1c.11-.34.21-.67.31-1a2.16,2.16,0,0,0,0-1,1.2,1.2,0,0,0-.09-.7c-.1-.22-.2-.45-.32-.67s-.25-.26-.43-.17a2.51,2.51,0,0,0-1-.48,8.48,8.48,0,0,0-1.11-.16l-1.12-.05a3.52,3.52,0,0,1-1.11-.21.62.62,0,0,1,0-.59.86.86,0,0,0,.06-.59c0-.24,0-.51.07-.8a2.75,2.75,0,0,0,0-.82,1.68,1.68,0,0,0-.32-.69,1.53,1.53,0,0,0-.67-.47.8.8,0,0,0-.39-.2l-.46-.12a1,1,0,0,1-.39-.17.35.35,0,0,1-.13-.38,1.71,1.71,0,0,1,0-.84,1.57,1.57,0,0,1,.38-.72,1.82,1.82,0,0,1,.67-.47,1.51,1.51,0,0,1,.82-.08,6.21,6.21,0,0,1,2.12.16.26.26,0,0,0,.26-.05.28.28,0,0,0,.12-.2.55.55,0,0,0,0-.25.3.3,0,0,0-.22-.17A14.21,14.21,0,0,0,1096.58,461.23Z"/><path class="cls-3" d="M1018.67,515.88l-4.09.81L1012,504l1.38-10.46,6,1.47-2.15,4.8,7.41,2.91L1024,498l-.47-3.52,5.33-1-.17,23.47-5.9-1.14,1.84-8.92-7.71-2.38-.1,1.67h-.17Zm-2.78-20.29a1.43,1.43,0,0,0-1.07.74,1.56,1.56,0,0,0-.51,1.31c.05.51.09,1,.14,1.44a3.15,3.15,0,0,1,.4.54,2.25,2.25,0,0,1,.27.69,1.42,1.42,0,0,1,0,.65.66.66,0,0,1-.45.44,9.16,9.16,0,0,1-.91.55,1.11,1.11,0,0,0-.57.82,2.52,2.52,0,0,0-.25,1.16,3.11,3.11,0,0,0,.25,1.15,1.55,1.55,0,0,0,.42.39,5.21,5.21,0,0,0,.52.28,3.3,3.3,0,0,1,.51.31,1.69,1.69,0,0,1,.4.4,14.48,14.48,0,0,1,.08,1.74,2.53,2.53,0,0,1-.59,1.58,1,1,0,0,0-.06.33v.31c0,.22.12.33.37.33a2,2,0,0,0,.55,1.31,1.44,1.44,0,0,0,1.19.53,2.78,2.78,0,0,0,.17.44.34.34,0,0,1-.14.47,2.38,2.38,0,0,1-.31.27l-.32.17-.37.1a.31.31,0,0,0-.24.43.32.32,0,0,0,.44.24,3.38,3.38,0,0,0,.74-.32,2.64,2.64,0,0,0,.62-.52,1.36,1.36,0,0,0,.3-.67,1.11,1.11,0,0,0-.22-.77.56.56,0,0,0-.23-.37,1.22,1.22,0,0,0-.39-.15l-.44-.12a.65.65,0,0,1-.35-.24l-.16-.16c0-.2-.08-.4-.11-.59a4.55,4.55,0,0,0-.1-.59.3.3,0,0,0-.23-.23,5.38,5.38,0,0,0,.57-2.11,4,4,0,0,0-.44-2.12,4.4,4.4,0,0,0-.87-.55,2.35,2.35,0,0,1-.8-.59c0-.22,0-.44-.07-.67a1.61,1.61,0,0,1,.1-.7.72.72,0,0,0,.2-.44.36.36,0,0,1,.3-.33l.57-.44-.06.07a3,3,0,0,0,.67-.34.86.86,0,0,0,.37-.6,2,2,0,0,0,0-1.09c-.13-.35-.27-.7-.42-1.06A4.76,4.76,0,0,1,1015,498a1.44,1.44,0,0,1,.27-1.09.94.94,0,0,0,.37-.37.48.48,0,0,1,.47-.23,2,2,0,0,1,.6-.06,3,3,0,0,0,.6,0c.25,0,.37-.11.37-.34s-.12-.33-.37-.33A8,8,0,0,0,1015.89,495.59Zm-2.18,7.65a.51.51,0,0,1,.07-.17Z"/><path class="cls-3" d="M1045.33,495.43l1.51.43-.54,5.23-11.47-3.35,1.45,3.82h6.07v5h-6.07l-.41,6.27,10.77-4.62-.67,6.37-10.2,2.38-3.72-1.58-.87-21.89h7.58Zm-11.69-.57a1.3,1.3,0,0,0-.75.94,1.16,1.16,0,0,0-.23.83,6.9,6.9,0,0,1,0,.91.49.49,0,0,0,0,.15.18.18,0,0,0,.1.12,1.46,1.46,0,0,0,.38.27.35.35,0,0,1,.22.36.49.49,0,0,1,.24.59,2,2,0,0,0-.07.72,3,3,0,0,0-.69,1.11,3.44,3.44,0,0,0-.18,1.26,2.4,2.4,0,0,0,.37,1.17,2.33,2.33,0,0,0,1,.89c.07.2.14.43.22.69a2.59,2.59,0,0,1,.12.78,1.75,1.75,0,0,1-.16.71,1.11,1.11,0,0,1-.52.53,4.44,4.44,0,0,0-.48.69,3.11,3.11,0,0,0-.32.81,1.94,1.94,0,0,0,0,.83,1.29,1.29,0,0,0,.46.73c.06.11.17.14.33.1a1.81,1.81,0,0,0,.07.52c0,.16.09.33.15.5a4.37,4.37,0,0,1,.12.52,1.41,1.41,0,0,1,0,.54,6.71,6.71,0,0,0-.25,1,3.19,3.19,0,0,0,0,1.07,2.4,2.4,0,0,0,.4,1,1.73,1.73,0,0,0,.91.64,4.46,4.46,0,0,0,1,.16,5.9,5.9,0,0,0,1,0l.15,0a.23.23,0,0,0,.12-.1,2.71,2.71,0,0,0,.42-.67,1.68,1.68,0,0,0,.11-.77c0-.25-.11-.37-.33-.37s-.34.12-.34.37a1.39,1.39,0,0,1-.3.9,2.77,2.77,0,0,1-.91,0,2.85,2.85,0,0,1-.9-.26,1.47,1.47,0,0,1-.62-.56,1.16,1.16,0,0,1-.08-.92,7.15,7.15,0,0,0,.31-1.71,3.73,3.73,0,0,0-.28-1.68,1.33,1.33,0,0,0-.24-.8.29.29,0,0,0-.43-.17.11.11,0,0,1-.07,0l0,0a.71.71,0,0,1-.15-.49,1.53,1.53,0,0,1,.11-.48c.07-.16.14-.31.22-.46a2.6,2.6,0,0,0,.19-.42l0,.1a2,2,0,0,0,.86-1,3,3,0,0,0,.2-1.31,2.9,2.9,0,0,0-.39-1.27,2.65,2.65,0,0,0-.9-1,1.38,1.38,0,0,1-.39-.78,1.89,1.89,0,0,1,.09-.82,4.78,4.78,0,0,1,.36-.81,4.36,4.36,0,0,1,.51-.7,5.13,5.13,0,0,1,0-1.11,1.11,1.11,0,0,0-.42-1,1.14,1.14,0,0,1-.22-.22.48.48,0,0,0-.25-.18,5,5,0,0,0-.06-.76.61.61,0,0,1,.3-.65.43.43,0,0,1,.3-.54.71.71,0,0,1,.64,0,.32.32,0,0,0,.47-.16c.09-.2,0-.35-.21-.44A1.2,1.2,0,0,0,1033.64,494.86Z"/><path class="cls-3" d="M1057.47,492.78l5.4,2.31-1.18,8.48-2.58,1.95,3.89,8.11-5.2,3.36-.87-8.65-3.79,1.37,2.21,5.7-6.06,1.58-.31-21.9Zm-7.38,14.7a1.45,1.45,0,0,0,.23,1.36,2.11,2.11,0,0,1,.86.9,2.41,2.41,0,0,1,.22,1.16,3.69,3.69,0,0,1-.3,1.23,3.76,3.76,0,0,1-.68,1v1.45a.3.3,0,0,0,.34.33,2.6,2.6,0,0,0,.5.1,3.09,3.09,0,0,0,.52,0,1.07,1.07,0,0,0,.47-.14.76.76,0,0,0,.35-.41,1.79,1.79,0,0,1,.16-.31.61.61,0,0,0,.08-.3c0-.24-.11-.37-.34-.37s-.33.13-.33.37a2.42,2.42,0,0,1-.25.4.3.3,0,0,1-.42.07l-.54-.1h.14a2.13,2.13,0,0,1,.16-1.11c.16-.35.32-.7.49-1a4.85,4.85,0,0,0,.37-1.07,1.84,1.84,0,0,0-.15-1.16,1.81,1.81,0,0,0-.49-.89l-.72-.72a.53.53,0,0,1,0-.2.64.64,0,0,1,.13-.69,2.92,2.92,0,0,0,.44-.62.36.36,0,0,0,.3-.34,2.72,2.72,0,0,0,.45-1,3.32,3.32,0,0,0,0-1.13,3.43,3.43,0,0,0-.3-1.07,3.1,3.1,0,0,0-.64-.92,1.72,1.72,0,0,1,0-1,1.25,1.25,0,0,1,.65-.78,1.84,1.84,0,0,0,.15-1.73,6.21,6.21,0,0,0-.85-1.53c0-.2,0-.43,0-.68a.56.56,0,0,1,.33-.52,3.47,3.47,0,0,1,1.16,0,2.61,2.61,0,0,1,1.06.39.3.3,0,0,0,.27.05.42.42,0,0,0,.2-.17.36.36,0,0,0,0-.25.43.43,0,0,0-.17-.24,4.46,4.46,0,0,0-.8-.33,3.89,3.89,0,0,0-.89-.17,2.8,2.8,0,0,0-.87.07,1.55,1.55,0,0,0-.72.37,2.4,2.4,0,0,0-.32,1.4,1.57,1.57,0,0,0,.69,1.24,3.51,3.51,0,0,1,.21.57,1.85,1.85,0,0,1,.07.61,1.29,1.29,0,0,1-.15.55.88.88,0,0,1-.47.39,1.92,1.92,0,0,0-.32.85,2.79,2.79,0,0,0,0,.91,3,3,0,0,0,.34.85,4,4,0,0,0,.53.74,2.6,2.6,0,0,1,.09,1.14,4.09,4.09,0,0,1-.35,1.11.29.29,0,0,0-.31.2A3.6,3.6,0,0,0,1050.09,507.48Zm3.35-9.61v6.48l5.8-5.74Z"/><path class="cls-3" d="M1067.49,494.12l4.29,1.11,1.41,6.2,2.38-7.91L1082,495l.61,22-7.45-2,3.39-2.92-.23-13.72-3.39,9.79-3.12-1.71-3.22-6.67-.1,7.81,3.59,7.85L1065,517l.1-23.47Zm2.35,2.23a1.84,1.84,0,0,1-.57-.32,3.32,3.32,0,0,1-.67-.07,3.49,3.49,0,0,0-.71,0,1.36,1.36,0,0,0-.62.19.86.86,0,0,0-.38.57,1,1,0,0,0-.2.8,3.17,3.17,0,0,1,0,.87,2.9,2.9,0,0,0,.47.76.78.78,0,0,1,.13.82,2.59,2.59,0,0,0-.79.79,3,3,0,0,0-.43,1,2.15,2.15,0,0,0,0,1.07,1.92,1.92,0,0,0,.62.94.42.42,0,0,0,0,.27,1.83,1.83,0,0,0,.08.25c0,.08.07.16.1.25a.29.29,0,0,1,0,.27,5.57,5.57,0,0,1-.25.79c-.1.26-.19.52-.27.79s-.13.53-.18.8a3,3,0,0,0,0,.84.28.28,0,0,0,.2.3,1.47,1.47,0,0,0,.32.29.57.57,0,0,1,.25.32.73.73,0,0,1,.56.28.93.93,0,0,1,.18.55.86.86,0,0,1-.18.54.75.75,0,0,1-.56.27,2.49,2.49,0,0,0-.85,1.37,3.78,3.78,0,0,0-.09,1.76,2.7,2.7,0,0,0,.74,1.43,1.66,1.66,0,0,0,1.58.37,1.06,1.06,0,0,0,.5-.3,1.8,1.8,0,0,0,.27-.47,2.66,2.66,0,0,0,.12-.56,4.89,4.89,0,0,1,0-.55c0-.25-.12-.37-.34-.37s-.33.12-.33.37-.06.35-.09.5a2.76,2.76,0,0,0,0,.51.8.8,0,0,1-.49.23,1.05,1.05,0,0,1-.53-.07.91.91,0,0,1-.42-.3.67.67,0,0,1-.17-.43,4,4,0,0,1-.18-.91,2.86,2.86,0,0,1,0-1,1.82,1.82,0,0,1,.38-.82,1.64,1.64,0,0,1,.79-.52,1.28,1.28,0,0,0,.42-.62,1.52,1.52,0,0,0,0-.76,1.56,1.56,0,0,0-.3-.67,1.15,1.15,0,0,0-.61-.4l-.4-.37a.33.33,0,0,0,0-.33.37.37,0,0,0-.25-.21,3.27,3.27,0,0,1,.22-1c.12-.32.24-.65.35-1a3.71,3.71,0,0,0,.2-1,2.32,2.32,0,0,0-.2-1l-.49-.6a.87.87,0,0,1-.18-.74,1,1,0,0,1,.18-.7,5.47,5.47,0,0,1,.49-.59,5.17,5.17,0,0,0,.48-.59,1,1,0,0,0,.19-.7,2.07,2.07,0,0,0-.27-.72c-.13-.22-.27-.43-.4-.66v-.47a3,3,0,0,1,.05-.52,1,1,0,0,1,.18-.42.54.54,0,0,1,.44-.16c.24,0,.51.08.79.1a1,1,0,0,1,.62.23c0,.25.11.37.33.37s.34-.12.34-.37S1070.06,496.43,1069.84,496.35Zm-3.17,11.13-.05,0a.15.15,0,0,1-.1,0l.23-.17v.1A.13.13,0,0,0,1066.67,507.48Z"/><path class="cls-3" d="M1089.35,495.66l8.69-2.92,2.61,21.5-1.2,2.75h-6.51l2.65-8.59h-6.47l2.28,6.17-6.71,2.42-.73-4.43,2.54-13Zm1.26.94a2.1,2.1,0,0,0-.79.35,1.36,1.36,0,0,0-.47.64.93.93,0,0,0,.14.82.6.6,0,0,1-.12.69.63.63,0,0,1-.62.25,1.41,1.41,0,0,0-.79.54,2,2,0,0,0-.33.85,3.66,3.66,0,0,0-.05,1c0,.34,0,.65.06.94l-.53.28a.72.72,0,0,0-.34.46,1.13,1.13,0,0,0-.18.87,3,3,0,0,1,0,.94,2.66,2.66,0,0,1,.46.52,2.43,2.43,0,0,1,.32.67,1.85,1.85,0,0,1,0,.7.89.89,0,0,1-.36.59.61.61,0,0,0-.33.25,4.53,4.53,0,0,1-.34.39.72.72,0,0,0-.5.62,2.13,2.13,0,0,1-.3.82,2.56,2.56,0,0,0,.2,1.82,2.11,2.11,0,0,0,1.41,1.16.7.7,0,0,1,.28.37,1.06,1.06,0,0,1,.07.45.77.77,0,0,1-.17.42.57.57,0,0,1-.42.24.57.57,0,0,0-.16.15.21.21,0,0,1-.21.05q-.36,0-.36.33c0,.23.12.34.36.34a2.7,2.7,0,0,0,.69-.24,1.92,1.92,0,0,0,.61-.43,1.62,1.62,0,0,0,.35-.61,1.12,1.12,0,0,0-.07-.73,1.3,1.3,0,0,0-.62-.89c-.32-.19-.64-.38-1-.55a1.85,1.85,0,0,1-.35-.89,2.8,2.8,0,0,1,.07-1,2.38,2.38,0,0,1,.4-.85,2.28,2.28,0,0,1,.66-.62.42.42,0,0,0,.23-.24,1.43,1.43,0,0,0,.44-.72,2.42,2.42,0,0,0,0-.85,2.82,2.82,0,0,0-.29-.86,2.74,2.74,0,0,0-.51-.72c0-.25,0-.5,0-.77a1,1,0,0,1,.25-.71l.47-.25a.66.66,0,0,0,.37-.45,4.57,4.57,0,0,0-.07-.77,4.74,4.74,0,0,1,0-.82,1.85,1.85,0,0,1,.17-.71,1,1,0,0,1,.62-.48,1.29,1.29,0,0,0,1.07-.79,1.53,1.53,0,0,0,.12-.67,1.24,1.24,0,0,0-.22-.66.63.63,0,0,1,.57-.53,3.52,3.52,0,0,1,.84,0,.28.28,0,0,0,.27-.06.53.53,0,0,0,.12-.22.37.37,0,0,0-.07-.24.48.48,0,0,0-.25-.15A1.56,1.56,0,0,0,1090.61,496.6Zm-1.49,6.77h6.47l.94-7.21-5.13,3Z"/><path class="cls-3" d="M1113.29,492.85l5.84,2.61V517L1113,514.2l-6.7-10.63,1.71,11.74-5.54,1.68v-22.6l3.83-1.65,2.21,7.48,7,9-1.38-10.19Zm-10,10.17a3.18,3.18,0,0,0,0,.62,1.22,1.22,0,0,0,.22.52,1,1,0,0,0,.54.32,2.06,2.06,0,0,1,.43.64,2,2,0,0,1,.19.73,1.44,1.44,0,0,1-.15.71,1,1,0,0,1-.61.47,1.61,1.61,0,0,0-.5,1.09c0,.41,0,.82,0,1.22,0,.16,0,.26.16.3a2,2,0,0,0,.64.32,4.67,4.67,0,0,1,.67.27,1.33,1.33,0,0,1,.49.42,1.09,1.09,0,0,1,.15.7,2.86,2.86,0,0,1,0,1c0,.33-.08.67-.1,1a.65.65,0,0,1-.2.46.88.88,0,0,1-.45.27.75.75,0,0,1-.47,0,.42.42,0,0,1-.25-.39.3.3,0,0,0-.17-.22.55.55,0,0,0-.25,0,.28.28,0,0,0-.2.12.26.26,0,0,0,0,.26,1,1,0,0,0,.48.83,1.35,1.35,0,0,0,.91.11,1.84,1.84,0,0,0,.89-.45,1.21,1.21,0,0,0,.43-.85v-.14a7.76,7.76,0,0,0,.12-1.22,4.18,4.18,0,0,0-.14-1.24,2.29,2.29,0,0,0-.53-1,1.81,1.81,0,0,0-1.12-.52l-.37-.2a8.79,8.79,0,0,0,0-.9.75.75,0,0,1,.42-.74,1.65,1.65,0,0,0,.77-.92,2.31,2.31,0,0,0,0-1.14,2.8,2.8,0,0,0-.48-1.11,2.71,2.71,0,0,0-.84-.79.74.74,0,0,1,0-.42,3.19,3.19,0,0,0,0-.45c.09,0,.13-.15.13-.3a1.64,1.64,0,0,1,.42-1.14c.28-.31.57-.62.86-.91a.27.27,0,0,0,.23-.27,2.67,2.67,0,0,0-.1-1.39,1.63,1.63,0,0,0-.9-1,.42.42,0,0,0-.17-.23c-.09-.07-.13-.13-.13-.17a1.55,1.55,0,0,1,0-.74.9.9,0,0,1,.49-.54l.32-.31a.46.46,0,0,1,.42-.12c.24,0,.37-.11.37-.34s-.13-.33-.37-.33a2.16,2.16,0,0,0-.86.3,2.68,2.68,0,0,0-.67.59,2.08,2.08,0,0,0-.4.8,2,2,0,0,0,0,.92.28.28,0,0,0,.24.3,1.93,1.93,0,0,1,.22.36.48.48,0,0,0,.35.25.73.73,0,0,1,.47.6,3.75,3.75,0,0,1,0,.81l-1,1a2,2,0,0,0-.59,1.28.37.37,0,0,0-.14.36C1103.33,502.61,1103.33,502.81,1103.32,503Z"/><path class="cls-3" d="M1121.48,499.45l2.51-3.22-.13-.1,2.48-2.61,6.7,1.2,4.36,5.5v4.56l-.53,8.08-5.64,4.13h-6.6l-3.39-4.33-.3-9.09Zm3.92-.64v0h0v0l-.07.07a.41.41,0,0,0-.32.17.42.42,0,0,1-.39.13,5.14,5.14,0,0,0-1.14.5,1.08,1.08,0,0,0-.53,1.08,2.45,2.45,0,0,0-.05,1.32,1.27,1.27,0,0,0,.82,1,1.21,1.21,0,0,0,0,.52.28.28,0,0,1-.19.38,5.18,5.18,0,0,0-.63,1,4.78,4.78,0,0,0-.42,1.2,2.51,2.51,0,0,0,0,1.16,1.46,1.46,0,0,0,.72.89l.41.47,0-.07a1,1,0,0,1,.27.67c0,.25,0,.49,0,.74a.71.71,0,0,0-.37.47.31.31,0,0,0,0,.23c-.09.2-.19.41-.3.62a2.43,2.43,0,0,0-.22.64,1.44,1.44,0,0,0,0,.62.94.94,0,0,0,.47.5,2.17,2.17,0,0,0,.76.32l.75.19a3.83,3.83,0,0,1,.14.72,3.68,3.68,0,0,0,.13.75,2,2,0,0,0,.3.64,1,1,0,0,0,.67.34h.67a4.13,4.13,0,0,0,.71,0,1.34,1.34,0,0,0,.59-.24,1,1,0,0,0,.35-.58v-.71c0-.24-.12-.37-.34-.37s-.33.13-.33.37v.51a.39.39,0,0,1-.24.36,2.25,2.25,0,0,0-.52,0,1.82,1.82,0,0,1-.57,0,1,1,0,0,1-.47-.15.59.59,0,0,1-.22-.45,2.35,2.35,0,0,0,0-.74,1.79,1.79,0,0,0-.27-.72,1.35,1.35,0,0,0-.5-.48,1,1,0,0,0-.74-.07,1.58,1.58,0,0,1-.55-.3.43.43,0,0,1-.08-.61,3.55,3.55,0,0,1,.38-.62.84.84,0,0,0,.18-.65l0,0s0,0,.07,0a.28.28,0,0,0,.2-.3,2.73,2.73,0,0,0-.19-1.66,2.23,2.23,0,0,0-1.15-1.19,3,3,0,0,1,.15-1.73,3.33,3.33,0,0,1,1-1.42,1,1,0,0,0,.1-.65,1.47,1.47,0,0,1,0-.66.27.27,0,0,0-.14-.33,4.52,4.52,0,0,1-.58-.39.57.57,0,0,1-.22-.62c0-.31.1-.64.17-1a.75.75,0,0,1,.7-.62l1-.35a.93.93,0,0,0,.66-.76v-.53a.89.89,0,0,0-.17-.51.69.69,0,0,0,0-.13.59.59,0,0,1,0-.13,1.8,1.8,0,0,1,0-.22,1.8,1.8,0,0,0,0-.22,2.29,2.29,0,0,1,.4-.67,8.15,8.15,0,0,1,1.51-.08,1.65,1.65,0,0,1,1.31.62h.2c.24,0,.37-.12.37-.34s-.13-.33-.37-.33h0s0,0,0,0a2,2,0,0,0-1.54-.6,13.15,13.15,0,0,0-1.75.17,2.77,2.77,0,0,0-.68,1.15,1.63,1.63,0,0,0,.12,1.33v.47Zm8.11,3.05-5.9-3.58-2.45,6.77,1.58,8,5.7-.53Z"/><path class="cls-3" d="M1141.39,495.9l10.6-3.16.47,7.48-7.18-1.74,8.18,9.12-4,8.65-9.69.74,3.22-6.71,4,2.25,1.24-5.6-5.94-3-2.85-4.66Zm4,.33a4.85,4.85,0,0,0-1.54.12,2.83,2.83,0,0,0-1.24.67,1.93,1.93,0,0,0-.55,1.42,2.45,2.45,0,0,0,.1,1.11,1.07,1.07,0,0,0,.84.71c.2,0,.4.1.6.16a2,2,0,0,1,.53.27,1,1,0,0,1,.36.44.9.9,0,0,1,0,.63,4.74,4.74,0,0,1-.06,1.13,3.82,3.82,0,0,0,0,1.12,1.54,1.54,0,0,0,1,.67,7.16,7.16,0,0,0,1.24.1,11.26,11.26,0,0,1,1.31.07,2,2,0,0,1,1.14.5.24.24,0,0,0,.2.07,2.57,2.57,0,0,0,.23.47.51.51,0,0,1,0,.47,3.41,3.41,0,0,1-.14,1.12c-.11.39-.21.78-.3,1.16a3.82,3.82,0,0,0-.1,1.1,1.55,1.55,0,0,0,.5,1,2.64,2.64,0,0,1,0,1.31,1.59,1.59,0,0,1-.83,1,2.93,2.93,0,0,1-.93.44,4.66,4.66,0,0,1-1,.17.31.31,0,0,0-.25.11.35.35,0,0,0-.06.26.31.31,0,0,0,.11.21.4.4,0,0,0,.27.09,3.13,3.13,0,0,0,1.54-.27,3.47,3.47,0,0,0,1.24-.92,2.87,2.87,0,0,0,.66-1.34,2.42,2.42,0,0,0-.25-1.56,1.32,1.32,0,0,1-.31-.92,4.94,4.94,0,0,1,.19-1l.3-1a2,2,0,0,0,0-1,1.12,1.12,0,0,0-.08-.7c-.1-.22-.21-.45-.32-.67s-.26-.26-.44-.17a2.39,2.39,0,0,0-1-.48,8.48,8.48,0,0,0-1.11-.16l-1.12-.05a3.52,3.52,0,0,1-1.11-.21.62.62,0,0,1,0-.59.93.93,0,0,0,.07-.59c0-.24,0-.51.06-.8a2.45,2.45,0,0,0,0-.82,1.67,1.67,0,0,0-.31-.69,1.51,1.51,0,0,0-.68-.47.72.72,0,0,0-.38-.2l-.47-.12a1.05,1.05,0,0,1-.39-.17.36.36,0,0,1-.13-.38,1.69,1.69,0,0,1,.39-1.56,1.74,1.74,0,0,1,.67-.47,1.51,1.51,0,0,1,.82-.08,6.16,6.16,0,0,1,2.11.16.28.28,0,0,0,.27-.05.32.32,0,0,0,.12-.2.45.45,0,0,0,0-.25.27.27,0,0,0-.22-.17A13.85,13.85,0,0,0,1145.43,496.23Z"/><path class="cls-3" d="M691.46,763.1a.5.5,0,0,1,.55-.39h3.32c.36,0,.5.18.42.55l-5.87,17.37a.53.53,0,0,1-.57.4h-3.12a.5.5,0,0,1-.55-.4l-4-11.48-3.95,11.48a.49.49,0,0,1-.54.4H674a.5.5,0,0,1-.55-.4l-5.86-17.37a.4.4,0,0,1,0-.39.42.42,0,0,1,.38-.16h3.3a.51.51,0,0,1,.55.39L675.68,775l4.14-11.75a.51.51,0,0,1,.57-.39h2.53a.52.52,0,0,1,.55.39L687.64,775Z"/><path class="cls-3" d="M711.57,781.45a4.67,4.67,0,0,1-2.92-.84,2.71,2.71,0,0,1-1.08-2.28v-4.1a3.08,3.08,0,0,0-.75-2.15,2.59,2.59,0,0,0-2-.81,3,3,0,0,0-2.11.77,2.74,2.74,0,0,0-.8,2.05v6.44a.44.44,0,0,1-.5.5h-2.93a.44.44,0,0,1-.49-.5V762.16a.44.44,0,0,1,.49-.5h2.93a.44.44,0,0,1,.5.5V769a6.84,6.84,0,0,1,3.92-1.12A5.56,5.56,0,0,1,710,769.5a5.75,5.75,0,0,1,1.56,4.21v3.37c0,.67.28,1,.85,1a3,3,0,0,0,.8-.09q.54-.06.57.42l.23,2.17a.43.43,0,0,1-.38.55A7.46,7.46,0,0,1,711.57,781.45Z"/><path class="cls-3" d="M722.57,781.45a7.32,7.32,0,0,1-5.21-1.86,6.4,6.4,0,0,1-2-4.9,6.54,6.54,0,0,1,1.92-4.92,7,7,0,0,1,5-1.85,6.73,6.73,0,0,1,5,1.83,6.54,6.54,0,0,1,1.84,4.84c0,.1,0,.25,0,.45s0,.34,0,.44a.5.5,0,0,1-.55.45H719.2a3.25,3.25,0,0,0,1.24,1.85,3.59,3.59,0,0,0,2.21.68,2.74,2.74,0,0,0,2.14-.78,1.2,1.2,0,0,1,.63-.27h2.94a.5.5,0,0,1,.41.15.37.37,0,0,1,0,.38,5.31,5.31,0,0,1-2.33,2.57A7.65,7.65,0,0,1,722.57,781.45Zm-3.4-7.86h6.25a2.86,2.86,0,0,0-.86-2,3,3,0,0,0-2.12-.77,3.26,3.26,0,0,0-2.18.77A3.15,3.15,0,0,0,719.17,773.59Z"/><path class="cls-3" d="M742.37,768.15a.47.47,0,0,1,.4.57l-.34,2.52a.45.45,0,0,1-.58.4,7,7,0,0,0-1.43-.13,3.49,3.49,0,0,0-2.49.91,3.25,3.25,0,0,0-1,2.49v5.62a.44.44,0,0,1-.5.5h-2.93a.44.44,0,0,1-.5-.5v-8.21a.9.9,0,0,0-1-1l-.57.08c-.39,0-.58-.14-.58-.41v-2.15a.54.54,0,0,1,.4-.57,5.76,5.76,0,0,1,1.88-.32,3.15,3.15,0,0,1,3.17,1.78,5.48,5.48,0,0,1,4.26-1.78A5.92,5.92,0,0,1,742.37,768.15Z"/><path class="cls-3" d="M751.22,781.45a7.31,7.31,0,0,1-5.21-1.86,6.41,6.41,0,0,1-2-4.9,6.51,6.51,0,0,1,1.93-4.92,7,7,0,0,1,5-1.85,6.76,6.76,0,0,1,5,1.83,6.54,6.54,0,0,1,1.84,4.84c0,.1,0,.25,0,.45s0,.34,0,.44a.49.49,0,0,1-.55.45h-9.39a3.32,3.32,0,0,0,1.25,1.85,3.58,3.58,0,0,0,2.2.68,2.75,2.75,0,0,0,2.15-.78,1.2,1.2,0,0,1,.63-.27H757a.48.48,0,0,1,.41.15.33.33,0,0,1,0,.38,5.24,5.24,0,0,1-2.32,2.57A7.65,7.65,0,0,1,751.22,781.45Zm-3.4-7.86h6.25a2.87,2.87,0,0,0-.87-2,3,3,0,0,0-2.11-.77,3.31,3.31,0,0,0-2.19.77A3.18,3.18,0,0,0,747.82,773.59Z"/><path class="cls-3" d="M772.54,781.45a8.31,8.31,0,0,1-4.47-1.08,4.22,4.22,0,0,1-2-3c0-.35.12-.53.5-.53l2.57,0a.65.65,0,0,1,.57.37c.37.94,1.32,1.42,2.85,1.42a3.29,3.29,0,0,0,1.56-.32,1,1,0,0,0,.59-.85c0-.45-.28-.77-.84-1a9.16,9.16,0,0,0-2-.44,22.38,22.38,0,0,1-2.4-.43,4,4,0,0,1-2-1.18,3.39,3.39,0,0,1-.84-2.42,3.5,3.5,0,0,1,1.6-3,7.19,7.19,0,0,1,4.22-1.12,7.57,7.57,0,0,1,4.12,1,3.86,3.86,0,0,1,1.92,2.73c0,.35-.11.52-.47.52h-2.6a.55.55,0,0,1-.52-.32,1.78,1.78,0,0,0-.9-.92,3.58,3.58,0,0,0-3-.05.89.89,0,0,0-.57.79,1.14,1.14,0,0,0,.85,1,9.78,9.78,0,0,0,2.07.51c.82.11,1.62.27,2.43.46a4.11,4.11,0,0,1,2,1.17,3.36,3.36,0,0,1,.85,2.39,3.54,3.54,0,0,1-1.63,3A7.63,7.63,0,0,1,772.54,781.45Z"/><path class="cls-3" d="M793,779.59a8.25,8.25,0,0,1-10.44,0,7.08,7.08,0,0,1,0-9.82,8.27,8.27,0,0,1,10.44,0,7.09,7.09,0,0,1,0,9.81Zm-7.72-2.34a3.74,3.74,0,0,0,5,0,3.92,3.92,0,0,0,0-5.12,3.74,3.74,0,0,0-5,0,3.92,3.92,0,0,0,0,5.12Z"/><path class="cls-3" d="M823.33,780.58a.45.45,0,0,1-.39.55,7.4,7.4,0,0,1-2,.32,4.67,4.67,0,0,1-2.92-.84,2.69,2.69,0,0,1-1.09-2.28v-4.1a3.11,3.11,0,0,0-.73-2.15,2.52,2.52,0,0,0-2-.81,2.15,2.15,0,0,0-1.72.77,3.06,3.06,0,0,0-.65,2.05v6.44a.44.44,0,0,1-.5.5h-3a.44.44,0,0,1-.5-.5v-6.3a3.25,3.25,0,0,0-.69-2.15,2.22,2.22,0,0,0-1.8-.81,2.52,2.52,0,0,0-1.93.77,2.9,2.9,0,0,0-.72,2.05v6.44a.44.44,0,0,1-.5.5h-2.92a.44.44,0,0,1-.5-.5v-8.21a.9.9,0,0,0-1-1l-.58.08c-.38,0-.57-.14-.57-.41v-2.15a.54.54,0,0,1,.39-.57,5.14,5.14,0,0,1,1.88-.32,3.3,3.3,0,0,1,3.12,1.6,5.84,5.84,0,0,1,4.42-1.6,5,5,0,0,1,4.14,1.85,5.77,5.77,0,0,1,4.57-1.85,5.55,5.55,0,0,1,4.13,1.58,5.75,5.75,0,0,1,1.56,4.21v3.37c0,.67.28,1,.86,1a3,3,0,0,0,.79-.09q.54-.06.57.42Z"/><path class="cls-3" d="M831.93,781.45a7.32,7.32,0,0,1-5.21-1.86,6.4,6.4,0,0,1-2-4.9,6.54,6.54,0,0,1,1.92-4.92,7,7,0,0,1,5-1.85,6.73,6.73,0,0,1,5,1.83,6.54,6.54,0,0,1,1.84,4.84c0,.1,0,.25,0,.45s0,.34,0,.44a.5.5,0,0,1-.55.45h-9.39a3.3,3.3,0,0,0,1.24,1.85,3.61,3.61,0,0,0,2.21.68,2.72,2.72,0,0,0,2.14-.78,1.2,1.2,0,0,1,.63-.27h2.94a.49.49,0,0,1,.41.15.33.33,0,0,1,0,.38,5.26,5.26,0,0,1-2.33,2.57A7.65,7.65,0,0,1,831.93,781.45Zm-3.4-7.86h6.25a2.82,2.82,0,0,0-.86-2,3,3,0,0,0-2.12-.77,3.26,3.26,0,0,0-2.18.77A3.15,3.15,0,0,0,828.53,773.59Z"/><path class="cls-3" d="M848.13,781.45a5.46,5.46,0,0,1-4-1.46,5.33,5.33,0,0,1-1.48-4v-4.52H840.2a.44.44,0,0,1-.5-.5v-2.17a.44.44,0,0,1,.5-.5h2.41V765a.44.44,0,0,1,.49-.5H846a.44.44,0,0,1,.5.5v3.32h4.1a.44.44,0,0,1,.5.5V771a.44.44,0,0,1-.5.5h-4.1v4.4a2.11,2.11,0,0,0,.58,1.57,2.2,2.2,0,0,0,1.59.57,7.77,7.77,0,0,0,1.95-.24c.34,0,.53.08.58.4l.34,2.24a.53.53,0,0,1-.39.58A12.59,12.59,0,0,1,848.13,781.45Z"/><path class="cls-3" d="M867.49,781.45a4.62,4.62,0,0,1-2.91-.84,2.69,2.69,0,0,1-1.09-2.28v-4.1a3.08,3.08,0,0,0-.75-2.15,2.56,2.56,0,0,0-2-.81,2.93,2.93,0,0,0-2.11.77,2.71,2.71,0,0,0-.81,2.05v6.44a.44.44,0,0,1-.5.5h-2.92a.44.44,0,0,1-.5-.5V762.16a.44.44,0,0,1,.5-.5h2.92a.44.44,0,0,1,.5.5V769a6.86,6.86,0,0,1,3.92-1.12,5.55,5.55,0,0,1,4.13,1.58,5.75,5.75,0,0,1,1.56,4.21v3.37c0,.67.29,1,.86,1a3,3,0,0,0,.79-.09c.36,0,.56.1.57.42l.23,2.17a.43.43,0,0,1-.38.55A7.4,7.4,0,0,1,867.49,781.45Z"/><path class="cls-3" d="M875.82,765.38a2.4,2.4,0,0,1-1.67.62,2.37,2.37,0,0,1-1.66-.62,2.05,2.05,0,0,1-.67-1.54,2,2,0,0,1,.67-1.53,2.36,2.36,0,0,1,1.66-.61,2.39,2.39,0,0,1,1.67.61,2,2,0,0,1,.67,1.53A2.05,2.05,0,0,1,875.82,765.38Zm.37,16.07a4.62,4.62,0,0,1-2.91-.84,2.72,2.72,0,0,1-1.09-2.28v-9.49a.44.44,0,0,1,.5-.5h2.93a.44.44,0,0,1,.5.5v8.24c0,.67.29,1,.89,1a3,3,0,0,0,.78-.09c.35,0,.53.1.55.42l.27,2.17a.47.47,0,0,1-.42.55A7.16,7.16,0,0,1,876.19,781.45Z"/><path class="cls-3" d="M897.81,780.58a.44.44,0,0,1-.39.55,7.46,7.46,0,0,1-2,.32,4.67,4.67,0,0,1-2.92-.84,2.71,2.71,0,0,1-1.08-2.28v-4.1a3.08,3.08,0,0,0-.75-2.15,2.59,2.59,0,0,0-2-.81,3,3,0,0,0-2.11.77,2.74,2.74,0,0,0-.8,2.05v6.44a.44.44,0,0,1-.5.5h-2.93a.44.44,0,0,1-.5-.5v-8.21a.9.9,0,0,0-1-1l-.57.08c-.39,0-.58-.14-.58-.41v-2.15a.54.54,0,0,1,.4-.57,5.14,5.14,0,0,1,1.88-.32,3.35,3.35,0,0,1,3.14,1.62,6.21,6.21,0,0,1,4.59-1.62,5.56,5.56,0,0,1,4.13,1.58,5.75,5.75,0,0,1,1.57,4.21v3.37c0,.67.29,1,.87,1A2.76,2.76,0,0,0,897,778c.37,0,.56.1.58.42Z"/><path class="cls-3" d="M913.26,768.34a.44.44,0,0,1,.5.5v12.51a5.69,5.69,0,0,1-1.94,4.48,7.39,7.39,0,0,1-5.08,1.72,8.15,8.15,0,0,1-4.72-1.31,5.27,5.27,0,0,1-2.29-3.49c-.09-.33.07-.49.47-.49h2.93a.62.62,0,0,1,.57.39,2.2,2.2,0,0,0,1.08,1.24,3.84,3.84,0,0,0,1.94.46,3.1,3.1,0,0,0,2.25-.81,2.9,2.9,0,0,0,.83-2.17v-1.09a5.87,5.87,0,0,1-3.63,1.12,6.76,6.76,0,0,1-4.95-1.9,7,7,0,0,1,0-9.7,6.82,6.82,0,0,1,4.95-1.88,5.88,5.88,0,0,1,3.72,1.2v-.28c0-.33.16-.5.48-.5Zm-6.76,10a3,3,0,0,0,2.38-1,3.85,3.85,0,0,0,.92-2.65,3.77,3.77,0,0,0-.93-2.64,3.09,3.09,0,0,0-2.37-1,3.16,3.16,0,0,0-2.42,1,3.71,3.71,0,0,0-1,2.63,3.77,3.77,0,0,0,.94,2.65A3.13,3.13,0,0,0,906.5,778.31Z"/><path class="cls-3" d="M937.14,768.34a.44.44,0,0,1,.5.5v12.51a5.69,5.69,0,0,1-1.94,4.48,7.39,7.39,0,0,1-5.08,1.72,8.15,8.15,0,0,1-4.72-1.31,5.27,5.27,0,0,1-2.29-3.49c-.09-.33.07-.49.47-.49H927a.61.61,0,0,1,.57.39,2.2,2.2,0,0,0,1.08,1.24,3.84,3.84,0,0,0,1.94.46,3.1,3.1,0,0,0,2.25-.81,2.9,2.9,0,0,0,.83-2.17v-1.09a5.87,5.87,0,0,1-3.63,1.12,6.76,6.76,0,0,1-4.95-1.9,7,7,0,0,1,0-9.7,6.82,6.82,0,0,1,4.95-1.88,5.88,5.88,0,0,1,3.72,1.2v-.28c0-.33.16-.5.48-.5Zm-6.76,10a3,3,0,0,0,2.38-1,3.85,3.85,0,0,0,.92-2.65,3.77,3.77,0,0,0-.93-2.64,3.09,3.09,0,0,0-2.37-1,3.16,3.16,0,0,0-2.42,1,4.16,4.16,0,0,0,0,5.28A3.15,3.15,0,0,0,930.38,778.31Z"/><path class="cls-3" d="M952.69,779.59a8.25,8.25,0,0,1-10.44,0,7.08,7.08,0,0,1,0-9.82,8.27,8.27,0,0,1,10.44,0,7.09,7.09,0,0,1,0,9.81ZM945,777.25a3.72,3.72,0,0,0,5,0,3.89,3.89,0,0,0,0-5.12,3.72,3.72,0,0,0-5,0,3.92,3.92,0,0,0,0,5.12Z"/><path class="cls-3" d="M969.12,779.59a8.25,8.25,0,0,1-10.44,0,7.08,7.08,0,0,1,0-9.82,8.27,8.27,0,0,1,10.44,0,7.09,7.09,0,0,1,0,9.81Zm-7.72-2.34a3.74,3.74,0,0,0,5,0,3.92,3.92,0,0,0,0-5.12,3.74,3.74,0,0,0-5,0,3.92,3.92,0,0,0,0,5.12Z"/><path class="cls-3" d="M990.07,780.58a.44.44,0,0,1-.4.55,7.17,7.17,0,0,1-2,.32,3.41,3.41,0,0,1-3.31-1.65,6,6,0,0,1-4.34,1.65,6.8,6.8,0,0,1-5-1.88,7.19,7.19,0,0,1,0-9.77,6.79,6.79,0,0,1,5-1.88,6,6,0,0,1,3.64,1.12v-6.88a.44.44,0,0,1,.5-.5h3a.43.43,0,0,1,.49.5v14.92c0,.67.29,1,.87,1a2.88,2.88,0,0,0,.78-.09c.36,0,.56.1.57.42Zm-9.72-2.2a3,3,0,0,0,2.39-1,4.37,4.37,0,0,0,0-5.34,3.06,3.06,0,0,0-2.39-1,3.16,3.16,0,0,0-2.43,1,4.26,4.26,0,0,0,0,5.34A3.14,3.14,0,0,0,980.35,778.38Z"/><path class="cls-3" d="M1002.66,765.38a2.37,2.37,0,0,1-1.66.62,2.4,2.4,0,0,1-1.67-.62,2.05,2.05,0,0,1-.67-1.54,2,2,0,0,1,.67-1.53,2.39,2.39,0,0,1,1.67-.61,2.36,2.36,0,0,1,1.66.61,2,2,0,0,1,.67,1.53A2.05,2.05,0,0,1,1002.66,765.38Zm.37,16.07a4.64,4.64,0,0,1-2.91-.84,2.71,2.71,0,0,1-1.08-2.28v-9.49a.44.44,0,0,1,.49-.5h2.93a.44.44,0,0,1,.5.5v8.24c0,.67.3,1,.89,1a3,3,0,0,0,.78-.09c.35,0,.53.1.55.42l.27,2.17a.47.47,0,0,1-.42.55A7.16,7.16,0,0,1,1003,781.45Z"/><path class="cls-3" d="M1013.31,781.45a8.37,8.37,0,0,1-4.48-1.08,4.21,4.21,0,0,1-2-3c-.06-.35.11-.53.49-.53l2.57,0a.68.68,0,0,1,.58.37c.36.94,1.31,1.42,2.85,1.42a3.35,3.35,0,0,0,1.56-.32,1,1,0,0,0,.58-.85c0-.45-.28-.77-.83-1a9.16,9.16,0,0,0-2-.44,23,23,0,0,1-2.41-.43,4,4,0,0,1-2-1.18,3.39,3.39,0,0,1-.84-2.42,3.48,3.48,0,0,1,1.6-3,7.16,7.16,0,0,1,4.21-1.12,7.52,7.52,0,0,1,4.12,1,3.84,3.84,0,0,1,1.93,2.73c.05.35-.11.52-.48.52h-2.59a.54.54,0,0,1-.52-.32,1.86,1.86,0,0,0-.9-.92,3.6,3.6,0,0,0-3-.05.89.89,0,0,0-.56.79,1.13,1.13,0,0,0,.85,1,9.78,9.78,0,0,0,2.07.51c.81.11,1.62.27,2.42.46a4.11,4.11,0,0,1,2,1.17,3.31,3.31,0,0,1,.85,2.39,3.53,3.53,0,0,1-1.62,3A7.65,7.65,0,0,1,1013.31,781.45Z"/><path class="cls-3" d="M1045,780.58a.47.47,0,0,1-.43.55,6.94,6.94,0,0,1-2,.32,3.45,3.45,0,0,1-3.3-1.6,6.46,6.46,0,0,1-4.41,1.6,6.77,6.77,0,0,1-5-1.88,7.17,7.17,0,0,1,0-9.77,6.82,6.82,0,0,1,5-1.88,5.88,5.88,0,0,1,3.72,1.2v-.28a.44.44,0,0,1,.5-.5H1042a.43.43,0,0,1,.48.5v8.22q0,1,.87,1a3.12,3.12,0,0,0,.81-.09c.35,0,.53.1.55.42Zm-9.74-2.2a3,3,0,0,0,2.38-1,4.33,4.33,0,0,0,0-5.34,3,3,0,0,0-2.38-1,3.13,3.13,0,0,0-2.43,1,4.26,4.26,0,0,0,0,5.34A3.11,3.11,0,0,0,1035.26,778.38Z"/><path class="cls-3" d="M1051.29,781.45a4.66,4.66,0,0,1-2.91-.84,2.71,2.71,0,0,1-1.08-2.28V762.16a.44.44,0,0,1,.49-.5h2.93a.44.44,0,0,1,.5.5v14.92c0,.67.3,1,.89,1a3,3,0,0,0,.78-.09c.35,0,.53.1.55.42l.27,2.17a.47.47,0,0,1-.42.55A7.16,7.16,0,0,1,1051.29,781.45Z"/><path class="cls-3" d="M1063.54,781.45a6.71,6.71,0,0,1-4.6-1.6,5.38,5.38,0,0,1-1.82-4.26v-3.27a.9.9,0,0,0-1-1l-.58.08c-.38,0-.57-.14-.57-.41v-2.15a.54.54,0,0,1,.4-.57,6.06,6.06,0,0,1,2-.32,3.94,3.94,0,0,1,2.73.94,3.3,3.3,0,0,1,1,2.54v3.74a3.22,3.22,0,0,0,.66,2.25,2.52,2.52,0,0,0,2,.71,2.13,2.13,0,0,0,2-.87,5.12,5.12,0,0,0,.51-2.56v-5.83c0-.33.16-.5.47-.5h3a.44.44,0,0,1,.49.5v6.3a3.38,3.38,0,0,0,.62,2.25,2.35,2.35,0,0,0,1.9.71,2.27,2.27,0,0,0,1.92-1,4.57,4.57,0,0,0,.74-2.71,15.44,15.44,0,0,0-1-5.44c-.12-.39,0-.58.43-.58h2.87a.6.6,0,0,1,.6.41,17.42,17.42,0,0,1,1,5.71,7.19,7.19,0,0,1-1.78,5.06,6,6,0,0,1-4.63,1.93,5.85,5.85,0,0,1-4.64-1.89A5.64,5.64,0,0,1,1063.54,781.45Z"/><path class="cls-3" d="M1098.57,780.58a.46.46,0,0,1-.42.55,7.06,7.06,0,0,1-2,.32,3.43,3.43,0,0,1-3.3-1.6,6.46,6.46,0,0,1-4.41,1.6,6.8,6.8,0,0,1-5-1.88,7.19,7.19,0,0,1,0-9.77,6.79,6.79,0,0,1,5-1.88,5.88,5.88,0,0,1,3.72,1.2v-.28a.44.44,0,0,1,.5-.5h2.88a.43.43,0,0,1,.49.5v8.22q0,1,.87,1a3.09,3.09,0,0,0,.8-.09c.35,0,.54.1.55.42Zm-9.74-2.2a3,3,0,0,0,2.39-1,4.37,4.37,0,0,0,0-5.34,3.06,3.06,0,0,0-2.39-1,3.16,3.16,0,0,0-2.43,1,4.26,4.26,0,0,0,0,5.34A3.14,3.14,0,0,0,1088.83,778.38Z"/><path class="cls-3" d="M1107.36,787.55a8.16,8.16,0,0,1-4.77-1.33,4.8,4.8,0,0,1-2.17-3.47c0-.33.13-.49.48-.49h3a.59.59,0,0,1,.55.39,2.76,2.76,0,0,0,2.92,1.7,3,3,0,0,0,2.13-.76,2.77,2.77,0,0,0,.82-2.14V780.3a6.7,6.7,0,0,1-3.89,1.1,5.45,5.45,0,0,1-4.1-1.6,5.77,5.77,0,0,1-1.55-4.19v-6.77a.44.44,0,0,1,.5-.5h2.92a.44.44,0,0,1,.5.5v6.25a3,3,0,0,0,.75,2.12,2.58,2.58,0,0,0,2,.8,2.91,2.91,0,0,0,2.09-.75,2.7,2.7,0,0,0,.78-2v-6.38a.44.44,0,0,1,.5-.5h3a.44.44,0,0,1,.49.5v12.53a5.77,5.77,0,0,1-1.87,4.48A7.23,7.23,0,0,1,1107.36,787.55Z"/><path class="cls-3" d="M1123.1,781.45a8.31,8.31,0,0,1-4.47-1.08,4.22,4.22,0,0,1-2-3c0-.35.12-.53.5-.53l2.57,0a.65.65,0,0,1,.57.37c.37.94,1.32,1.42,2.85,1.42a3.29,3.29,0,0,0,1.56-.32,1,1,0,0,0,.59-.85c0-.45-.28-.77-.84-1a8.94,8.94,0,0,0-2-.44,22.56,22.56,0,0,1-2.41-.43,4,4,0,0,1-2-1.18,3.43,3.43,0,0,1-.83-2.42,3.49,3.49,0,0,1,1.59-3,7.19,7.19,0,0,1,4.22-1.12,7.55,7.55,0,0,1,4.12,1,3.86,3.86,0,0,1,1.92,2.73c0,.35-.1.52-.47.52h-2.59a.57.57,0,0,1-.53-.32,1.78,1.78,0,0,0-.9-.92,3.58,3.58,0,0,0-3-.05.88.88,0,0,0-.56.79,1.13,1.13,0,0,0,.85,1,9.48,9.48,0,0,0,2.07.51c.81.11,1.62.27,2.42.46a4.11,4.11,0,0,1,2,1.17,3.36,3.36,0,0,1,.85,2.39,3.53,3.53,0,0,1-1.62,3A7.69,7.69,0,0,1,1123.1,781.45Z"/><path class="cls-3" d="M1145,781.45a7.31,7.31,0,0,1-5.22-1.86,7.1,7.1,0,0,1,0-9.82,8.25,8.25,0,0,1,9.62-.57,5.4,5.4,0,0,1,2.19,3.46c.05.35-.09.52-.44.52h-2.8a.58.58,0,0,1-.55-.42,2.48,2.48,0,0,0-1-1.21,3.23,3.23,0,0,0-1.76-.46,3.28,3.28,0,0,0-2.49,1,4.13,4.13,0,0,0,0,5.22,3.31,3.31,0,0,0,2.49,1,3.41,3.41,0,0,0,1.78-.45,2.14,2.14,0,0,0,1-1.22.61.61,0,0,1,.55-.42h2.8c.35,0,.49.17.44.52a5.4,5.4,0,0,1-2.19,3.46A7.36,7.36,0,0,1,1145,781.45Z"/><path class="cls-3" d="M1166.08,779.59a8.25,8.25,0,0,1-10.44,0,7.1,7.1,0,0,1,0-9.82,8.27,8.27,0,0,1,10.44,0,7.09,7.09,0,0,1,0,9.81Zm-7.72-2.34a3.74,3.74,0,0,0,5,0,3.92,3.92,0,0,0,0-5.12,3.74,3.74,0,0,0-5,0,3.92,3.92,0,0,0,0,5.12Z"/><path class="cls-3" d="M1182.51,779.59a8.25,8.25,0,0,1-10.44,0,7.1,7.1,0,0,1,0-9.82,8.27,8.27,0,0,1,10.44,0,7.07,7.07,0,0,1,0,9.81Zm-7.72-2.34a3.74,3.74,0,0,0,5,0,3.92,3.92,0,0,0,0-5.12,3.74,3.74,0,0,0-5,0,3.92,3.92,0,0,0,0,5.12Z"/><path class="cls-3" d="M1201.14,780.45c.11.16.14.29.07.41a.43.43,0,0,1-.39.17h-3.65a.68.68,0,0,1-.6-.32l-3.16-4.5h-2.33v4.32c0,.33-.16.5-.47.5h-3c-.32,0-.47-.17-.47-.5V762.16c0-.33.15-.5.47-.5h3c.31,0,.47.17.47.5V773h1.23a4.49,4.49,0,0,0,3.15-1.11,4.8,4.8,0,0,0,1.46-3.09c0-.33.18-.5.5-.5h2.9c.36,0,.53.17.5.5a8,8,0,0,1-3.58,6.22Z"/><path class="cls-3" d="M1206.82,765.38a2.4,2.4,0,0,1-1.67.62,2.37,2.37,0,0,1-1.66-.62,2.05,2.05,0,0,1-.67-1.54,2,2,0,0,1,.67-1.53,2.36,2.36,0,0,1,1.66-.61,2.39,2.39,0,0,1,1.67.61,2,2,0,0,1,.67,1.53A2.05,2.05,0,0,1,1206.82,765.38Zm.37,16.07a4.62,4.62,0,0,1-2.91-.84,2.69,2.69,0,0,1-1.09-2.28v-9.49a.44.44,0,0,1,.5-.5h2.93a.44.44,0,0,1,.5.5v8.24c0,.67.29,1,.89,1a3,3,0,0,0,.78-.09c.35,0,.53.1.55.42l.27,2.17a.47.47,0,0,1-.42.55A7.16,7.16,0,0,1,1207.19,781.45Z"/><path class="cls-3" d="M1228.81,780.58a.44.44,0,0,1-.39.55,7.46,7.46,0,0,1-2,.32,4.67,4.67,0,0,1-2.92-.84,2.71,2.71,0,0,1-1.08-2.28v-4.1a3.08,3.08,0,0,0-.75-2.15,2.59,2.59,0,0,0-2-.81,3,3,0,0,0-2.11.77,2.74,2.74,0,0,0-.8,2.05v6.44a.44.44,0,0,1-.5.5h-2.93a.44.44,0,0,1-.49-.5v-8.21a.91.91,0,0,0-1-1l-.57.08c-.39,0-.58-.14-.58-.41v-2.15a.54.54,0,0,1,.4-.57,5.14,5.14,0,0,1,1.88-.32,3.35,3.35,0,0,1,3.14,1.62,6.21,6.21,0,0,1,4.59-1.62,5.56,5.56,0,0,1,4.13,1.58,5.75,5.75,0,0,1,1.57,4.21v3.37c0,.67.29,1,.86,1a2.91,2.91,0,0,0,.79-.09q.54-.06.57.42Z"/><path class="cls-3" d="M1244.26,768.34a.44.44,0,0,1,.5.5v12.51a5.69,5.69,0,0,1-1.94,4.48,7.39,7.39,0,0,1-5.08,1.72,8.15,8.15,0,0,1-4.72-1.31,5.27,5.27,0,0,1-2.29-3.49c-.09-.33.07-.49.47-.49h2.93a.61.61,0,0,1,.57.39,2.2,2.2,0,0,0,1.08,1.24,3.84,3.84,0,0,0,1.94.46,3.1,3.1,0,0,0,2.25-.81,2.9,2.9,0,0,0,.83-2.17v-1.09a5.87,5.87,0,0,1-3.63,1.12,6.76,6.76,0,0,1-5-1.9,7,7,0,0,1,0-9.7,6.82,6.82,0,0,1,5-1.88,5.88,5.88,0,0,1,3.72,1.2v-.28c0-.33.16-.5.48-.5Zm-6.76,10a3,3,0,0,0,2.38-1,3.85,3.85,0,0,0,.92-2.65,3.77,3.77,0,0,0-.93-2.64,3.09,3.09,0,0,0-2.37-1,3.16,3.16,0,0,0-2.42,1,4.16,4.16,0,0,0,0,5.28A3.13,3.13,0,0,0,1237.5,778.31Z"/></svg>